<svg width="868" height="263" viewBox="0 0 868 263" fill="none" xmlns="http://www.w3.org/2000/svg">
<path d="M13.9187 244.424C53.9767 267.296 104.072 265.631 148.29 252.497C192.508 239.364 232.788 215.873 274.46 196.097C316.134 176.321 361.116 159.874 407.171 162.445C443.453 164.468 477.95 178.15 513.495 185.701C549.045 193.248 589.069 193.74 618.42 172.312C650.214 149.094 664.149 104.018 700.645 89.2495C740.316 73.1975 787.835 101.155 827.357 84.7345C861.041 70.7415 875.128 26.5845 863.154 -7.86946C851.184 -42.3265 819.041 -66.6955 784.528 -78.5015C750.011 -90.3035 712.894 -91.4105 676.429 -92.4045C545.573 -95.9675 414.716 -99.5305 283.86 -103.093C204.705 -105.249 121.622 -106.554 51.3217 -70.1135C-2.27127 -42.3305 -47.7233 16.6845 -46.9913 79.0705C-46.3373 134.77 -40.2023 213.518 13.9187 244.424Z" fill="#1345CE"/>
<g opacity="0.2">
<path opacity="0.2" d="M502.248 49.2515C518.521 49.2515 531.713 36.0596 531.713 19.7865C531.713 3.51346 518.521 -9.67847 502.248 -9.67847C485.975 -9.67847 472.783 3.51346 472.783 19.7865C472.783 36.0596 485.975 49.2515 502.248 49.2515Z" fill="#231F20"/>
<g opacity="0.2">
<path opacity="0.2" d="M502.248 -12.6245C520.148 -12.6245 534.659 1.88655 534.659 19.7865C534.659 37.6865 520.148 52.1975 502.248 52.1975C484.348 52.1975 469.837 37.6865 469.837 19.7865C469.837 1.88655 484.348 -12.6245 502.248 -12.6245ZM502.248 -18.6245C481.068 -18.6245 463.837 -1.39345 463.837 19.7865C463.837 40.9665 481.068 58.1975 502.248 58.1975C523.428 58.1975 540.659 40.9665 540.659 19.7865C540.659 -1.39345 523.428 -18.6245 502.248 -18.6245Z" fill="#231F20"/>
</g>
</g>
<path d="M511.708 115.685C511.708 115.685 513.073 118.843 513.87 119.639C514.667 120.436 517.824 121.802 517.824 121.802C517.824 121.802 514.667 123.168 513.87 123.965C513.073 124.762 511.708 127.919 511.708 127.919C511.708 127.919 510.341 124.762 509.544 123.965C508.748 123.168 505.59 121.802 505.59 121.802C505.59 121.802 508.748 120.436 509.544 119.639C510.341 118.844 511.708 115.685 511.708 115.685Z" fill="white"/>
<path opacity="0.5" d="M692.003 53.2145C692.003 53.2145 695.161 51.8495 695.957 51.0525C696.754 50.2555 698.12 47.0985 698.12 47.0985C698.12 47.0985 699.486 50.2555 700.283 51.0525C701.08 51.8495 704.237 53.2145 704.237 53.2145C704.237 53.2145 701.08 54.5815 700.283 55.3785C699.486 56.1745 698.12 59.3325 698.12 59.3325C698.12 59.3325 696.754 56.1745 695.957 55.3785C695.161 54.5815 692.003 53.2145 692.003 53.2145Z" fill="#F1F1F2"/>
<path opacity="0.5" d="M133.154 172.703C133.154 172.703 135.071 177.135 136.188 178.252C137.306 179.371 141.737 181.287 141.737 181.287C141.737 181.287 137.306 183.203 136.188 184.322C135.071 185.439 133.154 189.87 133.154 189.87C133.154 189.87 131.237 185.439 130.12 184.322C129.001 183.203 124.571 181.287 124.571 181.287C124.571 181.287 129.001 179.371 130.12 178.252C131.237 177.135 133.154 172.703 133.154 172.703Z" fill="white"/>
<path opacity="0.2" d="M102.574 41.0925C113.913 41.0925 123.105 31.9005 123.105 20.5615C123.105 9.22256 113.913 0.0305176 102.574 0.0305176C91.2348 0.0305176 82.0427 9.22256 82.0427 20.5615C82.0427 31.9005 91.2348 41.0925 102.574 41.0925Z" fill="#231F20"/>
<path opacity="0.2" d="M438.206 66.8005C442.883 66.8005 446.675 63.0088 446.675 58.3315C446.675 53.6542 442.883 49.8625 438.206 49.8625C433.528 49.8625 429.737 53.6542 429.737 58.3315C429.737 63.0088 433.528 66.8005 438.206 66.8005Z" fill="#231F20"/>
<path d="M175.273 176.987C176.458 176.987 177.419 176.026 177.419 174.841C177.419 173.655 176.458 172.695 175.273 172.695C174.088 172.695 173.127 173.655 173.127 174.841C173.127 176.026 174.088 176.987 175.273 176.987Z" fill="#F1F1F2"/>
<path opacity="0.5" d="M632.224 69.1126C633.409 69.1126 634.37 68.1518 634.37 66.9666C634.37 65.7814 633.409 64.8206 632.224 64.8206C631.039 64.8206 630.078 65.7814 630.078 66.9666C630.078 68.1518 631.039 69.1126 632.224 69.1126Z" fill="#F1F1F2"/>
<path opacity="0.5" d="M788.207 51.6555C789.392 51.6555 790.353 50.6947 790.353 49.5095C790.353 48.3243 789.392 47.3635 788.207 47.3635C787.021 47.3635 786.061 48.3243 786.061 49.5095C786.061 50.6947 787.021 51.6555 788.207 51.6555Z" fill="#F1F1F2"/>
<path d="M354.729 136.398C356.033 136.398 357.09 135.34 357.09 134.037C357.09 132.733 356.033 131.676 354.729 131.676C353.425 131.676 352.368 132.733 352.368 134.037C352.368 135.34 353.425 136.398 354.729 136.398Z" fill="#F1F1F2"/>
<path d="M93.7427 107.836C95.568 107.836 97.0477 106.356 97.0477 104.531C97.0477 102.705 95.568 101.226 93.7427 101.226C91.9174 101.226 90.4377 102.705 90.4377 104.531C90.4377 106.356 91.9174 107.836 93.7427 107.836Z" fill="#F1F1F2"/>
<path opacity="0.5" d="M118.684 212.593C119.987 212.593 121.044 211.536 121.044 210.233C121.044 208.929 119.987 207.873 118.684 207.873C117.38 207.873 116.324 208.929 116.324 210.233C116.324 211.536 117.38 212.593 118.684 212.593Z" fill="#F1F1F2"/>
<g opacity="0.2">
<path opacity="0.2" d="M54.1197 192.649C64.7607 192.649 73.3867 201.275 73.3867 211.917C73.3867 222.558 64.7607 231.184 54.1197 231.184C43.4787 231.184 34.8527 222.558 34.8527 211.917C34.8527 201.275 43.4787 192.649 54.1197 192.649ZM54.1197 186.649C40.1877 186.649 28.8527 197.984 28.8527 211.917C28.8527 225.849 40.1877 237.184 54.1197 237.184C68.0517 237.184 79.3867 225.85 79.3867 211.917C79.3867 197.984 68.0517 186.649 54.1197 186.649Z" fill="#231F20"/>
</g>
<g opacity="0.2">
<path opacity="0.2" d="M595.094 134.037C599.956 134.037 603.898 137.979 603.898 142.842C603.898 147.704 599.956 151.646 595.094 151.646C590.232 151.646 586.29 147.704 586.29 142.842C586.289 137.979 590.231 134.037 595.094 134.037ZM595.094 130.037C588.034 130.037 582.29 135.781 582.29 142.842C582.29 149.902 588.034 155.646 595.094 155.646C602.154 155.646 607.898 149.902 607.898 142.842C607.898 135.781 602.154 130.037 595.094 130.037Z" fill="white"/>
</g>
<path d="M219.852 79.6526V79.6506L218.566 77.1226V77.1206L217.155 74.3426H217.152L215.861 71.8006L213.466 67.0926L211.81 63.8346L211.575 63.3656L209.956 60.1846V60.1826H209.954L209.431 59.1496L208.807 57.9236L208.809 57.9216H208.807L207.55 55.4516L207.523 55.3966L203.158 58.6886H203.155L202.459 59.2116L200.253 60.8776H200.251L197.571 62.8996H197.569L194.887 60.8776L192.68 59.2116H192.678L191.985 58.6886H191.983L187.617 55.3956L187.615 55.3936L187.613 55.3956L187.615 55.3976L187.581 55.4626L186.331 57.9226L185.701 59.1626L185.182 60.1846L183.566 63.3656H183.564L183.329 63.8316V63.8336L181.672 67.0896V67.0916L179.277 71.7996L177.986 74.3416H177.984L176.572 77.1196L175.286 79.6496L175.27 79.6826L175.355 79.7006L182.508 85.0936L195.143 94.6186L197.569 96.4466L199.985 94.6276L202.591 92.6626L212.635 85.0936L219.788 79.7006L219.869 79.6826L219.852 79.6526ZM210.154 67.0916V67.0936L211.81 70.3506V70.3526L212.88 72.4556L214.171 74.9976L214.514 75.6716L210.604 72.7266L208.208 70.9216V70.9196L206.615 69.7186L206.868 68.7656L208.289 63.4286L210.154 67.0916ZM203.842 61.6666V61.6646L206.411 59.7296L205.437 63.3846L204.229 67.9206L199.888 64.6456L203.842 61.6666ZM191.297 61.6646L195.25 64.6456L190.9 67.9266L189.69 63.3846L188.721 59.7416L188.728 59.7276L191.296 61.6646H191.297ZM180.965 74.9966L182.256 72.4546L183.327 70.3496L184.983 67.0906L186.839 63.4396L188.257 68.7646L188.513 69.7226L186.926 70.9176V70.9196L184.531 72.7246L180.621 75.6696L180.965 74.9966ZM184.826 83.3446H184.824L182.508 81.5966L179.956 79.6746L185.816 75.2536H185.818L188.213 73.4486V73.4466L189.288 72.6356L193.977 90.2456L184.826 83.3446ZM197.561 92.9476L191.674 70.8366L192.699 70.0646L195.018 68.3186L195.889 67.6596L195.933 67.6266L196.007 67.5706L196.415 67.2626L197.567 66.3916H197.569L199.129 67.5706L199.203 67.6266L199.247 67.6596L200.12 68.3196L200.455 68.5696L200.599 68.6786L200.706 68.7586L200.985 68.9686L201.079 69.0406L201.391 69.2766L202.44 70.0656L203.456 70.8316L197.564 92.9516L197.561 92.9476ZM212.63 81.5966L210.311 83.3446L201.817 89.7496L201.146 90.2546L205.839 72.6296L206.923 73.4466L209.32 75.2536L215.18 79.6726L212.63 81.5966Z" fill="white"/>
<path d="M262.596 65.9508C265.133 65.9508 267.138 66.6868 268.61 68.1586C270.107 69.6305 270.856 71.8129 270.856 74.7058V86.3157H267.202V75.1245C267.202 73.1705 266.745 71.6987 265.831 70.709C264.943 69.7193 263.662 69.2244 261.987 69.2244C260.134 69.2244 258.662 69.8081 257.571 70.9754C256.48 72.1174 255.934 73.7669 255.934 75.9239V86.3157H252.28V75.1245C252.28 73.1705 251.823 71.6987 250.91 70.709C250.022 69.7193 248.74 69.2244 247.065 69.2244C245.213 69.2244 243.741 69.8081 242.65 70.9754C241.558 72.1174 241.013 73.7669 241.013 75.9239V86.3157H237.359V66.1412H240.861V69.1483C241.596 68.1079 242.561 67.3212 243.753 66.7883C244.946 66.23 246.304 65.9508 247.826 65.9508C249.4 65.9508 250.796 66.2681 252.014 66.9025C253.232 67.5369 254.171 68.4631 254.83 69.6812C255.592 68.5139 256.645 67.6003 257.99 66.9405C259.36 66.2807 260.895 65.9508 262.596 65.9508ZM277.58 66.1412H281.234V86.3157H277.58V66.1412ZM279.407 62.2585C278.696 62.2585 278.1 62.0301 277.618 61.5734C277.161 61.1166 276.933 60.5583 276.933 59.8985C276.933 59.2387 277.161 58.6804 277.618 58.2236C278.1 57.7415 278.696 57.5004 279.407 57.5004C280.117 57.5004 280.701 57.7288 281.158 58.1856C281.64 58.617 281.881 59.1626 281.881 59.8224C281.881 60.5075 281.64 61.0912 281.158 61.5734C280.701 62.0301 280.117 62.2585 279.407 62.2585ZM298.831 85.1357C298.298 85.5924 297.639 85.9477 296.852 86.2015C296.065 86.4299 295.253 86.5441 294.416 86.5441C292.386 86.5441 290.812 85.9985 289.696 84.9073C288.579 83.8161 288.021 82.2554 288.021 80.2253V61.7256H291.675V66.1412H297.461V69.1483H291.675V80.073C291.675 81.1642 291.942 82.0016 292.474 82.5853C293.033 83.169 293.819 83.4608 294.834 83.4608C295.951 83.4608 296.903 83.1436 297.689 82.5092L298.831 85.1357ZM313.849 85.1357C313.316 85.5924 312.656 85.9477 311.87 86.2015C311.083 86.4299 310.271 86.5441 309.434 86.5441C307.403 86.5441 305.83 85.9985 304.714 84.9073C303.597 83.8161 303.039 82.2554 303.039 80.2253V61.7256H306.693V66.1412H312.479V69.1483H306.693V80.073C306.693 81.1642 306.959 82.0016 307.492 82.5853C308.051 83.169 308.837 83.4608 309.852 83.4608C310.969 83.4608 311.921 83.1436 312.707 82.5092L313.849 85.1357ZM326.219 86.5441C324.214 86.5441 322.412 86.1 320.813 85.2118C319.215 84.3236 317.958 83.1055 317.045 81.5575C316.157 79.9842 315.713 78.2078 315.713 76.2284C315.713 74.249 316.157 72.4854 317.045 70.9374C317.958 69.364 319.215 68.1459 320.813 67.2831C322.412 66.3949 324.214 65.9508 326.219 65.9508C328.223 65.9508 330.012 66.3949 331.586 67.2831C333.184 68.1459 334.428 69.364 335.316 70.9374C336.23 72.4854 336.686 74.249 336.686 76.2284C336.686 78.2078 336.23 79.9842 335.316 81.5575C334.428 83.1055 333.184 84.3236 331.586 85.2118C330.012 86.1 328.223 86.5441 326.219 86.5441ZM326.219 83.3466C327.513 83.3466 328.667 83.0548 329.682 82.4711C330.723 81.8621 331.535 81.0246 332.119 79.9588C332.702 78.8676 332.994 77.6241 332.994 76.2284C332.994 74.8327 332.702 73.6019 332.119 72.5361C331.535 71.4449 330.723 70.6075 329.682 70.0238C328.667 69.4401 327.513 69.1483 326.219 69.1483C324.924 69.1483 323.757 69.4401 322.717 70.0238C321.701 70.6075 320.889 71.4449 320.28 72.5361C319.697 73.6019 319.405 74.8327 319.405 76.2284C319.405 77.6241 319.697 78.8676 320.28 79.9588C320.889 81.0246 321.701 81.8621 322.717 82.4711C323.757 83.0548 324.924 83.3466 326.219 83.3466Z" fill="white"/>
</svg>
