<?xml version="1.0" encoding="utf-8"?>
<!-- Generator: Adobe Illustrator 16.0.0, SVG Export Plug-In . SVG Version: 6.00 Build 0)  -->
<!DOCTYPE svg PUBLIC "-//W3C//DTD SVG 1.1//EN" "http://www.w3.org/Graphics/SVG/1.1/DTD/svg11.dtd">
<svg version="1.1" id="Layer_1" xmlns="http://www.w3.org/2000/svg" xmlns:xlink="http://www.w3.org/1999/xlink" x="0px" y="0px"
	 width="432px" height="768px" viewBox="0 0 432 768" enable-background="new 0 0 432 768" xml:space="preserve">
<g>
	<g>
		<defs>
			<rect id="SVGID_10_" y="-775.2" width="432" height="768"/>
		</defs>
		<clipPath id="SVGID_2_">
			<use xlink:href="#SVGID_10_"  overflow="visible"/>
		</clipPath>
		<g clip-path="url(#SVGID_2_)">
			<path fill="#21A875" d="M5.476,36.405c42.758-0.729,84.203,13.793,126.639,19.104c42.432,5.312,90.855-1.16,117.924-34.267
				c25.375-31.029,25.832-78.062,54.277-106.303c30.055-29.837,80.4-28.021,113.824-54.04
				c39.36-30.636,42.541-87.447,57.408-135.061c21.394-68.496,71.254-123.779,119.722-176.699
				c11.475-12.527,26.815-26.262,43.147-21.572c17.902,5.137,22.539,27.916,23.951,46.486
				c11.246,148.094,22.494,296.184,33.741,444.273c5.062,66.641,8.14,140.251-33.135,192.814
				c-48.116,61.271-136.229,69.435-214.07,72.607c-101.476,4.137-202.952,8.271-304.423,12.408
				c-55.893,2.277-112.51,4.498-167.174-7.383c-60.135-13.07-162.121-55.663-137.34-130.29
				C-137.401,90.327-66.101,37.626,5.476,36.405z"/>
			<g opacity="0.2">
				<circle fill="#231F20" cx="405.71" cy="-19.196" r="41.25"/>
				<g>
					<path fill="#231F20" d="M405.71-64.571c25.06,0,45.375,20.315,45.375,45.375S430.77,26.179,405.71,26.179
						c-25.061,0-45.375-20.315-45.375-45.375S380.649-64.571,405.71-64.571 M405.71-70.571c-28.328,0-51.375,23.047-51.375,51.375
						s23.047,51.375,51.375,51.375s51.375-23.047,51.375-51.375S434.038-70.571,405.71-70.571L405.71-70.571z"/>
				</g>
			</g>
		</g>
	</g>
</g>
<g>
	<path fill="#FFFFFF" stroke="#E6E7E8" stroke-width="0.75" stroke-miterlimit="10" d="M372.129,416.215
		c0,4.977-4.035,9.012-9.012,9.012H110.802c-4.977,0-9.012-4.035-9.012-9.012v-18.022c0-4.976,4.035-9.011,9.012-9.011h252.315
		c4.977,0,9.012,4.035,9.012,9.011V416.215z"/>
	<path fill="#FFFFFF" stroke="#E6E7E8" stroke-width="0.75" stroke-miterlimit="10" d="M372.129,462.431
		c0,4.976-4.035,9.011-9.012,9.011H110.802c-4.977,0-9.012-4.035-9.012-9.011v-18.023c0-4.977,4.035-9.011,9.012-9.011h252.315
		c4.977,0,9.012,4.034,9.012,9.011V462.431z"/>
	<g>
		<text transform="matrix(1 0 0 1 113.1167 411.2617)" fill="#A6B0C3" font-family="'Montserrat-Medium'" font-size="11.34">Enter recepient’s email address</text>
	</g>
	<g>
		<text transform="matrix(1 0 0 1 114.062 457.4678)" fill="#A6B0C3" font-family="'Montserrat-Medium'" font-size="11.34">Enter amount</text>
	</g>
	<path fill="#FFFFFF" stroke="#E6E7E8" stroke-width="0.75" stroke-miterlimit="10" d="M372.129,508.645
		c0,4.977-4.035,9.012-9.012,9.012H110.802c-4.977,0-9.012-4.035-9.012-9.012v-18.021c0-4.977,4.035-9.012,9.012-9.012h252.315
		c4.977,0,9.012,4.035,9.012,9.012V508.645z"/>
	<g>
		<text transform="matrix(1 0 0 1 115.3071 503.6748)" fill="#A6B0C3" font-family="'Montserrat-Medium'" font-size="11.34">Add a description</text>
	</g>
	<path fill="#5A728A" d="M80.211,400.565H63.257c-1.426,0-2.583,1.167-2.583,2.584v10.887c0,1.427,1.158,2.584,2.583,2.584h16.954
		c1.426,0,2.584-1.157,2.584-2.584v-10.887C82.795,401.732,81.637,400.565,80.211,400.565z M80.591,401.854l-8.86,6.844
		l-8.862-6.844H80.591z M81.507,414.036c0,0.722-0.583,1.304-1.296,1.304H63.257c-0.721,0-1.303-0.582-1.303-1.304v-11.275
		l9.387,7.25c0.219,0.178,0.559,0.178,0.786,0l9.379-7.25V414.036z"/>
	<path fill="#5A728A" d="M81.979,491.604c-0.927-1.373-2.793-1.733-4.166-0.807l-13.943,9.418c-0.096,0.063-0.173,0.151-0.224,0.255
		l-2.61,5.247c-0.108,0.216-0.091,0.473,0.044,0.67c0.135,0.2,0.365,0.312,0.605,0.293l5.842-0.463
		c0.116-0.008,0.226-0.047,0.321-0.112l13.943-9.416c1.372-0.93,1.733-2.793,0.807-4.166L81.979,491.604z M65.213,500.918
		l11.411-7.708l2.486,3.68l-11.413,7.707L65.213,500.918z M64.358,502.032l1.986,2.941l-3.591,0.284L64.358,502.032z
		 M81.045,495.585l-0.828,0.559l-2.486-3.681l0.829-0.56c0.763-0.515,1.799-0.314,2.313,0.447l0.62,0.919
		C82.007,494.033,81.808,495.068,81.045,495.585z"/>
	<g>
		<path fill="#5A728A" d="M81.984,448.577c-0.051-1.216-0.89-2.23-2.018-2.548l-0.001-0.005c-0.238-0.069-0.489-0.105-0.748-0.105
			h-0.573c0,0,0.001,0.006,0.002,0.007H64.251c-0.541,0-1.047,0.157-1.475,0.427v-0.006c-0.778,0.49-1.294,1.357-1.294,2.341v10.369
			c0,0.985,0.516,1.851,1.294,2.343c0.427,0.27,0.934,0.426,1.475,0.426h14.967c0.259,0,0.51-0.035,0.748-0.103
			c1.131-0.317,1.97-1.336,2.019-2.555c0.002-0.037,0.002-0.073,0.002-0.111v-10.369C81.987,448.651,81.986,448.614,81.984,448.577z
			 M79.218,460.533H64.251c-0.802,0-1.458-0.646-1.475-1.445c0-0.013,0-0.024,0-0.038v-10.362c0-0.01,0-0.02,0-0.03
			c0.021-0.797,0.674-1.438,1.475-1.438h14.967c0.801,0,1.454,0.641,1.475,1.438c0,0.011,0,0.021,0,0.03v2.265h-4.124
			c-1.62,0-2.94,1.307-2.964,2.92c0,0.015,0,0.03,0,0.044c0,1.635,1.33,2.964,2.964,2.964h4.124v2.17c0,0.014,0,0.025,0,0.038
			C80.677,459.887,80.021,460.533,79.218,460.533z M74.899,453.874v-0.002c0.023-0.901,0.764-1.627,1.67-1.627h4.124v3.342h-4.124
			c-0.922,0-1.67-0.749-1.67-1.671C74.899,453.902,74.899,453.889,74.899,453.874z"/>
		<circle fill="#5A728A" cx="76.809" cy="453.965" r="0.674"/>
	</g>
</g>
<g>
	<path fill="#21CA8A" d="M261.287,572.701c0,9.785-7.939,17.724-17.725,17.724h-53.717c-9.792,0-17.731-7.938-17.731-17.724
		c0-4.899,1.984-9.331,5.192-12.538c3.208-3.208,7.638-5.192,12.539-5.192h53.717C253.348,554.971,261.287,562.908,261.287,572.701z
		"/>
	<g>
		<text transform="matrix(1 0 0 1 210.5913 576.457)" fill="#FFFFFF" font-family="'Montserrat-SemiBold'" font-size="11.383">Send</text>
	</g>
	<path fill="#FFFFFF" d="M204.095,566.555l-1.687,11.347c-0.021,0.134-0.1,0.255-0.217,0.326c-0.072,0.044-0.154,0.066-0.24,0.066
		c-0.049,0-0.098-0.009-0.148-0.024l-3.936-1.346l-1.661,2.263c-0.089,0.121-0.227,0.188-0.372,0.188
		c-0.047,0-0.095-0.007-0.143-0.022c-0.189-0.063-0.316-0.238-0.316-0.438v-2.843h-0.002l0.002-0.002l6.323-7.616l-8.173,6.987
		l-3.838-1.313c-0.172-0.058-0.293-0.216-0.309-0.399c-0.014-0.185,0.082-0.358,0.246-0.443l13.802-7.208
		c0.153-0.081,0.339-0.066,0.479,0.033C204.047,566.211,204.12,566.382,204.095,566.555z"/>
</g>
<circle fill="#F487CD" cx="217.141" cy="275.417" r="37.462"/>
<text transform="matrix(1 0 0 1 142.7139 350.4063)" font-family="'Montserrat-Bold'" font-size="29.16">$Brandon</text>
<g>
	<defs>
		<rect id="SVGID_12_" x="0.012" width="432" height="768"/>
	</defs>
	<clipPath id="SVGID_4_">
		<use xlink:href="#SVGID_12_"  overflow="visible"/>
	</clipPath>
	<g clip-path="url(#SVGID_4_)">
		<g>
			<path fill="#1345CE" d="M-670.098,280.693c40.058,22.872,90.153,21.207,134.371,8.073c44.218-13.133,84.498-36.624,126.17-56.4
				c41.674-19.776,86.656-36.223,132.711-33.652c36.282,2.023,70.779,15.705,106.324,23.256
				c35.55,7.547,75.574,8.039,104.925-13.389c31.794-23.218,45.729-68.294,82.225-83.062c39.671-16.052,87.19,11.905,126.712-4.515
				c33.684-13.993,47.771-58.15,35.797-92.604c-11.97-34.457-44.113-58.826-78.626-70.632C65.994-54.032,28.876-55.14-7.588-56.134
				c-130.856-3.563-261.713-7.126-392.569-10.689c-79.155-2.156-162.238-3.461-232.538,32.98
				c-53.593,27.783-99.045,86.798-98.313,149.184C-730.354,171.04-724.219,249.788-670.098,280.693z"/>
		</g>
		<path opacity="0.5" fill="#F1F1F2" d="M7.986,89.484c0,0,3.158-1.365,3.954-2.162c0.797-0.797,2.163-3.953,2.163-3.953
			s1.366,3.156,2.163,3.953s3.954,2.162,3.954,2.162s-3.157,1.367-3.954,2.164s-2.163,3.955-2.163,3.955s-1.366-3.158-2.163-3.955
			C11.144,90.852,7.986,89.484,7.986,89.484z"/>
		<circle opacity="0.5" fill="#F1F1F2" cx="104.19" cy="85.779" r="2.146"/>
	</g>
	<g clip-path="url(#SVGID_4_)">
		<path fill="#1345CE" d="M5.488,811.605c42.758-0.729,84.203,13.793,126.639,19.104c42.432,5.312,90.856-1.16,117.924-34.267
			c25.375-31.029,25.832-78.062,54.277-106.303c30.055-29.837,80.4-28.021,113.824-54.04
			c39.359-30.636,42.541-87.447,57.408-135.061c21.393-68.496,71.254-123.779,119.721-176.699
			c11.475-12.527,26.816-26.262,43.148-21.572c17.902,5.137,22.539,27.916,23.951,46.486
			c11.246,148.094,22.494,296.184,33.74,444.273c5.063,66.641,8.141,140.251-33.135,192.814
			c-48.115,61.271-136.229,69.435-214.07,72.607c-101.475,4.137-202.951,8.271-304.422,12.408
			c-55.893,2.277-112.51,4.498-167.174-7.383c-60.135-13.07-162.121-55.663-137.34-130.29
			C-137.389,865.527-66.088,812.826,5.488,811.605z"/>
		<g opacity="0.2">
			<circle fill="#231F20" cx="405.723" cy="756.004" r="41.25"/>
			<g>
				<path fill="#231F20" d="M405.723,710.629c25.059,0,45.375,20.315,45.375,45.375s-20.316,45.375-45.375,45.375
					c-25.061,0-45.375-20.315-45.375-45.375S380.662,710.629,405.723,710.629 M405.723,704.629
					c-28.328,0-51.375,23.047-51.375,51.375s23.047,51.375,51.375,51.375s51.375-23.047,51.375-51.375
					S434.051,704.629,405.723,704.629L405.723,704.629z"/>
			</g>
		</g>
	</g>
</g>
<g>
	<path fill="#FFFFFF" d="M58.066,56.82v-0.002l-0.927-1.82v-0.001l-1.016-2.001h-0.002l-0.93-1.83l-1.725-3.39l-1.192-2.347
		l-0.169-0.337l-1.166-2.29v-0.002h-0.001l-0.377-0.743l-0.449-0.883l0.002-0.001h-0.002l-0.905-1.779l-0.019-0.039l-3.143,2.369
		h-0.002l-0.501,0.377l-1.589,1.199h-0.002l-1.929,1.457h-0.001l-1.931-1.457l-1.589-1.199H38.5L38,41.725h-0.002l-3.143-2.371
		l-0.001-0.002l-0.002,0.002l0.002,0.002l-0.025,0.047l-0.9,1.771l-0.454,0.893l-0.374,0.736l-1.164,2.29h-0.002l-0.169,0.335v0.002
		l-1.193,2.346v0.001l-1.724,3.39l-0.929,1.83h-0.001l-1.016,2.001l-0.926,1.821l-0.012,0.023l0.062,0.014l5.149,3.883l9.099,6.857
		l1.747,1.316l1.739-1.311l1.875-1.414l7.232-5.449l5.149-3.883l0.059-0.014L58.066,56.82z M51.083,47.776L51.083,47.776
		l1.192,2.347v0.002l0.77,1.514l0.93,1.83l0.248,0.484l-2.816-2.119l-1.725-1.301v-0.001l-1.147-0.864l0.182-0.687l1.024-3.843
		L51.083,47.776z M46.538,43.871v-0.002l1.851-1.393l-0.702,2.631l-0.87,3.266l-3.125-2.357L46.538,43.871z M37.506,43.869
		l2.846,2.146l-3.132,2.362l-0.872-3.271l-0.698-2.623l0.005-0.01l1.849,1.395H37.506z M30.067,53.469l0.929-1.83l0.771-1.516
		l1.193-2.347l1.336-2.629l1.021,3.834l0.185,0.69l-1.143,0.86v0.001l-1.725,1.301l-2.816,2.119L30.067,53.469z M32.846,59.479
		h-0.001l-1.668-1.259l-1.837-1.384l4.22-3.183h0.002l1.724-1.3v-0.001l0.774-0.585l3.376,12.68L32.846,59.479z M42.017,66.393
		l-4.24-15.92l0.738-0.555l1.67-1.258l0.628-0.475l0.031-0.023l0.054-0.04l0.294-0.222l0.829-0.627h0.001l1.123,0.849l0.054,0.04
		l0.032,0.023l0.627,0.475l0.241,0.181l0.104,0.079l0.077,0.057l0.201,0.15l0.067,0.053l0.224,0.17l0.756,0.568l0.731,0.551
		l-4.242,15.926L42.017,66.393z M52.866,58.22l-1.67,1.259l-6.116,4.611l-0.483,0.363l3.379-12.689l0.781,0.589l1.726,1.301
		l4.22,3.182L52.866,58.22z"/>
	
		<text transform="matrix(1 0 0 1 68.127 62.3848)" fill="#FFFFFF" font-family="'MontserratAlternates-Medium'" font-size="27.4069">mitto</text>
</g>
<g>
	<path fill="#21CA8A" d="M406.717,53.266c0,8.697-7.057,15.754-15.754,15.754h-47.75c-8.705,0-15.76-7.057-15.76-15.754
		c0-4.355,1.762-8.295,4.613-11.146s6.791-4.616,11.146-4.616h47.75C399.66,37.504,406.717,44.561,406.717,53.266z"/>
	<g>
		<text transform="matrix(1 0 0 1 357.8477 56.6055)" fill="#FFFFFF" font-family="'Montserrat-SemiBold'" font-size="10.1183">$ 10</text>
	</g>
</g>
<g>
	<path fill="#FFFFFF" stroke="#E6E7E8" stroke-width="0.75" stroke-miterlimit="10" d="M318.07,53.266
		c0,8.697-7.057,15.754-15.754,15.754h-47.75c-8.705,0-15.76-7.057-15.76-15.754c0-4.355,1.762-8.295,4.613-11.146
		s6.791-4.616,11.146-4.616h47.75C311.014,37.504,318.07,44.561,318.07,53.266z"/>
	<text transform="matrix(1 0 0 1 283.6289 56.6055)" fill="#5A728A" font-family="'Montserrat-SemiBold'" font-size="10.1183">USD</text>
	<g id="USA_2_">
		<g>
			<g>
				<defs>
					<rect id="SVGID_14_" x="253.164" y="46.498" width="23.762" height="13.859"/>
				</defs>
				<clipPath id="SVGID_6_">
					<use xlink:href="#SVGID_14_"  overflow="visible"/>
				</clipPath>
				<rect x="253.164" y="59.291" clip-path="url(#SVGID_6_)" fill="#CB001C" width="23.762" height="1.066"/>
				<rect x="253.164" y="58.225" clip-path="url(#SVGID_6_)" fill="#FFFFFF" width="23.762" height="1.066"/>
				<rect x="253.164" y="57.161" clip-path="url(#SVGID_6_)" fill="#CB001C" width="23.762" height="1.063"/>
				<rect x="253.164" y="56.094" clip-path="url(#SVGID_6_)" fill="#FFFFFF" width="23.762" height="1.067"/>
				<rect x="253.164" y="55.026" clip-path="url(#SVGID_6_)" fill="#CB001C" width="23.762" height="1.067"/>
				<rect x="253.164" y="53.961" clip-path="url(#SVGID_6_)" fill="#FFFFFF" width="23.762" height="1.065"/>
				<rect x="253.164" y="52.894" clip-path="url(#SVGID_6_)" fill="#CB001C" width="23.762" height="1.067"/>
				<rect x="253.164" y="51.828" clip-path="url(#SVGID_6_)" fill="#FFFFFF" width="23.762" height="1.065"/>
				<rect x="253.164" y="50.764" clip-path="url(#SVGID_6_)" fill="#CB001C" width="23.762" height="1.064"/>
				<rect x="253.164" y="49.697" clip-path="url(#SVGID_6_)" fill="#FFFFFF" width="23.762" height="1.066"/>
				<rect x="253.164" y="48.629" clip-path="url(#SVGID_6_)" fill="#CB001C" width="23.762" height="1.068"/>
				<rect x="253.164" y="47.564" clip-path="url(#SVGID_6_)" fill="#FFFFFF" width="23.762" height="1.064"/>
				<rect x="253.164" y="46.498" clip-path="url(#SVGID_6_)" fill="#CB001C" width="23.762" height="1.066"/>
				<rect x="253.164" y="46.498" clip-path="url(#SVGID_6_)" fill="#2A3560" width="10.852" height="7.463"/>
				<polygon clip-path="url(#SVGID_6_)" fill="#FFFFFF" points="254.145,47.32 254.238,47.604 254.535,47.604 254.295,47.777 
					254.383,48.06 254.145,47.886 253.904,48.06 253.998,47.777 253.758,47.604 254.051,47.604 				"/>
				<polygon clip-path="url(#SVGID_6_)" fill="#FFFFFF" points="254.145,48.566 254.238,48.848 254.535,48.848 254.295,49.021 
					254.383,49.304 254.145,49.131 253.904,49.304 253.998,49.021 253.758,48.848 254.051,48.848 				"/>
				<polygon clip-path="url(#SVGID_6_)" fill="#FFFFFF" points="254.145,49.813 254.238,50.094 254.535,50.094 254.295,50.268 
					254.383,50.552 254.145,50.376 253.904,50.552 253.998,50.268 253.758,50.094 254.051,50.094 				"/>
				<polygon clip-path="url(#SVGID_6_)" fill="#FFFFFF" points="254.145,51.059 254.238,51.34 254.535,51.34 254.295,51.514 
					254.383,51.795 254.145,51.622 253.904,51.795 253.998,51.514 253.758,51.34 254.051,51.34 				"/>
				<polygon clip-path="url(#SVGID_6_)" fill="#FFFFFF" points="254.145,52.303 254.238,52.586 254.535,52.586 254.295,52.76 
					254.383,53.041 254.145,52.867 253.904,53.041 253.998,52.76 253.758,52.586 254.051,52.586 				"/>
				<polygon clip-path="url(#SVGID_6_)" fill="#FFFFFF" points="255.014,47.977 255.102,48.259 255.4,48.259 255.16,48.434 
					255.25,48.715 255.014,48.541 254.773,48.715 254.863,48.434 254.623,48.259 254.922,48.259 				"/>
				<polygon clip-path="url(#SVGID_6_)" fill="#FFFFFF" points="255.014,49.223 255.102,49.504 255.4,49.504 255.16,49.679 
					255.25,49.96 255.014,49.788 254.773,49.96 254.863,49.679 254.623,49.504 254.922,49.504 				"/>
				<polygon clip-path="url(#SVGID_6_)" fill="#FFFFFF" points="255.014,50.469 255.102,50.751 255.4,50.751 255.16,50.924 
					255.25,51.206 255.014,51.033 254.773,51.206 254.863,50.924 254.623,50.751 254.922,50.751 				"/>
				<polygon clip-path="url(#SVGID_6_)" fill="#FFFFFF" points="255.014,51.716 255.102,51.996 255.4,51.996 255.16,52.17 
					255.25,52.451 255.014,52.277 254.773,52.451 254.863,52.17 254.623,51.996 254.922,51.996 				"/>
				<polygon clip-path="url(#SVGID_6_)" fill="#FFFFFF" points="255.889,47.32 255.982,47.604 256.279,47.604 256.037,47.777 
					256.131,48.06 255.889,47.886 255.65,48.06 255.742,47.777 255.502,47.604 255.799,47.604 				"/>
				<polygon clip-path="url(#SVGID_6_)" fill="#FFFFFF" points="255.889,48.566 255.982,48.848 256.279,48.848 256.037,49.021 
					256.131,49.304 255.889,49.131 255.65,49.304 255.742,49.021 255.502,48.848 255.799,48.848 				"/>
				<polygon clip-path="url(#SVGID_6_)" fill="#FFFFFF" points="255.889,49.813 255.982,50.094 256.279,50.094 256.037,50.268 
					256.131,50.552 255.889,50.376 255.65,50.552 255.742,50.268 255.502,50.094 255.799,50.094 				"/>
				<polygon clip-path="url(#SVGID_6_)" fill="#FFFFFF" points="255.889,51.059 255.982,51.34 256.279,51.34 256.037,51.514 
					256.131,51.795 255.889,51.622 255.65,51.795 255.742,51.514 255.502,51.34 255.799,51.34 				"/>
				<polygon clip-path="url(#SVGID_6_)" fill="#FFFFFF" points="255.889,52.303 255.982,52.586 256.279,52.586 256.037,52.76 
					256.131,53.041 255.889,52.867 255.65,53.041 255.742,52.76 255.502,52.586 255.799,52.586 				"/>
				<polygon clip-path="url(#SVGID_6_)" fill="#FFFFFF" points="256.758,47.977 256.848,48.259 257.146,48.259 256.906,48.434 
					256.998,48.715 256.758,48.541 256.52,48.715 256.611,48.434 256.369,48.259 256.666,48.259 				"/>
				<polygon clip-path="url(#SVGID_6_)" fill="#FFFFFF" points="256.758,49.223 256.848,49.504 257.146,49.504 256.906,49.679 
					256.998,49.96 256.758,49.788 256.52,49.96 256.611,49.679 256.369,49.504 256.666,49.504 				"/>
				<polygon clip-path="url(#SVGID_6_)" fill="#FFFFFF" points="256.758,50.469 256.848,50.751 257.146,50.751 256.906,50.924 
					256.998,51.206 256.758,51.033 256.52,51.206 256.611,50.924 256.369,50.751 256.666,50.751 				"/>
				<polygon clip-path="url(#SVGID_6_)" fill="#FFFFFF" points="256.758,51.716 256.848,51.996 257.146,51.996 256.906,52.17 
					256.998,52.451 256.758,52.277 256.52,52.451 256.611,52.17 256.369,51.996 256.666,51.996 				"/>
				<polygon clip-path="url(#SVGID_6_)" fill="#FFFFFF" points="257.637,47.32 257.729,47.604 258.023,47.604 257.783,47.777 
					257.879,48.06 257.637,47.886 257.396,48.06 257.488,47.777 257.25,47.604 257.547,47.604 				"/>
				<polygon clip-path="url(#SVGID_6_)" fill="#FFFFFF" points="257.637,48.566 257.729,48.848 258.023,48.848 257.783,49.021 
					257.879,49.304 257.637,49.131 257.396,49.304 257.488,49.021 257.25,48.848 257.547,48.848 				"/>
				<polygon clip-path="url(#SVGID_6_)" fill="#FFFFFF" points="257.637,49.813 257.729,50.094 258.023,50.094 257.783,50.268 
					257.879,50.552 257.637,50.376 257.396,50.552 257.488,50.268 257.25,50.094 257.547,50.094 				"/>
				<polygon clip-path="url(#SVGID_6_)" fill="#FFFFFF" points="257.637,51.059 257.729,51.34 258.023,51.34 257.783,51.514 
					257.879,51.795 257.637,51.622 257.396,51.795 257.488,51.514 257.25,51.34 257.547,51.34 				"/>
				<polygon clip-path="url(#SVGID_6_)" fill="#FFFFFF" points="257.637,52.303 257.729,52.586 258.023,52.586 257.783,52.76 
					257.879,53.041 257.637,52.867 257.396,53.041 257.488,52.76 257.25,52.586 257.547,52.586 				"/>
				<polygon clip-path="url(#SVGID_6_)" fill="#FFFFFF" points="258.506,47.977 258.596,48.259 258.893,48.259 258.654,48.434 
					258.742,48.715 258.506,48.541 258.266,48.715 258.355,48.434 258.115,48.259 258.412,48.259 				"/>
				<polygon clip-path="url(#SVGID_6_)" fill="#FFFFFF" points="258.506,49.223 258.596,49.504 258.893,49.504 258.654,49.679 
					258.742,49.96 258.506,49.788 258.266,49.96 258.355,49.679 258.115,49.504 258.412,49.504 				"/>
				<polygon clip-path="url(#SVGID_6_)" fill="#FFFFFF" points="258.506,50.469 258.596,50.751 258.893,50.751 258.654,50.924 
					258.742,51.206 258.506,51.033 258.266,51.206 258.355,50.924 258.115,50.751 258.412,50.751 				"/>
				<polygon clip-path="url(#SVGID_6_)" fill="#FFFFFF" points="258.506,51.716 258.596,51.996 258.893,51.996 258.654,52.17 
					258.742,52.451 258.506,52.277 258.266,52.451 258.355,52.17 258.115,51.996 258.412,51.996 				"/>
				<polygon clip-path="url(#SVGID_6_)" fill="#FFFFFF" points="259.381,47.32 259.475,47.604 259.771,47.604 259.531,47.777 
					259.623,48.06 259.381,47.886 259.145,48.06 259.234,47.777 258.994,47.604 259.291,47.604 				"/>
				<polygon clip-path="url(#SVGID_6_)" fill="#FFFFFF" points="259.381,48.566 259.475,48.848 259.771,48.848 259.531,49.021 
					259.623,49.304 259.381,49.131 259.145,49.304 259.234,49.021 258.994,48.848 259.291,48.848 				"/>
				<polygon clip-path="url(#SVGID_6_)" fill="#FFFFFF" points="259.381,49.813 259.475,50.094 259.771,50.094 259.531,50.268 
					259.623,50.552 259.381,50.376 259.145,50.552 259.234,50.268 258.994,50.094 259.291,50.094 				"/>
				<polygon clip-path="url(#SVGID_6_)" fill="#FFFFFF" points="259.381,51.059 259.475,51.34 259.771,51.34 259.531,51.514 
					259.623,51.795 259.381,51.622 259.145,51.795 259.234,51.514 258.994,51.34 259.291,51.34 				"/>
				<polygon clip-path="url(#SVGID_6_)" fill="#FFFFFF" points="259.381,52.303 259.475,52.586 259.771,52.586 259.531,52.76 
					259.623,53.041 259.381,52.867 259.145,53.041 259.234,52.76 258.994,52.586 259.291,52.586 				"/>
				<polygon clip-path="url(#SVGID_6_)" fill="#FFFFFF" points="260.25,47.977 260.342,48.259 260.641,48.259 260.398,48.434 
					260.49,48.715 260.25,48.541 260.01,48.715 260.104,48.434 259.863,48.259 260.16,48.259 				"/>
				<polygon clip-path="url(#SVGID_6_)" fill="#FFFFFF" points="260.25,49.223 260.342,49.504 260.641,49.504 260.398,49.679 
					260.49,49.96 260.25,49.788 260.01,49.96 260.104,49.679 259.863,49.504 260.16,49.504 				"/>
				<polygon clip-path="url(#SVGID_6_)" fill="#FFFFFF" points="260.25,50.469 260.342,50.751 260.641,50.751 260.398,50.924 
					260.49,51.206 260.25,51.033 260.01,51.206 260.104,50.924 259.863,50.751 260.16,50.751 				"/>
				<polygon clip-path="url(#SVGID_6_)" fill="#FFFFFF" points="260.25,51.716 260.342,51.996 260.641,51.996 260.398,52.17 
					260.49,52.451 260.25,52.277 260.01,52.451 260.104,52.17 259.863,51.996 260.16,51.996 				"/>
				<polygon clip-path="url(#SVGID_6_)" fill="#FFFFFF" points="261.129,47.32 261.221,47.604 261.52,47.604 261.279,47.777 
					261.369,48.06 261.129,47.886 260.893,48.06 260.982,47.777 260.742,47.604 261.039,47.604 				"/>
				<polygon clip-path="url(#SVGID_6_)" fill="#FFFFFF" points="261.129,48.566 261.221,48.848 261.52,48.848 261.279,49.021 
					261.369,49.304 261.129,49.131 260.893,49.304 260.982,49.021 260.742,48.848 261.039,48.848 				"/>
				<polygon clip-path="url(#SVGID_6_)" fill="#FFFFFF" points="261.129,49.813 261.221,50.094 261.52,50.094 261.279,50.268 
					261.369,50.552 261.129,50.376 260.893,50.552 260.982,50.268 260.742,50.094 261.039,50.094 				"/>
				<polygon clip-path="url(#SVGID_6_)" fill="#FFFFFF" points="261.129,51.059 261.221,51.34 261.52,51.34 261.279,51.514 
					261.369,51.795 261.129,51.622 260.893,51.795 260.982,51.514 260.742,51.34 261.039,51.34 				"/>
				<polygon clip-path="url(#SVGID_6_)" fill="#FFFFFF" points="261.129,52.303 261.221,52.586 261.52,52.586 261.279,52.76 
					261.369,53.041 261.129,52.867 260.893,53.041 260.982,52.76 260.742,52.586 261.039,52.586 				"/>
				<polygon clip-path="url(#SVGID_6_)" fill="#FFFFFF" points="261.998,47.977 262.088,48.259 262.385,48.259 262.146,48.434 
					262.236,48.715 261.998,48.541 261.756,48.715 261.848,48.434 261.609,48.259 261.906,48.259 				"/>
				<polygon clip-path="url(#SVGID_6_)" fill="#FFFFFF" points="261.998,49.223 262.088,49.504 262.385,49.504 262.146,49.679 
					262.236,49.96 261.998,49.788 261.756,49.96 261.848,49.679 261.609,49.504 261.906,49.504 				"/>
				<polygon clip-path="url(#SVGID_6_)" fill="#FFFFFF" points="261.998,50.469 262.088,50.751 262.385,50.751 262.146,50.924 
					262.236,51.206 261.998,51.033 261.756,51.206 261.848,50.924 261.609,50.751 261.906,50.751 				"/>
				<polygon clip-path="url(#SVGID_6_)" fill="#FFFFFF" points="261.998,51.716 262.088,51.996 262.385,51.996 262.146,52.17 
					262.236,52.451 261.998,52.277 261.756,52.451 261.848,52.17 261.609,51.996 261.906,51.996 				"/>
				<polygon clip-path="url(#SVGID_6_)" fill="#FFFFFF" points="262.873,47.32 262.969,47.604 263.262,47.604 263.023,47.777 
					263.117,48.06 262.873,47.886 262.637,48.06 262.727,47.777 262.486,47.604 262.783,47.604 				"/>
				<polygon clip-path="url(#SVGID_6_)" fill="#FFFFFF" points="262.873,48.566 262.969,48.848 263.262,48.848 263.023,49.021 
					263.117,49.304 262.873,49.131 262.637,49.304 262.727,49.021 262.486,48.848 262.783,48.848 				"/>
				<polygon clip-path="url(#SVGID_6_)" fill="#FFFFFF" points="262.873,49.813 262.969,50.094 263.262,50.094 263.023,50.268 
					263.117,50.552 262.873,50.376 262.637,50.552 262.727,50.268 262.486,50.094 262.783,50.094 				"/>
				<polygon clip-path="url(#SVGID_6_)" fill="#FFFFFF" points="262.873,51.059 262.969,51.34 263.262,51.34 263.023,51.514 
					263.117,51.795 262.873,51.622 262.637,51.795 262.727,51.514 262.486,51.34 262.783,51.34 				"/>
				<polygon clip-path="url(#SVGID_6_)" fill="#FFFFFF" points="262.873,52.303 262.969,52.586 263.262,52.586 263.023,52.76 
					263.117,53.041 262.873,52.867 262.637,53.041 262.727,52.76 262.486,52.586 262.783,52.586 				"/>
			</g>
		</g>
	</g>
</g>
<g>
	<circle fill="#A6B0C3" cx="222.524" cy="53.428" r="7.051"/>
	<g>
		<path fill="#FFFFFF" d="M222.484,56.574c-0.068,0.256-0.102,0.424-0.102,0.507c0,0.042,0.018,0.083,0.055,0.125
			s0.076,0.063,0.117,0.063c0.072,0,0.143-0.031,0.209-0.094c0.182-0.146,0.391-0.401,0.629-0.765
			c0.018-0.025,0.07-0.075,0.104-0.047l0.127,0.072c0.031,0.027,0.012,0.066-0.002,0.09c-0.621,1.057-1.281,1.584-1.979,1.584
			c-0.271,0-0.486-0.076-0.646-0.229c-0.162-0.154-0.242-0.348-0.242-0.581c0-0.155,0.037-0.354,0.109-0.593l0.873-3
			c0.084-0.286,0.125-0.502,0.125-0.647c0-0.093-0.041-0.177-0.121-0.249c-0.082-0.072-0.189-0.109-0.324-0.109
			c-0.027,0-0.057,0.001-0.086,0.002c-0.045,0-0.125-0.034-0.111-0.078c0.012-0.037,0.023-0.076,0.029-0.098
			c0.023-0.099,0.246-0.104,0.246-0.104l1.738-0.28c0,0,0.137-0.025,0.236-0.025c0.076,0,0.146,0,0.195,0
			c0.133-0.002,0.063,0.152,0.063,0.152L222.484,56.574z"/>
		<path fill="#FFFFFF" d="M224.307,50.152c0,0.255-0.09,0.473-0.271,0.651s-0.4,0.269-0.654,0.269c-0.25,0-0.463-0.09-0.643-0.269
			s-0.27-0.396-0.27-0.651c0-0.254,0.088-0.473,0.266-0.654c0.176-0.182,0.393-0.273,0.646-0.273c0.26,0,0.479,0.092,0.658,0.273
			S224.307,49.898,224.307,50.152z"/>
	</g>
</g>
</svg>
