<?xml version="1.0" encoding="utf-8"?>
<!-- Generator: Adobe Illustrator 16.0.0, SVG Export Plug-In . SVG Version: 6.00 Build 0)  -->
<!DOCTYPE svg PUBLIC "-//W3C//DTD SVG 1.1//EN" "http://www.w3.org/Graphics/SVG/1.1/DTD/svg11.dtd">
<svg version="1.1" id="Layer_1" xmlns="http://www.w3.org/2000/svg" xmlns:xlink="http://www.w3.org/1999/xlink" x="0px" y="0px"
	 width="432px" height="768px" viewBox="0 0 432 768" enable-background="new 0 0 432 768" xml:space="preserve">
<text transform="matrix(1 0 0 1 30.4624 376.8984)" font-family="'Montserrat-Bold'" font-size="31.0262">Send Bitcoin via Email.</text>
<text transform="matrix(1 0 0 1 102.0093 411.5566)" fill="#5A728A" font-family="'Montserrat-Medium'" font-size="18.468">Simple, Fast and Private.</text>
<g>
	<path fill="#21CA8A" d="M325.775,486.708c0,12.623-10.238,22.861-22.862,22.861H129.061c-12.623,0-22.861-10.238-22.861-22.861
		c0-6.318,2.559-12.033,6.694-16.168c4.141-4.141,9.857-6.7,16.167-6.7h173.852C315.537,463.84,325.775,474.079,325.775,486.708z"/>
	<path fill="#21CA8A" d="M325.775,486.708c0,12.623-10.238,22.861-22.862,22.861H129.061c-12.623,0-22.861-10.238-22.861-22.861
		c0-6.318,2.559-12.033,6.694-16.168c4.141-4.141,9.857-6.7,16.167-6.7h173.852C315.537,463.84,325.775,474.079,325.775,486.708z"/>
	<g>
		<text transform="matrix(1 0 0 1 152.0815 491.75)" fill="#FFFFFF" font-family="'Montserrat-Bold'" font-size="15.552">Connect HandCash</text>
	</g>
	<path fill="#FFFFFF" d="M129.708,474.798l0.952,3.555c3.002,0.059,5.774,1.747,7.197,4.414l-4.265,1.143
		c-0.476-0.529-1.083-0.928-1.753-1.158c-0.759-0.259-1.599-0.304-2.43-0.082c-0.969,0.261-1.766,0.841-2.31,1.598
		c-0.703,0.982-0.98,2.259-0.642,3.517c0.337,1.258,1.213,2.228,2.314,2.726c0.848,0.384,1.829,0.486,2.799,0.227
		c0.831-0.223,1.538-0.681,2.063-1.285c0.4-0.458,0.697-1,0.867-1.586l4.343-1.163c0.001,2.919-1.538,5.642-4.03,7.148l0.951,3.555
		c5.009-2.463,7.75-8.195,6.25-13.79C140.516,478.021,135.277,474.425,129.708,474.798z M122.424,488.866
		c-0.954-3.562,0.544-7.204,3.461-9.131l-0.961-3.585c-4.822,2.538-7.426,8.156-5.956,13.644c1.47,5.486,6.535,9.05,11.98,8.836
		l-0.962-3.585C126.498,494.833,123.379,492.429,122.424,488.866z"/>
</g>
<g>
	<defs>
		<rect id="SVGID_1_" width="432" height="768"/>
	</defs>
	<clipPath id="SVGID_2_">
		<use xlink:href="#SVGID_1_"  overflow="visible"/>
	</clipPath>
	<g clip-path="url(#SVGID_2_)">
		<g>
			<path fill="#1345CE" d="M-670.11,280.693c40.058,22.872,90.153,21.207,134.371,8.073c44.218-13.133,84.498-36.624,126.17-56.4
				c41.674-19.776,86.656-36.223,132.711-33.652c36.282,2.023,70.779,15.705,106.324,23.256
				c35.55,7.547,75.574,8.039,104.925-13.389c31.794-23.218,45.729-68.294,82.225-83.062c39.671-16.052,87.19,11.905,126.712-4.515
				c33.684-13.993,47.771-58.15,35.797-92.604c-11.97-34.457-44.113-58.826-78.626-70.632C65.981-54.032,28.864-55.14-7.601-56.134
				c-130.856-3.563-261.713-7.126-392.569-10.689c-79.155-2.156-162.238-3.461-232.538,32.98
				c-53.593,27.783-99.045,86.798-98.313,149.184C-730.366,171.04-724.231,249.788-670.11,280.693z"/>
		</g>
		<path opacity="0.5" fill="#F1F1F2" d="M7.974,89.485c0,0,3.158-1.365,3.954-2.162c0.797-0.797,2.163-3.954,2.163-3.954
			s1.366,3.157,2.163,3.954s3.954,2.162,3.954,2.162s-3.157,1.367-3.954,2.164c-0.797,0.796-2.163,3.954-2.163,3.954
			s-1.366-3.158-2.163-3.954C11.132,90.852,7.974,89.485,7.974,89.485z"/>
		<circle opacity="0.5" fill="#F1F1F2" cx="104.178" cy="85.78" r="2.146"/>
	</g>
	<g clip-path="url(#SVGID_2_)">
		<path fill="#1345CE" d="M5.476,811.605c42.758-0.729,84.203,13.793,126.639,19.104c42.432,5.312,90.855-1.16,117.924-34.267
			c25.375-31.029,25.832-78.062,54.277-106.303c30.055-29.837,80.4-28.021,113.824-54.04c39.36-30.636,42.541-87.447,57.408-135.061
			c21.394-68.496,71.254-123.779,119.722-176.699c11.475-12.527,26.815-26.262,43.147-21.572
			c17.902,5.137,22.539,27.916,23.951,46.486c11.246,148.094,22.494,296.184,33.741,444.273
			c5.062,66.641,8.14,140.251-33.135,192.814c-48.116,61.271-136.229,69.435-214.07,72.607
			c-101.476,4.137-202.952,8.271-304.423,12.408c-55.893,2.277-112.51,4.498-167.174-7.383
			c-60.135-13.07-162.121-55.663-137.34-130.29C-137.401,865.527-66.101,812.826,5.476,811.605z"/>
		<g opacity="0.2">
			<circle fill="#231F20" cx="405.71" cy="756.004" r="41.25"/>
			<g>
				<path fill="#231F20" d="M405.71,710.629c25.06,0,45.375,20.315,45.375,45.375s-20.315,45.375-45.375,45.375
					c-25.061,0-45.375-20.315-45.375-45.375S380.649,710.629,405.71,710.629 M405.71,704.629c-28.328,0-51.375,23.047-51.375,51.375
					s23.047,51.375,51.375,51.375s51.375-23.047,51.375-51.375S434.038,704.629,405.71,704.629L405.71,704.629z"/>
			</g>
		</g>
	</g>
</g>
<g>
	<path fill="#FFFFFF" d="M58.054,56.82v-0.002l-0.927-1.82v-0.001l-1.016-2h-0.002l-0.93-1.831l-1.725-3.39l-1.192-2.346
		l-0.169-0.337l-1.166-2.29v-0.001h-0.001l-0.377-0.744l-0.449-0.883l0.002-0.001h-0.002l-0.905-1.778l-0.019-0.04l-3.143,2.37
		h-0.002l-0.501,0.377l-1.589,1.199H43.94l-1.929,1.456h-0.001l-1.931-1.456l-1.589-1.199h-0.002l-0.499-0.377h-0.002l-3.143-2.372
		l-0.001-0.001l-0.002,0.001l0.002,0.001l-0.025,0.047l-0.9,1.771l-0.454,0.893l-0.374,0.736l-1.164,2.29h-0.002l-0.169,0.335v0.002
		l-1.193,2.345v0.001l-1.724,3.39l-0.929,1.831h-0.001l-1.016,2l-0.926,1.821l-0.012,0.024l0.062,0.013l5.149,3.882l9.099,6.858
		l1.747,1.316l1.739-1.31l1.875-1.415l7.232-5.45l5.149-3.882l0.059-0.013L58.054,56.82z M51.071,47.776v0.001l1.192,2.345v0.002
		l0.77,1.514l0.93,1.831l0.248,0.485l-2.816-2.12l-1.725-1.3v-0.001l-1.147-0.865l0.182-0.686l1.024-3.843L51.071,47.776z
		 M46.526,43.871v-0.001l1.851-1.393l-0.702,2.631l-0.87,3.266l-3.125-2.358L46.526,43.871z M37.494,43.869l2.846,2.146
		l-3.132,2.362l-0.872-3.271l-0.698-2.623l0.005-0.01l1.849,1.395H37.494z M30.055,53.469l0.929-1.831l0.771-1.516l1.193-2.346
		l1.336-2.629l1.021,3.834l0.185,0.69l-1.143,0.86v0.001l-1.725,1.3l-2.816,2.12L30.055,53.469z M32.834,59.479h-0.001l-1.668-1.259
		l-1.837-1.383l4.22-3.183h0.002l1.724-1.3v-0.001l0.774-0.584l3.376,12.679L32.834,59.479z M42.005,66.393l-4.24-15.92l0.738-0.556
		l1.67-1.257l0.628-0.475l0.031-0.024l0.054-0.04L41.18,47.9l0.829-0.627h0.001l1.123,0.849l0.054,0.04l0.032,0.024l0.627,0.475
		l0.241,0.18l0.104,0.079l0.077,0.057l0.201,0.151l0.067,0.052l0.224,0.17l0.756,0.568l0.731,0.551l-4.242,15.926L42.005,66.393z
		 M52.854,58.22l-1.67,1.259l-6.116,4.611l-0.483,0.363l3.379-12.689l0.781,0.589l1.726,1.301l4.22,3.182L52.854,58.22z"/>
	
		<text transform="matrix(1 0 0 1 68.1147 62.3848)" fill="#FFFFFF" font-family="'MontserratAlternates-Medium'" font-size="27.4069">mitto</text>
</g>
<g>
	<defs>
		<rect id="SVGID_3_" y="775.2" width="432" height="768"/>
	</defs>
	<clipPath id="SVGID_4_">
		<use xlink:href="#SVGID_3_"  overflow="visible"/>
	</clipPath>
	<g clip-path="url(#SVGID_4_)">
		<g>
			<path fill="#1345CE" d="M-670.11,1055.894c40.058,22.872,90.153,21.207,134.371,8.073c44.218-13.133,84.498-36.624,126.17-56.4
				c41.674-19.776,86.656-36.223,132.711-33.652c36.282,2.023,70.779,15.705,106.324,23.256
				c35.55,7.547,75.574,8.039,104.925-13.389c31.794-23.218,45.729-68.294,82.225-83.062c39.671-16.052,87.19,11.905,126.712-4.515
				c33.684-13.993,47.771-58.15,35.797-92.604c-11.97-34.457-44.113-58.826-78.626-70.632
				c-34.517-11.802-71.634-12.909-108.099-13.903c-130.856-3.563-261.713-7.126-392.569-10.689
				c-79.155-2.156-162.238-3.461-232.538,32.98c-53.593,27.783-99.045,86.798-98.313,149.184
				C-730.366,946.24-724.231,1024.988-670.11,1055.894z"/>
		</g>
	</g>
</g>
</svg>
