<?xml version="1.0" encoding="utf-8"?>
<!-- Generator: Adobe Illustrator 16.0.0, SVG Export Plug-In . SVG Version: 6.00 Build 0)  -->
<!DOCTYPE svg PUBLIC "-//W3C//DTD SVG 1.1//EN" "http://www.w3.org/Graphics/SVG/1.1/DTD/svg11.dtd">
<svg version="1.1" id="Layer_1" xmlns="http://www.w3.org/2000/svg" xmlns:xlink="http://www.w3.org/1999/xlink" x="0px" y="0px"
	 width="432px" height="768px" viewBox="0 0 432 768" enable-background="new 0 0 432 768" xml:space="preserve">
<g>
	<defs>
		<rect id="SVGID_1_" y="-775.2" width="432" height="768"/>
	</defs>
	<clipPath id="SVGID_2_">
		<use xlink:href="#SVGID_1_"  overflow="visible"/>
	</clipPath>
	<g clip-path="url(#SVGID_2_)">
		<path fill="#1345CE" d="M5.476,36.405c42.758-0.729,84.203,13.793,126.639,19.104c42.432,5.312,90.855-1.16,117.924-34.267
			c25.375-31.029,25.832-78.062,54.277-106.303c30.055-29.837,80.4-28.021,113.824-54.04c39.36-30.636,42.541-87.447,57.408-135.061
			c21.394-68.496,71.254-123.779,119.722-176.699c11.475-12.527,26.815-26.262,43.147-21.572
			c17.902,5.137,22.539,27.916,23.951,46.486c11.246,148.094,22.494,296.184,33.741,444.273
			c5.062,66.641,8.14,140.251-33.135,192.814c-48.116,61.271-136.229,69.435-214.07,72.607
			c-101.476,4.137-202.952,8.271-304.423,12.408c-55.893,2.277-112.51,4.498-167.174-7.383
			c-60.135-13.07-162.121-55.663-137.34-130.29C-137.401,90.327-66.101,37.626,5.476,36.405z"/>
		<g opacity="0.2">
			<circle fill="#231F20" cx="405.71" cy="-19.196" r="41.25"/>
			<g>
				<path fill="#231F20" d="M405.71-64.571c25.06,0,45.375,20.315,45.375,45.375S430.77,26.179,405.71,26.179
					c-25.061,0-45.375-20.315-45.375-45.375S380.649-64.571,405.71-64.571 M405.71-70.571c-28.328,0-51.375,23.047-51.375,51.375
					s23.047,51.375,51.375,51.375s51.375-23.047,51.375-51.375S434.038-70.571,405.71-70.571L405.71-70.571z"/>
			</g>
		</g>
	</g>
</g>
<g>
	<defs>
		<rect id="SVGID_3_" width="432" height="768"/>
	</defs>
	<clipPath id="SVGID_4_">
		<use xlink:href="#SVGID_3_"  overflow="visible"/>
	</clipPath>
	<g clip-path="url(#SVGID_4_)">
		<g>
			<path fill="#1345CE" d="M-670.11,280.693c40.058,22.872,90.153,21.207,134.371,8.073c44.218-13.133,84.498-36.624,126.17-56.4
				c41.674-19.776,86.656-36.223,132.711-33.652c36.282,2.023,70.779,15.705,106.324,23.256
				c35.55,7.547,75.574,8.039,104.925-13.389c31.794-23.218,45.729-68.294,82.225-83.062c39.671-16.052,87.19,11.905,126.712-4.515
				c33.684-13.993,47.771-58.15,35.797-92.604c-11.97-34.457-44.113-58.826-78.626-70.632C65.981-54.032,28.864-55.14-7.601-56.134
				c-130.856-3.563-261.713-7.126-392.569-10.689c-79.155-2.156-162.238-3.461-232.538,32.98
				c-53.593,27.783-99.045,86.798-98.313,149.184C-730.366,171.04-724.231,249.788-670.11,280.693z"/>
		</g>
		<path opacity="0.5" fill="#F1F1F2" d="M7.974,89.485c0,0,3.158-1.365,3.954-2.162c0.797-0.797,2.163-3.954,2.163-3.954
			s1.366,3.157,2.163,3.954s3.954,2.162,3.954,2.162s-3.157,1.367-3.954,2.164c-0.797,0.796-2.163,3.954-2.163,3.954
			s-1.366-3.158-2.163-3.954C11.132,90.852,7.974,89.485,7.974,89.485z"/>
		<circle opacity="0.5" fill="#F1F1F2" cx="104.178" cy="85.78" r="2.146"/>
	</g>
	<g clip-path="url(#SVGID_4_)">
		<path fill="#1345CE" d="M5.476,811.605c42.758-0.729,84.203,13.793,126.639,19.104c42.432,5.312,90.855-1.16,117.924-34.267
			c25.375-31.029,25.832-78.062,54.277-106.303c30.055-29.837,80.4-28.021,113.824-54.04c39.36-30.636,42.541-87.447,57.408-135.061
			c21.394-68.496,71.254-123.779,119.722-176.699c11.475-12.527,26.815-26.262,43.147-21.572
			c17.902,5.137,22.539,27.916,23.951,46.486c11.246,148.094,22.494,296.184,33.741,444.273
			c5.062,66.641,8.14,140.251-33.135,192.814c-48.116,61.271-136.229,69.435-214.07,72.607
			c-101.476,4.137-202.952,8.271-304.423,12.408c-55.893,2.277-112.51,4.498-167.174-7.383
			c-60.135-13.07-162.121-55.663-137.34-130.29C-137.401,865.527-66.101,812.826,5.476,811.605z"/>
		<g opacity="0.2">
			<circle fill="#231F20" cx="405.71" cy="756.004" r="41.25"/>
			<g>
				<path fill="#231F20" d="M405.71,710.629c25.06,0,45.375,20.315,45.375,45.375s-20.315,45.375-45.375,45.375
					c-25.061,0-45.375-20.315-45.375-45.375S380.649,710.629,405.71,710.629 M405.71,704.629c-28.328,0-51.375,23.047-51.375,51.375
					s23.047,51.375,51.375,51.375s51.375-23.047,51.375-51.375S434.038,704.629,405.71,704.629L405.71,704.629z"/>
			</g>
		</g>
	</g>
</g>
<g>
	<path fill="#FFFFFF" d="M58.054,56.82v-0.002l-0.927-1.82v-0.001l-1.016-2h-0.002l-0.93-1.831l-1.725-3.39l-1.192-2.346
		l-0.169-0.337l-1.166-2.29v-0.001h-0.001l-0.377-0.744l-0.449-0.883l0.002-0.001h-0.002l-0.905-1.778l-0.019-0.04l-3.143,2.37
		h-0.002l-0.501,0.377l-1.589,1.199H43.94l-1.929,1.456h-0.001l-1.931-1.456l-1.589-1.199h-0.002l-0.499-0.377h-0.002l-3.143-2.372
		l-0.001-0.001l-0.002,0.001l0.002,0.001l-0.025,0.047l-0.9,1.771l-0.454,0.893l-0.374,0.736l-1.164,2.29h-0.002l-0.169,0.335v0.002
		l-1.193,2.345v0.001l-1.724,3.39l-0.929,1.831h-0.001l-1.016,2l-0.926,1.821l-0.012,0.024l0.062,0.013l5.149,3.882l9.099,6.858
		l1.747,1.316l1.739-1.31l1.875-1.415l7.232-5.45l5.149-3.882l0.059-0.013L58.054,56.82z M51.071,47.776v0.001l1.192,2.345v0.002
		l0.77,1.514l0.93,1.831l0.248,0.485l-2.816-2.12l-1.725-1.3v-0.001l-1.147-0.865l0.182-0.686l1.024-3.843L51.071,47.776z
		 M46.526,43.871v-0.001l1.851-1.393l-0.702,2.631l-0.87,3.266l-3.125-2.358L46.526,43.871z M37.494,43.869l2.846,2.146
		l-3.132,2.362l-0.872-3.271l-0.698-2.623l0.005-0.01l1.849,1.395H37.494z M30.055,53.469l0.929-1.831l0.771-1.516l1.193-2.346
		l1.336-2.629l1.021,3.834l0.185,0.69l-1.143,0.86v0.001l-1.725,1.3l-2.816,2.12L30.055,53.469z M32.834,59.479h-0.001l-1.668-1.259
		l-1.837-1.383l4.22-3.183h0.002l1.724-1.3v-0.001l0.774-0.584l3.376,12.679L32.834,59.479z M42.005,66.393l-4.24-15.92l0.738-0.556
		l1.67-1.257l0.628-0.475l0.031-0.024l0.054-0.04L41.18,47.9l0.829-0.627h0.001l1.123,0.849l0.054,0.04l0.032,0.024l0.627,0.475
		l0.241,0.18l0.104,0.079l0.077,0.057l0.201,0.151l0.067,0.052l0.224,0.17l0.756,0.568l0.731,0.551l-4.242,15.926L42.005,66.393z
		 M52.854,58.22l-1.67,1.259l-6.116,4.611l-0.483,0.363l3.379-12.689l0.781,0.589l1.726,1.301l4.22,3.182L52.854,58.22z"/>
	
		<text transform="matrix(1 0 0 1 68.1147 62.3848)" fill="#FFFFFF" font-family="'MontserratAlternates-Medium'" font-size="27.4069">mitto</text>
</g>
<circle fill="#FAAF40" cx="216.076" cy="275.416" r="37.463"/>
<text transform="matrix(1 0 0 1 159.4829 350.4053)" font-family="'Montserrat-Bold'" font-size="29.16">$krupp</text>
<g>
	<path fill="#FFFFFF" stroke="#E6E7E8" stroke-width="0.75" stroke-miterlimit="10" d="M371.064,416.214
		c0,4.977-4.035,9.011-9.012,9.011H109.737c-4.976,0-9.011-4.035-9.011-9.011v-18.022c0-4.976,4.035-9.011,9.011-9.011h252.316
		c4.977,0,9.012,4.035,9.012,9.011V416.214z"/>
	<path fill="#FFFFFF" stroke="#E6E7E8" stroke-width="0.75" stroke-miterlimit="10" d="M371.064,462.43
		c0,4.976-4.035,9.011-9.012,9.011H109.737c-4.976,0-9.011-4.035-9.011-9.011v-18.022c0-4.977,4.035-9.012,9.011-9.012h252.316
		c4.977,0,9.012,4.035,9.012,9.012V462.43z"/>
	<g>
		<text transform="matrix(1 0 0 1 112.0513 411.2607)" fill="#A6B0C3" font-family="'Montserrat-Medium'" font-size="11.34">Enter recepient’s email address</text>
	</g>
	<g>
		<text transform="matrix(1 0 0 1 112.9966 457.4673)" fill="#A6B0C3" font-family="'Montserrat-Medium'" font-size="11.34">Enter amount</text>
	</g>
	<path fill="#FFFFFF" stroke="#E6E7E8" stroke-width="0.75" stroke-miterlimit="10" d="M371.064,508.645
		c0,4.977-4.035,9.011-9.012,9.011H109.737c-4.976,0-9.011-4.035-9.011-9.011v-18.022c0-4.976,4.035-9.011,9.011-9.011h252.316
		c4.977,0,9.012,4.035,9.012,9.011V508.645z"/>
	<g>
		<text transform="matrix(1 0 0 1 114.2422 503.6743)" fill="#A6B0C3" font-family="'Montserrat-Medium'" font-size="11.34">Add a description</text>
	</g>
	<path fill="#5A728A" d="M79.146,400.565H62.192c-1.426,0-2.584,1.167-2.584,2.584v10.886c0,1.426,1.158,2.584,2.584,2.584h16.954
		c1.425,0,2.584-1.158,2.584-2.584v-10.886C81.73,401.732,80.571,400.565,79.146,400.565z M79.526,401.854l-8.861,6.844
		l-8.861-6.844H79.526z M80.441,414.035c0,0.721-0.583,1.304-1.295,1.304H62.192c-0.721,0-1.304-0.583-1.304-1.304V402.76
		l9.388,7.25c0.218,0.178,0.558,0.178,0.786,0l9.379-7.25V414.035z"/>
	<path fill="#5A728A" d="M80.914,491.604c-0.927-1.373-2.793-1.734-4.167-0.807l-13.943,9.418c-0.096,0.064-0.173,0.152-0.224,0.255
		l-2.61,5.249c-0.107,0.215-0.091,0.472,0.044,0.669c0.135,0.2,0.365,0.312,0.605,0.292l5.843-0.463
		c0.116-0.008,0.226-0.047,0.321-0.111l13.943-9.417c1.372-0.93,1.733-2.793,0.807-4.167L80.914,491.604z M64.148,500.917
		l11.412-7.708l2.485,3.68l-11.412,7.707L64.148,500.917z M63.293,502.032l1.985,2.941l-3.59,0.284L63.293,502.032z M79.979,495.582
		l-0.828,0.561l-2.485-3.681l0.828-0.559c0.764-0.515,1.799-0.315,2.314,0.448l0.62,0.918
		C80.942,494.032,80.742,495.068,79.979,495.582z"/>
	<g>
		<path fill="#5A728A" d="M80.919,448.576c-0.051-1.215-0.89-2.23-2.018-2.547c0-0.003-0.001-0.005-0.001-0.008
			c-0.238-0.067-0.488-0.103-0.747-0.103h-0.573c0,0.002,0.001,0.005,0.001,0.006H63.186c-0.541,0-1.047,0.157-1.475,0.427v-0.006
			c-0.777,0.49-1.294,1.357-1.294,2.341v10.369c0,0.986,0.517,1.851,1.294,2.343c0.427,0.27,0.934,0.427,1.475,0.427h14.968
			c0.259,0,0.509-0.036,0.747-0.103c1.13-0.317,1.971-1.336,2.019-2.555c0.001-0.038,0.002-0.074,0.002-0.112v-10.369
			C80.922,448.651,80.921,448.613,80.919,448.576z M78.153,460.532H63.186c-0.802,0-1.459-0.646-1.475-1.444
			c0-0.013,0-0.025,0-0.038v-10.362c0-0.009,0-0.021,0-0.031c0.021-0.796,0.674-1.437,1.475-1.437h14.968
			c0.8,0,1.454,0.641,1.474,1.437c0.001,0.01,0.001,0.021,0.001,0.031v2.264h-4.125c-1.62,0-2.94,1.307-2.964,2.92
			c0,0.014,0,0.03,0,0.044c0,1.634,1.33,2.964,2.964,2.964h4.125v2.17c0,0.013,0,0.025-0.001,0.038
			C79.612,459.886,78.956,460.532,78.153,460.532z M73.834,453.873v-0.001c0.024-0.902,0.764-1.626,1.67-1.626h4.125v3.341h-4.125
			c-0.921,0-1.67-0.75-1.67-1.671C73.834,453.901,73.834,453.887,73.834,453.873z"/>
		<circle fill="#5A728A" cx="75.744" cy="453.964" r="0.674"/>
	</g>
</g>
<g>
	<path fill="#21CA8A" d="M260.222,572.701c0,9.785-7.938,17.723-17.724,17.723h-53.719c-9.793,0-17.73-7.938-17.73-17.723
		c0-4.9,1.984-9.332,5.191-12.54c3.208-3.208,7.639-5.192,12.539-5.192h53.719C252.283,554.97,260.222,562.908,260.222,572.701z"/>
	<g>
		<text transform="matrix(1 0 0 1 209.5264 576.4561)" fill="#FFFFFF" font-family="'Montserrat-SemiBold'" font-size="11.383">Send</text>
	</g>
	<path fill="#FFFFFF" d="M203.029,566.553l-1.686,11.347c-0.022,0.134-0.1,0.255-0.217,0.326c-0.072,0.044-0.155,0.067-0.24,0.067
		c-0.049,0-0.099-0.01-0.148-0.025l-3.936-1.346l-1.662,2.264c-0.088,0.12-0.226,0.187-0.371,0.187
		c-0.047,0-0.096-0.007-0.143-0.022c-0.189-0.063-0.316-0.238-0.316-0.437v-2.843h-0.002l0.002-0.003l6.322-7.616l-8.172,6.988
		l-3.838-1.313c-0.172-0.058-0.295-0.215-0.309-0.399c-0.014-0.184,0.082-0.358,0.246-0.444l13.801-7.208
		c0.154-0.081,0.34-0.066,0.479,0.033C202.982,566.21,203.055,566.382,203.029,566.553z"/>
</g>
<g>
	<path fill="#21CA8A" d="M406.705,53.266c0,8.697-7.057,15.753-15.754,15.753h-47.75c-8.705,0-15.761-7.056-15.761-15.753
		c0-4.356,1.763-8.295,4.614-11.146s6.791-4.616,11.146-4.616h47.75C399.648,37.504,406.705,44.561,406.705,53.266z"/>
	<g>
		<text transform="matrix(1 0 0 1 345.6992 56.6055)" fill="#FFFFFF" font-family="'Montserrat-SemiBold'" font-size="10.1183">$ 200.07</text>
	</g>
</g>
<g>
	<path fill="#FFFFFF" stroke="#E6E7E8" stroke-width="0.75" stroke-miterlimit="10" d="M318.059,53.266
		c0,8.697-7.057,15.753-15.754,15.753h-47.75c-8.705,0-15.761-7.056-15.761-15.753c0-4.356,1.763-8.295,4.614-11.146
		s6.791-4.616,11.146-4.616h47.75C311.002,37.504,318.059,44.561,318.059,53.266z"/>
	<text transform="matrix(1 0 0 1 283.6172 56.6055)" fill="#5A728A" font-family="'Montserrat-SemiBold'" font-size="10.1183">USD</text>
	<g id="USA_1_">
		<g>
			<g>
				<defs>
					<rect id="SVGID_5_" x="253.152" y="46.498" width="23.762" height="13.86"/>
				</defs>
				<clipPath id="SVGID_6_">
					<use xlink:href="#SVGID_5_"  overflow="visible"/>
				</clipPath>
				<rect x="253.152" y="59.292" clip-path="url(#SVGID_6_)" fill="#CB001C" width="23.762" height="1.066"/>
				<rect x="253.152" y="58.225" clip-path="url(#SVGID_6_)" fill="#FFFFFF" width="23.762" height="1.066"/>
				<rect x="253.152" y="57.161" clip-path="url(#SVGID_6_)" fill="#CB001C" width="23.762" height="1.064"/>
				<rect x="253.152" y="56.094" clip-path="url(#SVGID_6_)" fill="#FFFFFF" width="23.762" height="1.067"/>
				<rect x="253.152" y="55.026" clip-path="url(#SVGID_6_)" fill="#CB001C" width="23.762" height="1.067"/>
				<rect x="253.152" y="53.961" clip-path="url(#SVGID_6_)" fill="#FFFFFF" width="23.762" height="1.065"/>
				<rect x="253.152" y="52.894" clip-path="url(#SVGID_6_)" fill="#CB001C" width="23.762" height="1.067"/>
				<rect x="253.152" y="51.829" clip-path="url(#SVGID_6_)" fill="#FFFFFF" width="23.762" height="1.065"/>
				<rect x="253.152" y="50.763" clip-path="url(#SVGID_6_)" fill="#CB001C" width="23.762" height="1.065"/>
				<rect x="253.152" y="49.697" clip-path="url(#SVGID_6_)" fill="#FFFFFF" width="23.762" height="1.066"/>
				<rect x="253.152" y="48.629" clip-path="url(#SVGID_6_)" fill="#CB001C" width="23.762" height="1.067"/>
				<rect x="253.152" y="47.565" clip-path="url(#SVGID_6_)" fill="#FFFFFF" width="23.762" height="1.064"/>
				<rect x="253.152" y="46.498" clip-path="url(#SVGID_6_)" fill="#CB001C" width="23.762" height="1.067"/>
				<rect x="253.152" y="46.498" clip-path="url(#SVGID_6_)" fill="#2A3560" width="10.851" height="7.463"/>
				<polygon clip-path="url(#SVGID_6_)" fill="#FFFFFF" points="254.133,47.32 254.227,47.604 254.523,47.604 254.282,47.778 
					254.371,48.06 254.133,47.886 253.893,48.06 253.986,47.778 253.746,47.604 254.039,47.604 				"/>
				<polygon clip-path="url(#SVGID_6_)" fill="#FFFFFF" points="254.133,48.566 254.227,48.848 254.523,48.848 254.282,49.021 
					254.371,49.304 254.133,49.13 253.893,49.304 253.986,49.021 253.746,48.848 254.039,48.848 				"/>
				<polygon clip-path="url(#SVGID_6_)" fill="#FFFFFF" points="254.133,49.813 254.227,50.094 254.523,50.094 254.282,50.268 
					254.371,50.552 254.133,50.376 253.893,50.552 253.986,50.268 253.746,50.094 254.039,50.094 				"/>
				<polygon clip-path="url(#SVGID_6_)" fill="#FFFFFF" points="254.133,51.058 254.227,51.34 254.523,51.34 254.282,51.514 
					254.371,51.795 254.133,51.622 253.893,51.795 253.986,51.514 253.746,51.34 254.039,51.34 				"/>
				<polygon clip-path="url(#SVGID_6_)" fill="#FFFFFF" points="254.133,52.303 254.227,52.586 254.523,52.586 254.282,52.76 
					254.371,53.042 254.133,52.867 253.893,53.042 253.986,52.76 253.746,52.586 254.039,52.586 				"/>
				<polygon clip-path="url(#SVGID_6_)" fill="#FFFFFF" points="255.001,47.977 255.089,48.259 255.388,48.259 255.148,48.433 
					255.238,48.715 255.001,48.541 254.762,48.715 254.852,48.433 254.611,48.259 254.91,48.259 				"/>
				<polygon clip-path="url(#SVGID_6_)" fill="#FFFFFF" points="255.001,49.222 255.089,49.503 255.388,49.503 255.148,49.679 
					255.238,49.96 255.001,49.788 254.762,49.96 254.852,49.679 254.611,49.503 254.91,49.503 				"/>
				<polygon clip-path="url(#SVGID_6_)" fill="#FFFFFF" points="255.001,50.469 255.089,50.751 255.388,50.751 255.148,50.924 
					255.238,51.206 255.001,51.033 254.762,51.206 254.852,50.924 254.611,50.751 254.91,50.751 				"/>
				<polygon clip-path="url(#SVGID_6_)" fill="#FFFFFF" points="255.001,51.716 255.089,51.997 255.388,51.997 255.148,52.17 
					255.238,52.451 255.001,52.277 254.762,52.451 254.852,52.17 254.611,51.997 254.91,51.997 				"/>
				<polygon clip-path="url(#SVGID_6_)" fill="#FFFFFF" points="255.877,47.32 255.97,47.604 256.267,47.604 256.025,47.778 
					256.119,48.06 255.877,47.886 255.639,48.06 255.73,47.778 255.49,47.604 255.786,47.604 				"/>
				<polygon clip-path="url(#SVGID_6_)" fill="#FFFFFF" points="255.877,48.566 255.97,48.848 256.267,48.848 256.025,49.021 
					256.119,49.304 255.877,49.13 255.639,49.304 255.73,49.021 255.49,48.848 255.786,48.848 				"/>
				<polygon clip-path="url(#SVGID_6_)" fill="#FFFFFF" points="255.877,49.813 255.97,50.094 256.267,50.094 256.025,50.268 
					256.119,50.552 255.877,50.376 255.639,50.552 255.73,50.268 255.49,50.094 255.786,50.094 				"/>
				<polygon clip-path="url(#SVGID_6_)" fill="#FFFFFF" points="255.877,51.058 255.97,51.34 256.267,51.34 256.025,51.514 
					256.119,51.795 255.877,51.622 255.639,51.795 255.73,51.514 255.49,51.34 255.786,51.34 				"/>
				<polygon clip-path="url(#SVGID_6_)" fill="#FFFFFF" points="255.877,52.303 255.97,52.586 256.267,52.586 256.025,52.76 
					256.119,53.042 255.877,52.867 255.639,53.042 255.73,52.76 255.49,52.586 255.786,52.586 				"/>
				<polygon clip-path="url(#SVGID_6_)" fill="#FFFFFF" points="256.746,47.977 256.836,48.259 257.135,48.259 256.894,48.433 
					256.986,48.715 256.746,48.541 256.507,48.715 256.6,48.433 256.356,48.259 256.654,48.259 				"/>
				<polygon clip-path="url(#SVGID_6_)" fill="#FFFFFF" points="256.746,49.222 256.836,49.503 257.135,49.503 256.894,49.679 
					256.986,49.96 256.746,49.788 256.507,49.96 256.6,49.679 256.356,49.503 256.654,49.503 				"/>
				<polygon clip-path="url(#SVGID_6_)" fill="#FFFFFF" points="256.746,50.469 256.836,50.751 257.135,50.751 256.894,50.924 
					256.986,51.206 256.746,51.033 256.507,51.206 256.6,50.924 256.356,50.751 256.654,50.751 				"/>
				<polygon clip-path="url(#SVGID_6_)" fill="#FFFFFF" points="256.746,51.716 256.836,51.997 257.135,51.997 256.894,52.17 
					256.986,52.451 256.746,52.277 256.507,52.451 256.6,52.17 256.356,51.997 256.654,51.997 				"/>
				<polygon clip-path="url(#SVGID_6_)" fill="#FFFFFF" points="257.625,47.32 257.717,47.604 258.012,47.604 257.771,47.778 
					257.867,48.06 257.625,47.886 257.385,48.06 257.477,47.778 257.238,47.604 257.534,47.604 				"/>
				<polygon clip-path="url(#SVGID_6_)" fill="#FFFFFF" points="257.625,48.566 257.717,48.848 258.012,48.848 257.771,49.021 
					257.867,49.304 257.625,49.13 257.385,49.304 257.477,49.021 257.238,48.848 257.534,48.848 				"/>
				<polygon clip-path="url(#SVGID_6_)" fill="#FFFFFF" points="257.625,49.813 257.717,50.094 258.012,50.094 257.771,50.268 
					257.867,50.552 257.625,50.376 257.385,50.552 257.477,50.268 257.238,50.094 257.534,50.094 				"/>
				<polygon clip-path="url(#SVGID_6_)" fill="#FFFFFF" points="257.625,51.058 257.717,51.34 258.012,51.34 257.771,51.514 
					257.867,51.795 257.625,51.622 257.385,51.795 257.477,51.514 257.238,51.34 257.534,51.34 				"/>
				<polygon clip-path="url(#SVGID_6_)" fill="#FFFFFF" points="257.625,52.303 257.717,52.586 258.012,52.586 257.771,52.76 
					257.867,53.042 257.625,52.867 257.385,53.042 257.477,52.76 257.238,52.586 257.534,52.586 				"/>
				<polygon clip-path="url(#SVGID_6_)" fill="#FFFFFF" points="258.493,47.977 258.584,48.259 258.881,48.259 258.642,48.433 
					258.73,48.715 258.493,48.541 258.254,48.715 258.343,48.433 258.104,48.259 258.4,48.259 				"/>
				<polygon clip-path="url(#SVGID_6_)" fill="#FFFFFF" points="258.493,49.222 258.584,49.503 258.881,49.503 258.642,49.679 
					258.73,49.96 258.493,49.788 258.254,49.96 258.343,49.679 258.104,49.503 258.4,49.503 				"/>
				<polygon clip-path="url(#SVGID_6_)" fill="#FFFFFF" points="258.493,50.469 258.584,50.751 258.881,50.751 258.642,50.924 
					258.73,51.206 258.493,51.033 258.254,51.206 258.343,50.924 258.104,50.751 258.4,50.751 				"/>
				<polygon clip-path="url(#SVGID_6_)" fill="#FFFFFF" points="258.493,51.716 258.584,51.997 258.881,51.997 258.642,52.17 
					258.73,52.451 258.493,52.277 258.254,52.451 258.343,52.17 258.104,51.997 258.4,51.997 				"/>
				<polygon clip-path="url(#SVGID_6_)" fill="#FFFFFF" points="259.369,47.32 259.463,47.604 259.759,47.604 259.519,47.778 
					259.611,48.06 259.369,47.886 259.132,48.06 259.222,47.778 258.982,47.604 259.279,47.604 				"/>
				<polygon clip-path="url(#SVGID_6_)" fill="#FFFFFF" points="259.369,48.566 259.463,48.848 259.759,48.848 259.519,49.021 
					259.611,49.304 259.369,49.13 259.132,49.304 259.222,49.021 258.982,48.848 259.279,48.848 				"/>
				<polygon clip-path="url(#SVGID_6_)" fill="#FFFFFF" points="259.369,49.813 259.463,50.094 259.759,50.094 259.519,50.268 
					259.611,50.552 259.369,50.376 259.132,50.552 259.222,50.268 258.982,50.094 259.279,50.094 				"/>
				<polygon clip-path="url(#SVGID_6_)" fill="#FFFFFF" points="259.369,51.058 259.463,51.34 259.759,51.34 259.519,51.514 
					259.611,51.795 259.369,51.622 259.132,51.795 259.222,51.514 258.982,51.34 259.279,51.34 				"/>
				<polygon clip-path="url(#SVGID_6_)" fill="#FFFFFF" points="259.369,52.303 259.463,52.586 259.759,52.586 259.519,52.76 
					259.611,53.042 259.369,52.867 259.132,53.042 259.222,52.76 258.982,52.586 259.279,52.586 				"/>
				<polygon clip-path="url(#SVGID_6_)" fill="#FFFFFF" points="260.238,47.977 260.329,48.259 260.628,48.259 260.387,48.433 
					260.479,48.715 260.238,48.541 259.998,48.715 260.092,48.433 259.852,48.259 260.148,48.259 				"/>
				<polygon clip-path="url(#SVGID_6_)" fill="#FFFFFF" points="260.238,49.222 260.329,49.503 260.628,49.503 260.387,49.679 
					260.479,49.96 260.238,49.788 259.998,49.96 260.092,49.679 259.852,49.503 260.148,49.503 				"/>
				<polygon clip-path="url(#SVGID_6_)" fill="#FFFFFF" points="260.238,50.469 260.329,50.751 260.628,50.751 260.387,50.924 
					260.479,51.206 260.238,51.033 259.998,51.206 260.092,50.924 259.852,50.751 260.148,50.751 				"/>
				<polygon clip-path="url(#SVGID_6_)" fill="#FFFFFF" points="260.238,51.716 260.329,51.997 260.628,51.997 260.387,52.17 
					260.479,52.451 260.238,52.277 259.998,52.451 260.092,52.17 259.852,51.997 260.148,51.997 				"/>
				<polygon clip-path="url(#SVGID_6_)" fill="#FFFFFF" points="261.117,47.32 261.209,47.604 261.507,47.604 261.267,47.778 
					261.357,48.06 261.117,47.886 260.88,48.06 260.971,47.778 260.73,47.604 261.027,47.604 				"/>
				<polygon clip-path="url(#SVGID_6_)" fill="#FFFFFF" points="261.117,48.566 261.209,48.848 261.507,48.848 261.267,49.021 
					261.357,49.304 261.117,49.13 260.88,49.304 260.971,49.021 260.73,48.848 261.027,48.848 				"/>
				<polygon clip-path="url(#SVGID_6_)" fill="#FFFFFF" points="261.117,49.813 261.209,50.094 261.507,50.094 261.267,50.268 
					261.357,50.552 261.117,50.376 260.88,50.552 260.971,50.268 260.73,50.094 261.027,50.094 				"/>
				<polygon clip-path="url(#SVGID_6_)" fill="#FFFFFF" points="261.117,51.058 261.209,51.34 261.507,51.34 261.267,51.514 
					261.357,51.795 261.117,51.622 260.88,51.795 260.971,51.514 260.73,51.34 261.027,51.34 				"/>
				<polygon clip-path="url(#SVGID_6_)" fill="#FFFFFF" points="261.117,52.303 261.209,52.586 261.507,52.586 261.267,52.76 
					261.357,53.042 261.117,52.867 260.88,53.042 260.971,52.76 260.73,52.586 261.027,52.586 				"/>
				<polygon clip-path="url(#SVGID_6_)" fill="#FFFFFF" points="261.986,47.977 262.075,48.259 262.373,48.259 262.135,48.433 
					262.225,48.715 261.986,48.541 261.744,48.715 261.836,48.433 261.598,48.259 261.894,48.259 				"/>
				<polygon clip-path="url(#SVGID_6_)" fill="#FFFFFF" points="261.986,49.222 262.075,49.503 262.373,49.503 262.135,49.679 
					262.225,49.96 261.986,49.788 261.744,49.96 261.836,49.679 261.598,49.503 261.894,49.503 				"/>
				<polygon clip-path="url(#SVGID_6_)" fill="#FFFFFF" points="261.986,50.469 262.075,50.751 262.373,50.751 262.135,50.924 
					262.225,51.206 261.986,51.033 261.744,51.206 261.836,50.924 261.598,50.751 261.894,50.751 				"/>
				<polygon clip-path="url(#SVGID_6_)" fill="#FFFFFF" points="261.986,51.716 262.075,51.997 262.373,51.997 262.135,52.17 
					262.225,52.451 261.986,52.277 261.744,52.451 261.836,52.17 261.598,51.997 261.894,51.997 				"/>
				<polygon clip-path="url(#SVGID_6_)" fill="#FFFFFF" points="262.861,47.32 262.957,47.604 263.25,47.604 263.012,47.778 
					263.104,48.06 262.861,47.886 262.625,48.06 262.715,47.778 262.475,47.604 262.771,47.604 				"/>
				<polygon clip-path="url(#SVGID_6_)" fill="#FFFFFF" points="262.861,48.566 262.957,48.848 263.25,48.848 263.012,49.021 
					263.104,49.304 262.861,49.13 262.625,49.304 262.715,49.021 262.475,48.848 262.771,48.848 				"/>
				<polygon clip-path="url(#SVGID_6_)" fill="#FFFFFF" points="262.861,49.813 262.957,50.094 263.25,50.094 263.012,50.268 
					263.104,50.552 262.861,50.376 262.625,50.552 262.715,50.268 262.475,50.094 262.771,50.094 				"/>
				<polygon clip-path="url(#SVGID_6_)" fill="#FFFFFF" points="262.861,51.058 262.957,51.34 263.25,51.34 263.012,51.514 
					263.104,51.795 262.861,51.622 262.625,51.795 262.715,51.514 262.475,51.34 262.771,51.34 				"/>
				<polygon clip-path="url(#SVGID_6_)" fill="#FFFFFF" points="262.861,52.303 262.957,52.586 263.25,52.586 263.012,52.76 
					263.104,53.042 262.861,52.867 262.625,53.042 262.715,52.76 262.475,52.586 262.771,52.586 				"/>
			</g>
		</g>
	</g>
</g>
<g>
	<path fill="#A6B0C3" d="M378.211,83.834v23.638c0,5.731-4.65,10.383-10.381,10.383H77.195c-5.739,0-10.383-4.652-10.383-10.383
		V83.834c0-5.738,4.644-10.382,10.383-10.382h128.296c9.376,0,16.978-3.801,16.978-8.481c0,4.68,7.589,8.481,16.957,8.481H367.83
		C373.561,73.452,378.211,78.096,378.211,83.834z"/>
	<g>
		<text transform="matrix(1 0 0 1 77.9463 93.3013)"><tspan x="0" y="0" fill="#FFFFFF" font-family="'Montserrat-Medium'" font-size="10.08">This is your local currency. You can update your currency</tspan><tspan x="0" y="12.096" fill="#FFFFFF" font-family="'Montserrat-Medium'" font-size="10.08">by changing the wallet settings in your HandCash app.</tspan></text>
	</g>
</g>
<g>
	<circle fill="#A6B0C3" cx="222.512" cy="53.428" r="7.051"/>
	<g>
		<path fill="#FFFFFF" d="M222.472,56.575c-0.067,0.255-0.101,0.423-0.101,0.506c0,0.042,0.018,0.083,0.055,0.125
			c0.037,0.042,0.075,0.063,0.116,0.063c0.073,0,0.144-0.031,0.21-0.094c0.181-0.146,0.391-0.401,0.629-0.765
			c0.017-0.025,0.07-0.075,0.103-0.046l0.128,0.072c0.031,0.028,0.012,0.067-0.002,0.089c-0.621,1.057-1.281,1.585-1.979,1.585
			c-0.271,0-0.486-0.076-0.647-0.229c-0.161-0.154-0.241-0.347-0.241-0.581c0-0.156,0.036-0.354,0.108-0.593l0.874-3
			c0.083-0.286,0.124-0.501,0.124-0.647c0-0.093-0.04-0.176-0.121-0.249s-0.188-0.109-0.323-0.109c-0.027,0-0.057,0.001-0.086,0.001
			c-0.045,0.001-0.126-0.034-0.112-0.078c0.012-0.037,0.024-0.076,0.029-0.097c0.024-0.099,0.247-0.104,0.247-0.104l1.737-0.28
			c0,0,0.138-0.026,0.236-0.026c0.077,0,0.147,0.001,0.196,0c0.133-0.002,0.062,0.153,0.062,0.153L222.472,56.575z"/>
		<path fill="#FFFFFF" d="M224.295,50.153c0,0.254-0.09,0.472-0.271,0.651s-0.4,0.269-0.655,0.269c-0.249,0-0.463-0.09-0.642-0.269
			c-0.18-0.179-0.27-0.396-0.27-0.651s0.088-0.473,0.265-0.655c0.177-0.182,0.393-0.273,0.646-0.273
			c0.261,0,0.479,0.091,0.659,0.273C224.206,49.68,224.295,49.898,224.295,50.153z"/>
	</g>
</g>
<g>
	<defs>
		<rect id="SVGID_7_" y="775.2" width="432" height="768"/>
	</defs>
	<clipPath id="SVGID_8_">
		<use xlink:href="#SVGID_7_"  overflow="visible"/>
	</clipPath>
	<g clip-path="url(#SVGID_8_)">
		<g>
			<path fill="#1345CE" d="M-670.11,1055.894c40.058,22.872,90.153,21.207,134.371,8.073c44.218-13.133,84.498-36.624,126.17-56.4
				c41.674-19.776,86.656-36.223,132.711-33.652c36.282,2.023,70.779,15.705,106.324,23.256
				c35.55,7.547,75.574,8.039,104.925-13.389c31.794-23.218,45.729-68.294,82.225-83.062c39.671-16.052,87.19,11.905,126.712-4.515
				c33.684-13.993,47.771-58.15,35.797-92.604c-11.97-34.457-44.113-58.826-78.626-70.632
				c-34.517-11.802-71.634-12.909-108.099-13.903c-130.856-3.563-261.713-7.126-392.569-10.689
				c-79.155-2.156-162.238-3.461-232.538,32.98c-53.593,27.783-99.045,86.798-98.313,149.184
				C-730.366,946.24-724.231,1024.988-670.11,1055.894z"/>
		</g>
	</g>
</g>
</svg>
