<?xml version="1.0" encoding="utf-8"?>
<!-- Generator: Adobe Illustrator 16.0.0, SVG Export Plug-In . SVG Version: 6.00 Build 0)  -->
<!DOCTYPE svg PUBLIC "-//W3C//DTD SVG 1.1//EN" "http://www.w3.org/Graphics/SVG/1.1/DTD/svg11.dtd">
<svg version="1.1" id="Layer_1" xmlns="http://www.w3.org/2000/svg" xmlns:xlink="http://www.w3.org/1999/xlink" x="0px" y="0px"
	 width="432px" height="768px" viewBox="0 0 432 768" enable-background="new 0 0 432 768" xml:space="preserve">
<g>
	<defs>
		<rect id="SVGID_7_" y="-775.2" width="432" height="768"/>
	</defs>
	<clipPath id="SVGID_2_">
		<use xlink:href="#SVGID_7_"  overflow="visible"/>
	</clipPath>
	<g clip-path="url(#SVGID_2_)">
		<path fill="#1345CE" d="M5.476,36.405c42.758-0.729,84.203,13.793,126.639,19.104c42.432,5.312,90.855-1.16,117.924-34.267
			c25.375-31.029,25.832-78.062,54.277-106.303c30.055-29.837,80.4-28.021,113.824-54.04c39.36-30.636,42.541-87.447,57.408-135.061
			c21.394-68.496,71.254-123.779,119.722-176.699c11.475-12.527,26.815-26.262,43.147-21.572
			c17.902,5.137,22.539,27.916,23.951,46.486c11.246,148.094,22.494,296.184,33.741,444.273
			c5.062,66.641,8.14,140.251-33.135,192.814c-48.116,61.271-136.229,69.435-214.07,72.607
			c-101.476,4.137-202.952,8.271-304.423,12.408c-55.893,2.277-112.51,4.498-167.174-7.383
			c-60.135-13.07-162.121-55.663-137.34-130.29C-137.401,90.327-66.101,37.626,5.476,36.405z"/>
		<g opacity="0.2">
			<circle fill="#231F20" cx="405.71" cy="-19.196" r="41.25"/>
			<g>
				<path fill="#231F20" d="M405.71-64.571c25.06,0,45.375,20.315,45.375,45.375S430.77,26.179,405.71,26.179
					c-25.061,0-45.375-20.315-45.375-45.375S380.649-64.571,405.71-64.571 M405.71-70.571c-28.328,0-51.375,23.047-51.375,51.375
					s23.047,51.375,51.375,51.375s51.375-23.047,51.375-51.375S434.038-70.571,405.71-70.571L405.71-70.571z"/>
			</g>
		</g>
	</g>
</g>
<g>
	<g>
		<text transform="matrix(1 0 0 1 33.8105 408.0195)" font-family="'Montserrat-Bold'" font-size="20.9952">Sorry, this content isn’t available.</text>
	</g>
	<g>
		<text transform="matrix(1 0 0 1 16.563 456.2236)" fill="#5A728A" font-family="'Montserrat-Medium'" font-size="15.1632">The link you followed may be broken or has expired.</text>
	</g>
	<g>
		<path fill="#3861FB" d="M258.996,482.08v15.964c0,4.411-3.572,7.982-7.99,7.982h-69.97c-4.411,0-7.981-3.571-7.981-7.982V482.08
			c0-4.412,3.57-7.992,7.981-7.992h69.97C255.424,474.088,258.996,477.668,258.996,482.08z"/>
		<g>
			<text transform="matrix(1 0 0 1 194.9434 493.6963)" fill="#FFFFFF" font-family="'Montserrat-SemiBold'" font-size="10.2447">Go Back</text>
		</g>
	</g>
	<g>
		<g>
			
				<linearGradient id="SVGID_4_" gradientUnits="userSpaceOnUse" x1="-70.7505" y1="-290.8296" x2="-70.7505" y2="-188.2729" gradientTransform="matrix(1 0 0 -1 287 72.7988)">
				<stop  offset="0" style="stop-color:#FD3A84"/>
				<stop  offset="1" style="stop-color:#FFA68D"/>
			</linearGradient>
			<path fill="url(#SVGID_4_)" d="M236.246,363.629h-39.992c-0.797,0-1.561-0.316-2.125-0.881l-28.279-28.277
				c-0.563-0.564-0.88-1.328-0.88-2.125v-39.992c0-0.797,0.316-1.561,0.88-2.124l28.279-28.278c0.564-0.563,1.328-0.879,2.125-0.879
				h39.992c0.796,0,1.56,0.316,2.124,0.879l28.278,28.278c0.563,0.563,0.881,1.327,0.881,2.124v39.992
				c0,0.797-0.316,1.561-0.881,2.125l-28.277,28.277C237.806,363.313,237.042,363.629,236.246,363.629L236.246,363.629z"/>
		</g>
		<g>
			<path fill="#FFFFFF" d="M217.043,327.556c2.745,0,4.942-2.197,4.942-5.035v-36.994c0-2.747-2.197-5.036-4.942-5.036
				c-2.748,0-5.037,2.289-5.037,5.036v36.994C212.006,325.358,214.295,327.556,217.043,327.556z"/>
			<circle fill="#FFFFFF" cx="216.996" cy="339.738" r="4.99"/>
		</g>
	</g>
</g>
<g>
	<g>
		<defs>
			<rect id="SVGID_10_" y="775.2" width="432" height="768"/>
		</defs>
		<clipPath id="SVGID_6_">
			<use xlink:href="#SVGID_10_"  overflow="visible"/>
		</clipPath>
		<g clip-path="url(#SVGID_6_)">
			<g>
				<path fill="#21A875" d="M-670.11,1055.894c40.058,22.872,90.153,21.207,134.371,8.073c44.218-13.133,84.498-36.624,126.17-56.4
					c41.674-19.776,86.656-36.223,132.711-33.652c36.282,2.023,70.779,15.705,106.324,23.256
					c35.55,7.547,75.574,8.039,104.925-13.389c31.794-23.218,45.729-68.294,82.225-83.062c39.671-16.052,87.19,11.905,126.712-4.515
					c33.684-13.993,47.771-58.15,35.797-92.604c-11.97-34.457-44.113-58.826-78.626-70.632
					c-34.517-11.802-71.634-12.909-108.099-13.903c-130.856-3.563-261.713-7.126-392.569-10.689
					c-79.155-2.156-162.238-3.461-232.538,32.98c-53.593,27.783-99.045,86.798-98.313,149.184
					C-730.366,946.24-724.231,1024.988-670.11,1055.894z"/>
			</g>
		</g>
	</g>
</g>
</svg>
