<?xml version="1.0" encoding="utf-8"?>
<!-- Generator: Adobe Illustrator 16.0.0, SVG Export Plug-In . SVG Version: 6.00 Build 0)  -->
<!DOCTYPE svg PUBLIC "-//W3C//DTD SVG 1.1//EN" "http://www.w3.org/Graphics/SVG/1.1/DTD/svg11.dtd">
<svg version="1.1" id="Layer_1" xmlns="http://www.w3.org/2000/svg" xmlns:xlink="http://www.w3.org/1999/xlink" x="0px" y="0px"
	 width="432px" height="768px" viewBox="0 0 432 768" enable-background="new 0 0 432 768" xml:space="preserve">
<g>
	<defs>
		<rect id="SVGID_3_" y="-775.2" width="432" height="768"/>
	</defs>
	<clipPath id="SVGID_2_">
		<use xlink:href="#SVGID_3_"  overflow="visible"/>
	</clipPath>
	<g clip-path="url(#SVGID_2_)">
		<path fill="#1345CE" d="M5.476,36.405c42.758-0.729,84.203,13.793,126.639,19.104c42.432,5.312,90.855-1.16,117.924-34.267
			c25.375-31.029,25.832-78.062,54.277-106.303c30.055-29.837,80.4-28.021,113.824-54.04c39.36-30.636,42.541-87.447,57.408-135.061
			c21.394-68.496,71.254-123.779,119.722-176.699c11.475-12.527,26.815-26.262,43.147-21.572
			c17.902,5.137,22.539,27.916,23.951,46.486c11.246,148.094,22.494,296.184,33.741,444.273
			c5.062,66.641,8.14,140.251-33.135,192.814c-48.116,61.271-136.229,69.435-214.07,72.607
			c-101.476,4.137-202.952,8.271-304.423,12.408c-55.893,2.277-112.51,4.498-167.174-7.383
			c-60.135-13.07-162.121-55.663-137.34-130.29C-137.401,90.327-66.101,37.626,5.476,36.405z"/>
		<g opacity="0.2">
			<circle fill="#231F20" cx="405.71" cy="-19.196" r="41.25"/>
			<g>
				<path fill="#231F20" d="M405.71-64.571c25.06,0,45.375,20.315,45.375,45.375S430.77,26.179,405.71,26.179
					c-25.061,0-45.375-20.315-45.375-45.375S380.649-64.571,405.71-64.571 M405.71-70.571c-28.328,0-51.375,23.047-51.375,51.375
					s23.047,51.375,51.375,51.375s51.375-23.047,51.375-51.375S434.038-70.571,405.71-70.571L405.71-70.571z"/>
			</g>
		</g>
	</g>
</g>
<g>
	<defs>
		<rect id="SVGID_7_" width="432" height="768"/>
	</defs>
	<clipPath id="SVGID_4_">
		<use xlink:href="#SVGID_7_"  overflow="visible"/>
	</clipPath>
	<g clip-path="url(#SVGID_4_)">
		<g>
			<path fill="#1345CE" d="M-670.11,280.693c40.058,22.872,90.153,21.207,134.371,8.073c44.218-13.133,84.498-36.624,126.17-56.4
				c41.674-19.776,86.656-36.223,132.711-33.652c36.282,2.023,70.779,15.705,106.324,23.256
				c35.55,7.547,75.574,8.039,104.925-13.389c31.794-23.218,45.729-68.294,82.225-83.062c39.671-16.052,87.19,11.905,126.712-4.515
				c33.684-13.993,47.771-58.15,35.797-92.604c-11.97-34.457-44.113-58.826-78.626-70.632C65.981-54.032,28.864-55.14-7.601-56.134
				c-130.856-3.563-261.713-7.126-392.569-10.689c-79.155-2.156-162.238-3.461-232.538,32.98
				c-53.593,27.783-99.045,86.798-98.313,149.184C-730.366,171.04-724.231,249.788-670.11,280.693z"/>
		</g>
		<path opacity="0.5" fill="#F1F1F2" d="M7.974,89.485c0,0,3.158-1.365,3.954-2.162c0.797-0.797,2.163-3.954,2.163-3.954
			s1.366,3.157,2.163,3.954s3.954,2.162,3.954,2.162s-3.157,1.367-3.954,2.164c-0.797,0.796-2.163,3.954-2.163,3.954
			s-1.366-3.158-2.163-3.954C11.132,90.852,7.974,89.485,7.974,89.485z"/>
		<circle opacity="0.5" fill="#F1F1F2" cx="104.178" cy="85.78" r="2.146"/>
	</g>
	<g clip-path="url(#SVGID_4_)">
		<path fill="#1345CE" d="M5.476,811.605c42.758-0.729,84.203,13.793,126.639,19.104c42.432,5.312,90.855-1.16,117.924-34.267
			c25.375-31.029,25.832-78.062,54.277-106.303c30.055-29.837,80.4-28.021,113.824-54.04c39.36-30.636,42.541-87.447,57.408-135.061
			c21.394-68.496,71.254-123.779,119.722-176.699c11.475-12.527,26.815-26.262,43.147-21.572
			c17.902,5.137,22.539,27.916,23.951,46.486c11.246,148.094,22.494,296.184,33.741,444.273
			c5.062,66.641,8.14,140.251-33.135,192.814c-48.116,61.271-136.229,69.435-214.07,72.607
			c-101.476,4.137-202.952,8.271-304.423,12.408c-55.893,2.277-112.51,4.498-167.174-7.383
			c-60.135-13.07-162.121-55.663-137.34-130.29C-137.401,865.527-66.101,812.826,5.476,811.605z"/>
		<g opacity="0.2">
			<circle fill="#231F20" cx="405.71" cy="756.004" r="41.25"/>
			<g>
				<path fill="#231F20" d="M405.71,710.629c25.06,0,45.375,20.315,45.375,45.375s-20.315,45.375-45.375,45.375
					c-25.061,0-45.375-20.315-45.375-45.375S380.649,710.629,405.71,710.629 M405.71,704.629c-28.328,0-51.375,23.047-51.375,51.375
					s23.047,51.375,51.375,51.375s51.375-23.047,51.375-51.375S434.038,704.629,405.71,704.629L405.71,704.629z"/>
			</g>
		</g>
	</g>
</g>
<g>
	<path fill="#FFFFFF" d="M58.054,56.82v-0.002l-0.927-1.82v-0.001l-1.016-2h-0.002l-0.93-1.831l-1.725-3.39l-1.192-2.346
		l-0.169-0.337l-1.166-2.29v-0.001h-0.001l-0.377-0.744l-0.449-0.883l0.002-0.001h-0.002l-0.905-1.778l-0.019-0.04l-3.143,2.37
		h-0.002l-0.501,0.377l-1.589,1.199H43.94l-1.929,1.456h-0.001l-1.931-1.456l-1.589-1.199h-0.002l-0.499-0.377h-0.002l-3.143-2.372
		l-0.001-0.001l-0.002,0.001l0.002,0.001l-0.025,0.047l-0.9,1.771l-0.454,0.893l-0.374,0.736l-1.164,2.29h-0.002l-0.169,0.335v0.002
		l-1.193,2.345v0.001l-1.724,3.39l-0.929,1.831h-0.001l-1.016,2l-0.926,1.821l-0.012,0.024l0.062,0.013l5.149,3.882l9.099,6.858
		l1.747,1.316l1.739-1.31l1.875-1.415l7.232-5.45l5.149-3.882l0.059-0.013L58.054,56.82z M51.071,47.776v0.001l1.192,2.345v0.002
		l0.77,1.514l0.93,1.831l0.248,0.485l-2.816-2.12l-1.725-1.3v-0.001l-1.147-0.865l0.182-0.686l1.024-3.843L51.071,47.776z
		 M46.526,43.871v-0.001l1.851-1.393l-0.702,2.631l-0.87,3.266l-3.125-2.358L46.526,43.871z M37.494,43.869l2.846,2.146
		l-3.132,2.362l-0.872-3.271l-0.698-2.623l0.005-0.01l1.849,1.395H37.494z M30.055,53.469l0.929-1.831l0.771-1.516l1.193-2.346
		l1.336-2.629l1.021,3.834l0.185,0.69l-1.143,0.86v0.001l-1.725,1.3l-2.816,2.12L30.055,53.469z M32.834,59.479h-0.001l-1.668-1.259
		l-1.837-1.383l4.22-3.183h0.002l1.724-1.3v-0.001l0.774-0.584l3.376,12.679L32.834,59.479z M42.005,66.393l-4.24-15.92l0.738-0.556
		l1.67-1.257l0.628-0.475l0.031-0.024l0.054-0.04L41.18,47.9l0.829-0.627h0.001l1.123,0.849l0.054,0.04l0.032,0.024l0.627,0.475
		l0.241,0.18l0.104,0.079l0.077,0.057l0.201,0.151l0.067,0.052l0.224,0.17l0.756,0.568l0.731,0.551l-4.242,15.926L42.005,66.393z
		 M52.854,58.22l-1.67,1.259l-6.116,4.611l-0.483,0.363l3.379-12.689l0.781,0.589l1.726,1.301l4.22,3.182L52.854,58.22z"/>
	
		<text transform="matrix(1 0 0 1 68.1147 62.3848)" fill="#FFFFFF" font-family="'MontserratAlternates-Medium'" font-size="27.4069">mitto</text>
</g>
<g>
	<text transform="matrix(1 0 0 1 27.2295 414.0869)" fill="#21CA8A" font-family="'Montserrat-Bold'" font-size="20.9952">Success! Payment URL Generated.</text>
</g>
<g>
	<text transform="matrix(1 0 0 1 126.1685 467.6455)" fill="#5A728A" font-family="'Montserrat-Medium'" font-size="15.1632">Here’s your secret URL</text>
</g>
<g>
	<path fill="#FFFFFF" stroke="#E6E7E8" stroke-width="0.75" stroke-miterlimit="10" d="M413.801,496.063v14.418
		c0,3.979-3.232,7.206-7.211,7.206H25.481c-3.985,0-7.212-3.226-7.212-7.206v-14.418c0-3.979,3.227-7.212,7.212-7.212H406.59
		C410.568,488.852,413.801,492.085,413.801,496.063z"/>
	<g>
		<text transform="matrix(1 0 0 1 26.7373 506.5532)" fill="#A6B0C3" font-family="'Montserrat-Medium'" font-size="9.072">https://app.handcash.io/#/authorizeApp?appId=5fff949f4033300c3d87aed1</text>
	</g>
	<path fill="#5A728A" d="M398.658,510.354h-5.285c-1.221,0-2.213-0.992-2.213-2.212v-7.496c0-1.221,0.992-2.213,2.213-2.213h5.285
		c1.219,0,2.211,0.992,2.211,2.213v7.496C400.869,509.361,399.877,510.354,398.658,510.354z M393.373,499.538
		c-0.609,0-1.107,0.497-1.107,1.107v7.496c0,0.609,0.498,1.106,1.107,1.106h5.285c0.609,0,1.105-0.497,1.105-1.106v-7.496
		c0-0.61-0.496-1.107-1.105-1.107H393.373z M403.084,506.757v-8.354c0-1.22-0.994-2.212-2.215-2.212h-6.141
		c-0.305,0-0.553,0.248-0.553,0.553c0,0.306,0.248,0.554,0.553,0.554h6.141c0.611,0,1.107,0.496,1.107,1.106v8.354
		c0,0.307,0.248,0.553,0.553,0.553S403.084,507.064,403.084,506.757z"/>
</g>
<g>
	<path fill="#21CA8A" d="M262.867,325.133c-1.152,4.298,0.748,9.857-1.426,13.623c-2.209,3.809-7.998,4.932-11.088,8.028
		c-3.104,3.096-4.219,8.885-8.035,11.095c-3.766,2.175-9.324,0.273-13.621,1.426c-4.148,1.109-8.008,5.566-12.507,5.566
		c-4.5,0-8.359-4.457-12.507-5.566c-4.298-1.152-9.856,0.749-13.622-1.426c-3.815-2.21-4.932-7.999-8.035-11.095
		c-3.096-3.096-8.877-4.219-11.088-8.028c-2.174-3.766-0.273-9.324-1.426-13.623c-1.108-4.154-5.566-8.006-5.566-12.506
		s4.458-8.359,5.566-12.506c1.152-4.299-0.748-9.864,1.426-13.622c2.211-3.816,7.992-4.939,11.096-8.036
		c3.096-3.096,4.212-8.885,8.027-11.088c3.766-2.174,9.324-0.281,13.622-1.425c4.147-1.109,8.007-5.566,12.507-5.566
		c4.5,0,8.359,4.457,12.507,5.566c4.297,1.144,9.855-0.749,13.621,1.425c3.816,2.203,4.932,7.992,8.035,11.088
		c3.098,3.096,8.885,4.219,11.088,8.036c2.174,3.758,0.273,9.323,1.426,13.622c1.109,4.147,5.564,8.006,5.564,12.506
		S263.977,320.979,262.867,325.133z"/>
	<polygon fill="#FFFFFF" points="234.709,304.21 210.387,327.56 197.628,314.801 201.969,310.453 210.473,318.956 230.453,299.775 	
		"/>
</g>
</svg>
