<?xml version="1.0" encoding="utf-8"?>
<!-- Generator: Adobe Illustrator 16.0.0, SVG Export Plug-In . SVG Version: 6.00 Build 0)  -->
<!DOCTYPE svg PUBLIC "-//W3C//DTD SVG 1.1//EN" "http://www.w3.org/Graphics/SVG/1.1/DTD/svg11.dtd">
<svg version="1.1" id="Layer_1" xmlns="http://www.w3.org/2000/svg" xmlns:xlink="http://www.w3.org/1999/xlink" x="0px" y="0px"
	 width="576px" height="768px" viewBox="0 0 576 768" enable-background="new 0 0 576 768" xml:space="preserve">
<g>
	<defs>
		<rect id="SVGID_1_" y="-775.2" width="576" height="768"/>
	</defs>
	<clipPath id="SVGID_2_">
		<use xlink:href="#SVGID_1_"  overflow="visible"/>
	</clipPath>
	<g clip-path="url(#SVGID_2_)">
		<path fill="#1345CE" d="M77.476,36.405c42.758-0.729,84.203,13.793,126.639,19.104c42.432,5.312,90.855-1.16,117.924-34.267
			C347.413-9.788,347.87-56.82,376.315-85.061c30.055-29.837,80.4-28.021,113.824-54.04c39.36-30.636,42.541-87.447,57.408-135.061
			c21.394-68.496,71.254-123.779,119.722-176.699c11.475-12.527,26.815-26.262,43.147-21.572
			c17.902,5.137,22.539,27.916,23.951,46.486c11.246,148.094,22.494,296.184,33.741,444.273
			c5.062,66.641,8.14,140.251-33.135,192.814c-48.116,61.271-136.229,69.435-214.07,72.607
			c-101.476,4.137-202.952,8.271-304.423,12.408c-55.893,2.277-112.51,4.498-167.174-7.383
			c-60.135-13.07-162.121-55.663-137.34-130.29C-65.401,90.327,5.899,37.625,77.476,36.405z"/>
		<g opacity="0.2">
			<circle fill="#231F20" cx="477.71" cy="-19.197" r="41.25"/>
			<g>
				<path fill="#231F20" d="M477.71-64.572c25.06,0,45.375,20.315,45.375,45.375S502.77,26.178,477.71,26.178
					c-25.061,0-45.375-20.315-45.375-45.375S452.649-64.572,477.71-64.572 M477.71-70.572c-28.328,0-51.375,23.047-51.375,51.375
					s23.047,51.375,51.375,51.375s51.375-23.047,51.375-51.375S506.038-70.572,477.71-70.572L477.71-70.572z"/>
			</g>
		</g>
	</g>
</g>
<g>
	<defs>
		<rect id="SVGID_3_" width="576" height="768"/>
	</defs>
	<clipPath id="SVGID_4_">
		<use xlink:href="#SVGID_3_"  overflow="visible"/>
	</clipPath>
	<g clip-path="url(#SVGID_4_)">
		<g>
			<path fill="#1345CE" d="M-584.096,280.693c40.058,22.872,90.153,21.207,134.371,8.073c44.218-13.133,84.498-36.624,126.17-56.4
				c41.674-19.776,86.656-36.223,132.711-33.652c36.282,2.023,70.779,15.705,106.324,23.256
				c35.55,7.547,75.574,8.039,104.925-13.389c31.794-23.218,45.729-68.294,82.225-83.062c39.671-16.052,87.19,11.905,126.712-4.515
				c33.684-13.993,47.771-58.15,35.797-92.604c-11.97-34.457-44.113-58.826-78.626-70.632
				C151.995-54.033,114.878-55.14,78.413-56.134C-52.443-59.697-183.3-63.26-314.156-66.824
				c-79.155-2.156-162.238-3.461-232.538,32.98c-53.593,27.783-99.045,86.798-98.313,149.184
				C-644.353,171.04-638.218,249.788-584.096,280.693z"/>
		</g>
		<path opacity="0.5" fill="#F1F1F2" d="M93.987,89.484c0,0,3.158-1.365,3.954-2.162c0.797-0.797,2.163-3.954,2.163-3.954
			s1.366,3.157,2.163,3.954s3.954,2.162,3.954,2.162s-3.157,1.367-3.954,2.164c-0.797,0.796-2.163,3.954-2.163,3.954
			s-1.366-3.158-2.163-3.954C97.146,90.852,93.987,89.484,93.987,89.484z"/>
		<circle opacity="0.5" fill="#F1F1F2" cx="34.208" cy="103.236" r="2.146"/>
		<circle opacity="0.5" fill="#F1F1F2" cx="190.192" cy="85.779" r="2.146"/>
		<g opacity="0.2">
			<path fill="#FFFFFF" d="M-2.922,170.306c4.862,0,8.805,3.942,8.805,8.805c0,4.862-3.942,8.804-8.805,8.804
				s-8.805-3.942-8.805-8.804C-11.727,174.248-7.784,170.306-2.922,170.306 M-2.922,166.306c-7.061,0-12.805,5.744-12.805,12.805
				c0,7.06,5.744,12.804,12.805,12.804s12.805-5.744,12.805-12.804C9.883,172.05,4.139,166.306-2.922,166.306L-2.922,166.306z"/>
		</g>
	</g>
	<g clip-path="url(#SVGID_4_)">
		<path fill="#1345CE" d="M77.476,811.605c42.758-0.729,84.203,13.793,126.639,19.104c42.432,5.312,90.855-1.16,117.924-34.267
			c25.375-31.029,25.832-78.062,54.277-106.303c30.055-29.837,80.4-28.021,113.824-54.04c39.36-30.636,42.541-87.447,57.408-135.061
			c21.394-68.496,71.254-123.779,119.722-176.699c11.475-12.527,26.815-26.262,43.147-21.572
			c17.902,5.137,22.539,27.916,23.951,46.486c11.246,148.094,22.494,296.184,33.741,444.273
			c5.062,66.641,8.14,140.251-33.135,192.814c-48.116,61.271-136.229,69.435-214.07,72.607
			c-101.476,4.137-202.952,8.271-304.423,12.408c-55.893,2.277-112.51,4.498-167.174-7.383
			c-60.135-13.07-162.121-55.663-137.34-130.29C-65.401,865.527,5.899,812.826,77.476,811.605z"/>
		<g opacity="0.2">
			<circle fill="#231F20" cx="477.71" cy="756.003" r="41.25"/>
			<g>
				<path fill="#231F20" d="M477.71,710.628c25.06,0,45.375,20.315,45.375,45.375s-20.315,45.375-45.375,45.375
					c-25.061,0-45.375-20.315-45.375-45.375S452.649,710.628,477.71,710.628 M477.71,704.628c-28.328,0-51.375,23.047-51.375,51.375
					s23.047,51.375,51.375,51.375s51.375-23.047,51.375-51.375S506.038,704.628,477.71,704.628L477.71,704.628z"/>
			</g>
		</g>
		<path fill="#FFFFFF" d="M546.017,615.229c0,0,1.365,3.158,2.162,3.954c0.797,0.797,3.954,2.163,3.954,2.163
			s-3.157,1.366-3.954,2.163s-2.162,3.954-2.162,3.954s-1.367-3.157-2.164-3.954c-0.796-0.797-3.954-2.163-3.954-2.163
			s3.158-1.366,3.954-2.163C544.649,618.387,546.017,615.229,546.017,615.229z"/>
		<path fill="#FFFFFF" d="M576.003,693.157c0,0,1.917,4.432,3.034,5.549c1.118,1.119,5.549,3.035,5.549,3.035
			s-4.431,1.916-5.549,3.035c-1.117,1.117-3.034,5.548-3.034,5.548s-1.917-4.431-3.034-5.548c-1.119-1.119-5.549-3.035-5.549-3.035
			s4.43-1.916,5.549-3.035C574.086,697.588,576.003,693.157,576.003,693.157z"/>
	</g>
</g>
<g>
	<path fill="#FFFFFF" d="M67.215,55.117v-0.002l-1.029-2.022v-0.001l-1.129-2.223h-0.002l-1.033-2.034l-1.916-3.767l-1.324-2.607
		l-0.188-0.375l-1.295-2.544V39.54h-0.001l-0.419-0.826l-0.499-0.981l0.002-0.001h-0.002l-1.006-1.976l-0.021-0.044l-3.492,2.633
		h-0.002l-0.557,0.419l-1.766,1.333h-0.002l-2.144,1.618h-0.002l-2.146-1.618l-1.766-1.333h-0.002l-0.555-0.419h-0.002l-3.492-2.635
		l-0.002-0.002l-0.002,0.002l0.002,0.001l-0.027,0.053l-1,1.968l-0.504,0.992l-0.415,0.818l-1.293,2.544h-0.002l-0.188,0.373v0.002
		l-1.325,2.605v0.001l-1.916,3.767l-1.032,2.034h-0.002l-1.129,2.223l-1.029,2.024l-0.013,0.026l0.068,0.015l5.722,4.314
		l10.109,7.62l1.94,1.462l1.933-1.456l2.084-1.572l8.036-6.055l5.722-4.314l0.065-0.015L67.215,55.117z M59.456,45.068v0.001
		l1.325,2.605v0.002l0.855,1.682l1.033,2.034l0.275,0.539l-3.129-2.356L57.9,48.132V48.13l-1.274-0.961l0.202-0.762l1.138-4.27
		L59.456,45.068z M54.406,40.728v-0.001l2.057-1.548l-0.779,2.924l-0.967,3.629l-3.473-2.62L54.406,40.728z M44.371,40.727
		l3.162,2.385l-3.48,2.625l-0.969-3.634l-0.775-2.914l0.006-0.011l2.055,1.549H44.371z M36.105,51.393l1.032-2.034l0.856-1.684
		l1.325-2.607l1.485-2.921l1.135,4.26l0.205,0.767l-1.27,0.956v0.002l-1.916,1.444l-3.129,2.356L36.105,51.393z M39.193,58.07
		h-0.002l-1.854-1.398l-2.041-1.537l4.688-3.537h0.002l1.916-1.444v-0.001l0.86-0.649l3.751,14.088L39.193,58.07z M49.383,65.753
		l-4.711-17.688l0.82-0.618l1.855-1.396l0.697-0.527l0.035-0.026l0.06-0.044l0.327-0.247l0.921-0.696h0.002l1.247,0.943l0.061,0.044
		l0.035,0.026l0.697,0.527l0.268,0.2l0.115,0.087l0.086,0.063l0.223,0.168l0.075,0.058l0.249,0.189l0.84,0.631l0.813,0.612
		l-4.713,17.696L49.383,65.753z M61.438,56.672l-1.855,1.398l-6.795,5.124l-0.537,0.404l3.755-14.1l0.867,0.654l1.918,1.445
		l4.688,3.535L61.438,56.672z"/>
	
		<text transform="matrix(1 0 0 1 78.4063 61.2998)" fill="#FFFFFF" font-family="'MontserratAlternates-Medium'" font-size="30.4521">mitto</text>
</g>
<circle fill="#FAAF40" cx="288.158" cy="259.996" r="41.625"/>
<text transform="matrix(1 0 0 1 225.2769 343.3179)" font-family="'Montserrat-Bold'" font-size="32.4">$krupp</text>
<g>
	<path fill="#FFFFFF" stroke="#E6E7E8" stroke-width="0.75" stroke-miterlimit="10" d="M460.367,416.439
		c0,5.529-4.483,10.012-10.013,10.012H170.003c-5.529,0-10.012-4.483-10.012-10.012v-20.025c0-5.529,4.483-10.013,10.012-10.013
		h280.351c5.529,0,10.013,4.483,10.013,10.013V416.439z"/>
	<path fill="#FFFFFF" stroke="#E6E7E8" stroke-width="0.75" stroke-miterlimit="10" d="M460.367,467.789
		c0,5.529-4.483,10.012-10.013,10.012H170.003c-5.529,0-10.012-4.483-10.012-10.012v-20.025c0-5.529,4.483-10.013,10.012-10.013
		h280.351c5.529,0,10.013,4.483,10.013,10.013V467.789z"/>
	<g>
		<text transform="matrix(1 0 0 1 172.5757 410.9351)" fill="#A6B0C3" font-family="'Montserrat-Medium'" font-size="12.6">Enter recepient’s email address</text>
	</g>
	<g>
		<text transform="matrix(1 0 0 1 173.6255 462.2754)" fill="#A6B0C3" font-family="'Montserrat-Medium'" font-size="12.6">Enter amount</text>
	</g>
	<path fill="#FFFFFF" stroke="#E6E7E8" stroke-width="0.75" stroke-miterlimit="10" d="M460.367,519.139
		c0,5.529-4.483,10.012-10.013,10.012H170.003c-5.529,0-10.012-4.483-10.012-10.012v-20.025c0-5.529,4.483-10.013,10.012-10.013
		h280.351c5.529,0,10.013,4.483,10.013,10.013V519.139z"/>
	<g>
		<text transform="matrix(1 0 0 1 175.0098 513.6167)" fill="#A6B0C3" font-family="'Montserrat-Medium'" font-size="12.6">Add a description</text>
	</g>
	<path fill="#5A728A" d="M136.014,399.051h-18.837c-1.584,0-2.871,1.296-2.871,2.871v12.096c0,1.584,1.287,2.871,2.871,2.871h18.837
		c1.584,0,2.872-1.287,2.872-2.871v-12.096C138.885,400.347,137.598,399.051,136.014,399.051z M136.437,400.482l-9.846,7.604
		l-9.846-7.604H136.437z M137.453,414.018c0,0.801-0.647,1.449-1.439,1.449h-18.837c-0.801,0-1.449-0.648-1.449-1.449V401.49
		l10.431,8.055c0.242,0.198,0.62,0.198,0.874,0l10.421-8.055V414.018z"/>
	<path fill="#5A728A" d="M137.978,500.205c-1.03-1.525-3.104-1.926-4.629-0.896l-15.492,10.464
		c-0.106,0.071-0.192,0.169-0.249,0.283l-2.9,5.832c-0.119,0.239-0.101,0.524,0.049,0.744c0.149,0.222,0.405,0.346,0.672,0.325
		l6.492-0.514c0.128-0.009,0.25-0.052,0.357-0.124l15.492-10.463c1.524-1.033,1.926-3.104,0.896-4.629L137.978,500.205z
		 M119.35,510.553l12.679-8.565l2.761,4.089l-12.68,8.563L119.35,510.553z M118.399,511.792l2.206,3.268l-3.989,0.315
		L118.399,511.792z M136.94,504.625l-0.92,0.623l-2.762-4.09l0.92-0.621c0.848-0.572,1.999-0.35,2.571,0.498l0.689,1.02
		C138.01,502.903,137.787,504.054,136.94,504.625z"/>
	<g>
		<path fill="#5A728A" d="M137.984,452.396c-0.057-1.351-0.989-2.479-2.242-2.831c0-0.003-0.001-0.005-0.001-0.008
			c-0.265-0.075-0.543-0.114-0.831-0.114h-0.636c0,0.003,0.001,0.005,0.001,0.007H118.28c-0.601,0-1.164,0.175-1.638,0.475v-0.007
			c-0.864,0.545-1.438,1.508-1.438,2.602v11.521c0,1.095,0.574,2.057,1.438,2.603c0.475,0.3,1.037,0.474,1.638,0.474h16.631
			c0.288,0,0.566-0.04,0.831-0.114c1.256-0.353,2.189-1.485,2.243-2.839c0.001-0.042,0.002-0.082,0.002-0.124V452.52
			C137.987,452.479,137.986,452.437,137.984,452.396z M134.911,465.681H118.28c-0.891,0-1.621-0.717-1.638-1.605
			c0-0.014,0-0.028,0-0.042V452.52c0-0.01,0-0.022,0-0.034c0.023-0.885,0.749-1.597,1.638-1.597h16.631
			c0.89,0,1.615,0.712,1.638,1.597c0.001,0.012,0.001,0.024,0.001,0.034v2.516h-4.583c-1.8,0-3.267,1.452-3.293,3.245
			c0,0.016,0,0.033,0,0.049c0,1.816,1.478,3.293,3.293,3.293h4.583v2.411c0,0.014,0,0.028-0.001,0.042
			C136.531,464.963,135.803,465.681,134.911,465.681z M130.112,458.282v-0.001c0.026-1.002,0.849-1.807,1.855-1.807h4.583v3.712
			h-4.583c-1.024,0-1.855-0.833-1.855-1.856C130.112,458.313,130.112,458.298,130.112,458.282z"/>
		<circle fill="#5A728A" cx="132.233" cy="458.383" r="0.749"/>
	</g>
</g>
<g>
	<path fill="#21CA8A" d="M337.209,590.313c0,10.872-8.82,19.692-19.692,19.692h-59.688c-10.881,0-19.702-8.82-19.702-19.692
		c0-5.445,2.206-10.369,5.77-13.933s8.486-5.769,13.932-5.769h59.688C328.389,570.611,337.209,579.432,337.209,590.313z"/>
	<g>
		<text transform="matrix(1 0 0 1 280.8813 594.4854)" fill="#FFFFFF" font-family="'Montserrat-SemiBold'" font-size="12.6478">Send</text>
	</g>
	<path fill="#FFFFFF" d="M273.663,583.482l-1.874,12.608c-0.025,0.149-0.111,0.283-0.241,0.362
		c-0.081,0.049-0.172,0.075-0.266,0.075c-0.055,0-0.11-0.011-0.166-0.028l-4.373-1.495l-1.846,2.516
		c-0.099,0.134-0.251,0.208-0.413,0.208c-0.053,0-0.105-0.008-0.158-0.025c-0.211-0.07-0.352-0.265-0.352-0.485v-3.159h-0.003
		l0.003-0.003l7.025-8.463l-9.081,7.764l-4.264-1.458c-0.192-0.064-0.327-0.239-0.343-0.444c-0.016-0.205,0.091-0.398,0.272-0.493
		l15.335-8.008c0.171-0.09,0.377-0.073,0.533,0.037C273.61,583.101,273.69,583.292,273.663,583.482z"/>
</g>
<g>
	<path fill="#21CA8A" d="M544.634,52.555c0,9.664-7.84,17.504-17.504,17.504h-53.056c-9.672,0-17.512-7.84-17.512-17.504
		c0-4.84,1.959-9.216,5.127-12.384s7.545-5.128,12.385-5.128h53.056C536.794,35.042,544.634,42.883,544.634,52.555z"/>
	<g>
		<text transform="matrix(1 0 0 1 476.8418 56.2646)" fill="#FFFFFF" font-family="'Montserrat-SemiBold'" font-size="11.2425">$ 200.07</text>
	</g>
</g>
<g>
	<path fill="#FFFFFF" stroke="#E6E7E8" stroke-width="0.75" stroke-miterlimit="10" d="M446.138,52.555
		c0,9.664-7.84,17.504-17.504,17.504h-53.056c-9.672,0-17.512-7.84-17.512-17.504c0-4.84,1.959-9.216,5.127-12.384
		s7.545-5.128,12.385-5.128h53.056C438.298,35.042,446.138,42.883,446.138,52.555z"/>
	<text transform="matrix(1 0 0 1 407.8604 56.2646)" fill="#5A728A" font-family="'Montserrat-SemiBold'" font-size="11.2425">USD</text>
	<g id="USA_1_">
		<g>
			<g>
				<defs>
					<rect id="SVGID_5_" x="374.02" y="45.034" width="26.402" height="15.4"/>
				</defs>
				<clipPath id="SVGID_6_">
					<use xlink:href="#SVGID_5_"  overflow="visible"/>
				</clipPath>
				<rect x="374.02" y="59.25" clip-path="url(#SVGID_6_)" fill="#CB001C" width="26.402" height="1.184"/>
				<rect x="374.02" y="58.065" clip-path="url(#SVGID_6_)" fill="#FFFFFF" width="26.402" height="1.185"/>
				<rect x="374.02" y="56.883" clip-path="url(#SVGID_6_)" fill="#CB001C" width="26.402" height="1.182"/>
				<rect x="374.02" y="55.697" clip-path="url(#SVGID_6_)" fill="#FFFFFF" width="26.402" height="1.186"/>
				<rect x="374.02" y="54.511" clip-path="url(#SVGID_6_)" fill="#CB001C" width="26.402" height="1.186"/>
				<rect x="374.02" y="53.327" clip-path="url(#SVGID_6_)" fill="#FFFFFF" width="26.402" height="1.184"/>
				<rect x="374.02" y="52.141" clip-path="url(#SVGID_6_)" fill="#CB001C" width="26.402" height="1.186"/>
				<rect x="374.02" y="50.958" clip-path="url(#SVGID_6_)" fill="#FFFFFF" width="26.402" height="1.184"/>
				<rect x="374.02" y="49.774" clip-path="url(#SVGID_6_)" fill="#CB001C" width="26.402" height="1.184"/>
				<rect x="374.02" y="48.589" clip-path="url(#SVGID_6_)" fill="#FFFFFF" width="26.402" height="1.185"/>
				<rect x="374.02" y="47.403" clip-path="url(#SVGID_6_)" fill="#CB001C" width="26.402" height="1.186"/>
				<rect x="374.02" y="46.22" clip-path="url(#SVGID_6_)" fill="#FFFFFF" width="26.402" height="1.183"/>
				<rect x="374.02" y="45.034" clip-path="url(#SVGID_6_)" fill="#CB001C" width="26.402" height="1.186"/>
				<rect x="374.02" y="45.034" clip-path="url(#SVGID_6_)" fill="#2A3560" width="12.057" height="8.293"/>
				<polygon clip-path="url(#SVGID_6_)" fill="#FFFFFF" points="375.109,45.948 375.213,46.263 375.543,46.263 375.275,46.457 
					375.375,46.77 375.109,46.577 374.842,46.77 374.946,46.457 374.68,46.263 375.006,46.263 				"/>
				<polygon clip-path="url(#SVGID_6_)" fill="#FFFFFF" points="375.109,47.333 375.213,47.646 375.543,47.646 375.275,47.839 
					375.375,48.152 375.109,47.959 374.842,48.152 374.946,47.839 374.68,47.646 375.006,47.646 				"/>
				<polygon clip-path="url(#SVGID_6_)" fill="#FFFFFF" points="375.109,48.719 375.213,49.03 375.543,49.03 375.275,49.223 
					375.375,49.539 375.109,49.344 374.842,49.539 374.946,49.223 374.68,49.03 375.006,49.03 				"/>
				<polygon clip-path="url(#SVGID_6_)" fill="#FFFFFF" points="375.109,50.102 375.213,50.415 375.543,50.415 375.275,50.608 
					375.375,50.921 375.109,50.728 374.842,50.921 374.946,50.608 374.68,50.415 375.006,50.415 				"/>
				<polygon clip-path="url(#SVGID_6_)" fill="#FFFFFF" points="375.109,51.485 375.213,51.8 375.543,51.8 375.275,51.992 
					375.375,52.305 375.109,52.112 374.842,52.305 374.946,51.992 374.68,51.8 375.006,51.8 				"/>
				<polygon clip-path="url(#SVGID_6_)" fill="#FFFFFF" points="376.074,46.678 376.172,46.991 376.504,46.991 376.238,47.185 
					376.338,47.499 376.074,47.305 375.809,47.499 375.908,47.185 375.642,46.991 375.973,46.991 				"/>
				<polygon clip-path="url(#SVGID_6_)" fill="#FFFFFF" points="376.074,48.062 376.172,48.374 376.504,48.374 376.238,48.569 
					376.338,48.881 376.074,48.69 375.809,48.881 375.908,48.569 375.642,48.374 375.973,48.374 				"/>
				<polygon clip-path="url(#SVGID_6_)" fill="#FFFFFF" points="376.074,49.447 376.172,49.76 376.504,49.76 376.238,49.953 
					376.338,50.266 376.074,50.073 375.809,50.266 375.908,49.953 375.642,49.76 375.973,49.76 				"/>
				<polygon clip-path="url(#SVGID_6_)" fill="#FFFFFF" points="376.074,50.833 376.172,51.145 376.504,51.145 376.238,51.337 
					376.338,51.649 376.074,51.456 375.809,51.649 375.908,51.337 375.642,51.145 375.973,51.145 				"/>
				<polygon clip-path="url(#SVGID_6_)" fill="#FFFFFF" points="377.047,45.948 377.15,46.263 377.48,46.263 377.213,46.457 
					377.316,46.77 377.047,46.577 376.783,46.77 376.885,46.457 376.617,46.263 376.946,46.263 				"/>
				<polygon clip-path="url(#SVGID_6_)" fill="#FFFFFF" points="377.047,47.333 377.15,47.646 377.48,47.646 377.213,47.839 
					377.316,48.152 377.047,47.959 376.783,48.152 376.885,47.839 376.617,47.646 376.946,47.646 				"/>
				<polygon clip-path="url(#SVGID_6_)" fill="#FFFFFF" points="377.047,48.719 377.15,49.03 377.48,49.03 377.213,49.223 
					377.316,49.539 377.047,49.344 376.783,49.539 376.885,49.223 376.617,49.03 376.946,49.03 				"/>
				<polygon clip-path="url(#SVGID_6_)" fill="#FFFFFF" points="377.047,50.102 377.15,50.415 377.48,50.415 377.213,50.608 
					377.316,50.921 377.047,50.728 376.783,50.921 376.885,50.608 376.617,50.415 376.946,50.415 				"/>
				<polygon clip-path="url(#SVGID_6_)" fill="#FFFFFF" points="377.047,51.485 377.15,51.8 377.48,51.8 377.213,51.992 
					377.316,52.305 377.047,52.112 376.783,52.305 376.885,51.992 376.617,51.8 376.946,51.8 				"/>
				<polygon clip-path="url(#SVGID_6_)" fill="#FFFFFF" points="378.013,46.678 378.113,46.991 378.445,46.991 378.177,47.185 
					378.279,47.499 378.013,47.305 377.747,47.499 377.85,47.185 377.58,46.991 377.911,46.991 				"/>
				<polygon clip-path="url(#SVGID_6_)" fill="#FFFFFF" points="378.013,48.062 378.113,48.374 378.445,48.374 378.177,48.569 
					378.279,48.881 378.013,48.69 377.747,48.881 377.85,48.569 377.58,48.374 377.911,48.374 				"/>
				<polygon clip-path="url(#SVGID_6_)" fill="#FFFFFF" points="378.013,49.447 378.113,49.76 378.445,49.76 378.177,49.953 
					378.279,50.266 378.013,50.073 377.747,50.266 377.85,49.953 377.58,49.76 377.911,49.76 				"/>
				<polygon clip-path="url(#SVGID_6_)" fill="#FFFFFF" points="378.013,50.833 378.113,51.145 378.445,51.145 378.177,51.337 
					378.279,51.649 378.013,51.456 377.747,51.649 377.85,51.337 377.58,51.145 377.911,51.145 				"/>
				<polygon clip-path="url(#SVGID_6_)" fill="#FFFFFF" points="378.989,45.948 379.092,46.263 379.42,46.263 379.152,46.457 
					379.259,46.77 378.989,46.577 378.723,46.77 378.824,46.457 378.56,46.263 378.889,46.263 				"/>
				<polygon clip-path="url(#SVGID_6_)" fill="#FFFFFF" points="378.989,47.333 379.092,47.646 379.42,47.646 379.152,47.839 
					379.259,48.152 378.989,47.959 378.723,48.152 378.824,47.839 378.56,47.646 378.889,47.646 				"/>
				<polygon clip-path="url(#SVGID_6_)" fill="#FFFFFF" points="378.989,48.719 379.092,49.03 379.42,49.03 379.152,49.223 
					379.259,49.539 378.989,49.344 378.723,49.539 378.824,49.223 378.56,49.03 378.889,49.03 				"/>
				<polygon clip-path="url(#SVGID_6_)" fill="#FFFFFF" points="378.989,50.102 379.092,50.415 379.42,50.415 379.152,50.608 
					379.259,50.921 378.989,50.728 378.723,50.921 378.824,50.608 378.56,50.415 378.889,50.415 				"/>
				<polygon clip-path="url(#SVGID_6_)" fill="#FFFFFF" points="378.989,51.485 379.092,51.8 379.42,51.8 379.152,51.992 
					379.259,52.305 378.989,52.112 378.723,52.305 378.824,51.992 378.56,51.8 378.889,51.8 				"/>
				<polygon clip-path="url(#SVGID_6_)" fill="#FFFFFF" points="379.954,46.678 380.056,46.991 380.385,46.991 380.119,47.185 
					380.219,47.499 379.954,47.305 379.688,47.499 379.787,47.185 379.521,46.991 379.852,46.991 				"/>
				<polygon clip-path="url(#SVGID_6_)" fill="#FFFFFF" points="379.954,48.062 380.056,48.374 380.385,48.374 380.119,48.569 
					380.219,48.881 379.954,48.69 379.688,48.881 379.787,48.569 379.521,48.374 379.852,48.374 				"/>
				<polygon clip-path="url(#SVGID_6_)" fill="#FFFFFF" points="379.954,49.447 380.056,49.76 380.385,49.76 380.119,49.953 
					380.219,50.266 379.954,50.073 379.688,50.266 379.787,49.953 379.521,49.76 379.852,49.76 				"/>
				<polygon clip-path="url(#SVGID_6_)" fill="#FFFFFF" points="379.954,50.833 380.056,51.145 380.385,51.145 380.119,51.337 
					380.219,51.649 379.954,51.456 379.688,51.649 379.787,51.337 379.521,51.145 379.852,51.145 				"/>
				<polygon clip-path="url(#SVGID_6_)" fill="#FFFFFF" points="380.928,45.948 381.031,46.263 381.36,46.263 381.094,46.457 
					381.197,46.77 380.928,46.577 380.664,46.77 380.764,46.457 380.498,46.263 380.828,46.263 				"/>
				<polygon clip-path="url(#SVGID_6_)" fill="#FFFFFF" points="380.928,47.333 381.031,47.646 381.36,47.646 381.094,47.839 
					381.197,48.152 380.928,47.959 380.664,48.152 380.764,47.839 380.498,47.646 380.828,47.646 				"/>
				<polygon clip-path="url(#SVGID_6_)" fill="#FFFFFF" points="380.928,48.719 381.031,49.03 381.36,49.03 381.094,49.223 
					381.197,49.539 380.928,49.344 380.664,49.539 380.764,49.223 380.498,49.03 380.828,49.03 				"/>
				<polygon clip-path="url(#SVGID_6_)" fill="#FFFFFF" points="380.928,50.102 381.031,50.415 381.36,50.415 381.094,50.608 
					381.197,50.921 380.928,50.728 380.664,50.921 380.764,50.608 380.498,50.415 380.828,50.415 				"/>
				<polygon clip-path="url(#SVGID_6_)" fill="#FFFFFF" points="380.928,51.485 381.031,51.8 381.36,51.8 381.094,51.992 
					381.197,52.305 380.928,52.112 380.664,52.305 380.764,51.992 380.498,51.8 380.828,51.8 				"/>
				<polygon clip-path="url(#SVGID_6_)" fill="#FFFFFF" points="381.893,46.678 381.994,46.991 382.326,46.991 382.059,47.185 
					382.16,47.499 381.893,47.305 381.627,47.499 381.73,47.185 381.463,46.991 381.793,46.991 				"/>
				<polygon clip-path="url(#SVGID_6_)" fill="#FFFFFF" points="381.893,48.062 381.994,48.374 382.326,48.374 382.059,48.569 
					382.16,48.881 381.893,48.69 381.627,48.881 381.73,48.569 381.463,48.374 381.793,48.374 				"/>
				<polygon clip-path="url(#SVGID_6_)" fill="#FFFFFF" points="381.893,49.447 381.994,49.76 382.326,49.76 382.059,49.953 
					382.16,50.266 381.893,50.073 381.627,50.266 381.73,49.953 381.463,49.76 381.793,49.76 				"/>
				<polygon clip-path="url(#SVGID_6_)" fill="#FFFFFF" points="381.893,50.833 381.994,51.145 382.326,51.145 382.059,51.337 
					382.16,51.649 381.893,51.456 381.627,51.649 381.73,51.337 381.463,51.145 381.793,51.145 				"/>
				<polygon clip-path="url(#SVGID_6_)" fill="#FFFFFF" points="382.869,45.948 382.973,46.263 383.303,46.263 383.036,46.457 
					383.137,46.77 382.869,46.577 382.606,46.77 382.707,46.457 382.439,46.263 382.77,46.263 				"/>
				<polygon clip-path="url(#SVGID_6_)" fill="#FFFFFF" points="382.869,47.333 382.973,47.646 383.303,47.646 383.036,47.839 
					383.137,48.152 382.869,47.959 382.606,48.152 382.707,47.839 382.439,47.646 382.77,47.646 				"/>
				<polygon clip-path="url(#SVGID_6_)" fill="#FFFFFF" points="382.869,48.719 382.973,49.03 383.303,49.03 383.036,49.223 
					383.137,49.539 382.869,49.344 382.606,49.539 382.707,49.223 382.439,49.03 382.77,49.03 				"/>
				<polygon clip-path="url(#SVGID_6_)" fill="#FFFFFF" points="382.869,50.102 382.973,50.415 383.303,50.415 383.036,50.608 
					383.137,50.921 382.869,50.728 382.606,50.921 382.707,50.608 382.439,50.415 382.77,50.415 				"/>
				<polygon clip-path="url(#SVGID_6_)" fill="#FFFFFF" points="382.869,51.485 382.973,51.8 383.303,51.8 383.036,51.992 
					383.137,52.305 382.869,52.112 382.606,52.305 382.707,51.992 382.439,51.8 382.77,51.8 				"/>
				<polygon clip-path="url(#SVGID_6_)" fill="#FFFFFF" points="383.836,46.678 383.935,46.991 384.266,46.991 384.001,47.185 
					384.1,47.499 383.836,47.305 383.566,47.499 383.669,47.185 383.404,46.991 383.732,46.991 				"/>
				<polygon clip-path="url(#SVGID_6_)" fill="#FFFFFF" points="383.836,48.062 383.935,48.374 384.266,48.374 384.001,48.569 
					384.1,48.881 383.836,48.69 383.566,48.881 383.669,48.569 383.404,48.374 383.732,48.374 				"/>
				<polygon clip-path="url(#SVGID_6_)" fill="#FFFFFF" points="383.836,49.447 383.935,49.76 384.266,49.76 384.001,49.953 
					384.1,50.266 383.836,50.073 383.566,50.266 383.669,49.953 383.404,49.76 383.732,49.76 				"/>
				<polygon clip-path="url(#SVGID_6_)" fill="#FFFFFF" points="383.836,50.833 383.935,51.145 384.266,51.145 384.001,51.337 
					384.1,51.649 383.836,51.456 383.566,51.649 383.669,51.337 383.404,51.145 383.732,51.145 				"/>
				<polygon clip-path="url(#SVGID_6_)" fill="#FFFFFF" points="384.809,45.948 384.914,46.263 385.24,46.263 384.975,46.457 
					385.078,46.77 384.809,46.577 384.545,46.77 384.645,46.457 384.379,46.263 384.708,46.263 				"/>
				<polygon clip-path="url(#SVGID_6_)" fill="#FFFFFF" points="384.809,47.333 384.914,47.646 385.24,47.646 384.975,47.839 
					385.078,48.152 384.809,47.959 384.545,48.152 384.645,47.839 384.379,47.646 384.708,47.646 				"/>
				<polygon clip-path="url(#SVGID_6_)" fill="#FFFFFF" points="384.809,48.719 384.914,49.03 385.24,49.03 384.975,49.223 
					385.078,49.539 384.809,49.344 384.545,49.539 384.645,49.223 384.379,49.03 384.708,49.03 				"/>
				<polygon clip-path="url(#SVGID_6_)" fill="#FFFFFF" points="384.809,50.102 384.914,50.415 385.24,50.415 384.975,50.608 
					385.078,50.921 384.809,50.728 384.545,50.921 384.645,50.608 384.379,50.415 384.708,50.415 				"/>
				<polygon clip-path="url(#SVGID_6_)" fill="#FFFFFF" points="384.809,51.485 384.914,51.8 385.24,51.8 384.975,51.992 
					385.078,52.305 384.809,52.112 384.545,52.305 384.645,51.992 384.379,51.8 384.708,51.8 				"/>
			</g>
		</g>
	</g>
</g>
<g>
	<path fill="#A6B0C3" d="M512.975,86.52v26.264c0,6.368-5.168,11.537-11.535,11.537H178.512c-6.377,0-11.537-5.168-11.537-11.537
		V86.52c0-6.376,5.16-11.536,11.537-11.536h142.552c10.417,0,18.864-4.224,18.864-9.424c0,5.2,8.432,9.424,18.84,9.424h142.672
		C507.807,74.984,512.975,80.144,512.975,86.52z"/>
	<g>
		<text transform="matrix(1 0 0 1 179.3379 97.0376)"><tspan x="0" y="0" fill="#FFFFFF" font-family="'Montserrat-Medium'" font-size="11.2">This is your local currency. You can update your currency</tspan><tspan x="0" y="13.44" fill="#FFFFFF" font-family="'Montserrat-Medium'" font-size="11.2">by changing the wallet settings in your HandCash app.</tspan></text>
	</g>
</g>
<g>
	<circle fill="#A6B0C3" cx="339.975" cy="52.734" r="7.834"/>
	<g>
		<path fill="#FFFFFF" d="M339.931,56.231c-0.075,0.283-0.112,0.471-0.112,0.563c0,0.046,0.02,0.092,0.061,0.139
			s0.084,0.069,0.13,0.069c0.081,0,0.159-0.035,0.233-0.104c0.2-0.162,0.434-0.445,0.699-0.85c0.018-0.028,0.078-0.083,0.113-0.052
			l0.142,0.08c0.035,0.031,0.013,0.074-0.001,0.099c-0.691,1.174-1.425,1.761-2.199,1.761c-0.301,0-0.541-0.085-0.719-0.255
			c-0.18-0.17-0.269-0.386-0.269-0.645c0-0.173,0.04-0.393,0.121-0.658l0.97-3.334c0.093-0.317,0.139-0.557,0.139-0.719
			c0-0.104-0.045-0.196-0.135-0.277c-0.09-0.081-0.209-0.122-0.359-0.122c-0.029,0-0.063,0.001-0.096,0.001
			c-0.049,0.001-0.14-0.037-0.124-0.086c0.013-0.041,0.026-0.085,0.032-0.108c0.027-0.109,0.275-0.116,0.275-0.116l1.93-0.311
			c0,0,0.153-0.029,0.263-0.029c0.085,0,0.164,0.001,0.218,0c0.148-0.002,0.068,0.17,0.068,0.17L339.931,56.231z"/>
		<path fill="#FFFFFF" d="M341.957,49.096c0,0.283-0.101,0.524-0.303,0.723c-0.201,0.199-0.445,0.299-0.728,0.299
			c-0.277,0-0.515-0.1-0.714-0.299s-0.299-0.44-0.299-0.723s0.098-0.525,0.294-0.728c0.196-0.202,0.437-0.303,0.719-0.303
			c0.289,0,0.532,0.102,0.731,0.303C341.857,48.571,341.957,48.813,341.957,49.096z"/>
	</g>
</g>
<g>
	<defs>
		<rect id="SVGID_7_" y="775.2" width="576" height="768"/>
	</defs>
	<clipPath id="SVGID_8_">
		<use xlink:href="#SVGID_7_"  overflow="visible"/>
	</clipPath>
	<g clip-path="url(#SVGID_8_)">
		<g>
			<path fill="#1345CE" d="M-584.096,1055.893c40.058,22.872,90.153,21.207,134.371,8.073c44.218-13.133,84.498-36.624,126.17-56.4
				c41.674-19.776,86.656-36.223,132.711-33.652c36.282,2.023,70.779,15.705,106.324,23.256
				c35.55,7.547,75.574,8.039,104.925-13.389c31.794-23.218,45.729-68.294,82.225-83.062c39.671-16.052,87.19,11.905,126.712-4.515
				c33.684-13.993,47.771-58.15,35.797-92.604c-11.97-34.457-44.113-58.826-78.626-70.632
				c-34.517-11.802-71.634-12.909-108.099-13.903c-130.856-3.563-261.713-7.126-392.569-10.689
				c-79.155-2.156-162.238-3.461-232.538,32.98c-53.593,27.783-99.045,86.798-98.313,149.184
				C-644.353,946.24-638.218,1024.988-584.096,1055.893z"/>
		</g>
	</g>
</g>
</svg>
