<?xml version="1.0" encoding="utf-8"?>
<!-- Generator: Adobe Illustrator 16.0.0, SVG Export Plug-In . SVG Version: 6.00 Build 0)  -->
<!DOCTYPE svg PUBLIC "-//W3C//DTD SVG 1.1//EN" "http://www.w3.org/Graphics/SVG/1.1/DTD/svg11.dtd">
<svg version="1.1" id="Layer_1" xmlns="http://www.w3.org/2000/svg" xmlns:xlink="http://www.w3.org/1999/xlink" x="0px" y="0px"
	 width="576px" height="768px" viewBox="0 0 576 768" enable-background="new 0 0 576 768" xml:space="preserve">
<g>
	<defs>
		<rect id="SVGID_3_" y="-775.2" width="576" height="768"/>
	</defs>
	<clipPath id="SVGID_2_">
		<use xlink:href="#SVGID_3_"  overflow="visible"/>
	</clipPath>
	<g clip-path="url(#SVGID_2_)">
		<path fill="#1345CE" d="M77.476,36.405c42.758-0.729,84.203,13.793,126.639,19.104c42.432,5.312,90.855-1.16,117.924-34.267
			C347.413-9.788,347.87-56.82,376.315-85.061c30.055-29.837,80.4-28.021,113.824-54.04c39.36-30.636,42.541-87.447,57.408-135.061
			c21.394-68.496,71.254-123.779,119.722-176.699c11.475-12.527,26.815-26.262,43.147-21.572
			c17.902,5.137,22.539,27.916,23.951,46.486c11.246,148.094,22.494,296.184,33.741,444.273
			c5.062,66.641,8.14,140.251-33.135,192.814c-48.116,61.271-136.229,69.435-214.07,72.607
			c-101.476,4.137-202.952,8.271-304.423,12.408c-55.893,2.277-112.51,4.498-167.174-7.383
			c-60.135-13.07-162.121-55.663-137.34-130.29C-65.401,90.327,5.899,37.625,77.476,36.405z"/>
		<g opacity="0.2">
			<circle fill="#231F20" cx="477.71" cy="-19.197" r="41.25"/>
			<g>
				<path fill="#231F20" d="M477.71-64.572c25.06,0,45.375,20.315,45.375,45.375S502.77,26.178,477.71,26.178
					c-25.061,0-45.375-20.315-45.375-45.375S452.649-64.572,477.71-64.572 M477.71-70.572c-28.328,0-51.375,23.047-51.375,51.375
					s23.047,51.375,51.375,51.375s51.375-23.047,51.375-51.375S506.038-70.572,477.71-70.572L477.71-70.572z"/>
			</g>
		</g>
	</g>
</g>
<g>
	<defs>
		<rect id="SVGID_7_" width="576" height="768"/>
	</defs>
	<clipPath id="SVGID_4_">
		<use xlink:href="#SVGID_7_"  overflow="visible"/>
	</clipPath>
	<g clip-path="url(#SVGID_4_)">
		<g>
			<path fill="#1345CE" d="M-584.096,280.693c40.058,22.872,90.153,21.207,134.371,8.073c44.218-13.133,84.498-36.624,126.17-56.4
				c41.674-19.776,86.656-36.223,132.711-33.652c36.282,2.023,70.779,15.705,106.324,23.256
				c35.55,7.547,75.574,8.039,104.925-13.389c31.794-23.218,45.729-68.294,82.225-83.062c39.671-16.052,87.19,11.905,126.712-4.515
				c33.684-13.993,47.771-58.15,35.797-92.604c-11.97-34.457-44.113-58.826-78.626-70.632
				C151.995-54.033,114.878-55.14,78.413-56.134C-52.443-59.697-183.3-63.26-314.156-66.824
				c-79.155-2.156-162.238-3.461-232.538,32.98c-53.593,27.783-99.045,86.798-98.313,149.184
				C-644.353,171.04-638.218,249.788-584.096,280.693z"/>
		</g>
		<path opacity="0.5" fill="#F1F1F2" d="M93.987,89.484c0,0,3.158-1.365,3.954-2.162c0.797-0.797,2.163-3.954,2.163-3.954
			s1.366,3.157,2.163,3.954s3.954,2.162,3.954,2.162s-3.157,1.367-3.954,2.164c-0.797,0.796-2.163,3.954-2.163,3.954
			s-1.366-3.158-2.163-3.954C97.146,90.852,93.987,89.484,93.987,89.484z"/>
		<circle opacity="0.5" fill="#F1F1F2" cx="34.208" cy="103.236" r="2.146"/>
		<circle opacity="0.5" fill="#F1F1F2" cx="190.192" cy="85.779" r="2.146"/>
		<g opacity="0.2">
			<path fill="#FFFFFF" d="M-2.922,170.306c4.862,0,8.805,3.942,8.805,8.805c0,4.862-3.942,8.804-8.805,8.804
				s-8.805-3.942-8.805-8.804C-11.727,174.248-7.784,170.306-2.922,170.306 M-2.922,166.306c-7.061,0-12.805,5.744-12.805,12.805
				c0,7.06,5.744,12.804,12.805,12.804s12.805-5.744,12.805-12.804C9.883,172.05,4.139,166.306-2.922,166.306L-2.922,166.306z"/>
		</g>
	</g>
	<g clip-path="url(#SVGID_4_)">
		<path fill="#1345CE" d="M77.476,811.605c42.758-0.73,84.203,13.793,126.639,19.104c42.432,5.311,90.855-1.16,117.924-34.268
			c25.375-31.029,25.832-78.061,54.277-106.302c30.055-29.837,80.4-28.021,113.824-54.04c39.36-30.636,42.541-87.447,57.408-135.06
			c21.394-68.497,71.254-123.78,119.722-176.7c11.475-12.527,26.815-26.262,43.147-21.572c17.902,5.137,22.539,27.916,23.951,46.486
			c11.246,148.094,22.494,296.184,33.741,444.274c5.062,66.641,8.14,140.25-33.135,192.814
			c-48.116,61.271-136.229,69.434-214.07,72.607c-101.476,4.137-202.952,8.271-304.423,12.408
			c-55.893,2.277-112.51,4.498-167.174-7.383c-60.135-13.07-162.121-55.664-137.34-130.291
			C-65.401,865.527,5.899,812.826,77.476,811.605z"/>
		<g opacity="0.2">
			<circle fill="#231F20" cx="477.71" cy="756.003" r="41.25"/>
			<g>
				<path fill="#231F20" d="M477.71,710.628c25.06,0,45.375,20.315,45.375,45.375c0,25.059-20.315,45.375-45.375,45.375
					c-25.061,0-45.375-20.316-45.375-45.375C432.335,730.944,452.649,710.628,477.71,710.628 M477.71,704.628
					c-28.328,0-51.375,23.047-51.375,51.375c0,28.329,23.047,51.375,51.375,51.375s51.375-23.047,51.375-51.375
					C529.085,727.675,506.038,704.628,477.71,704.628L477.71,704.628z"/>
			</g>
		</g>
		<path fill="#FFFFFF" d="M546.017,615.229c0,0,1.365,3.158,2.162,3.954c0.797,0.797,3.954,2.163,3.954,2.163
			s-3.157,1.366-3.954,2.163s-2.162,3.954-2.162,3.954s-1.367-3.157-2.164-3.954c-0.796-0.797-3.954-2.163-3.954-2.163
			s3.158-1.366,3.954-2.163C544.649,618.387,546.017,615.229,546.017,615.229z"/>
		<path fill="#FFFFFF" d="M576.003,693.157c0,0,1.917,4.432,3.034,5.549c1.118,1.119,5.549,3.035,5.549,3.035
			s-4.431,1.916-5.549,3.035c-1.117,1.117-3.034,5.548-3.034,5.548s-1.917-4.431-3.034-5.548c-1.119-1.119-5.549-3.035-5.549-3.035
			s4.43-1.916,5.549-3.035C574.086,697.588,576.003,693.157,576.003,693.157z"/>
	</g>
</g>
<g>
	<text transform="matrix(1 0 0 1 54.8818 414.0864)" fill="#21CA8A" font-family="'Montserrat-Bold'" font-size="25.92">Success! Payment URL Generated.</text>
</g>
<g>
	<text transform="matrix(1 0 0 1 177.7271 467.645)" fill="#5A728A" font-family="'Montserrat-Medium'" font-size="18.72">Here’s your secret URL</text>
</g>
<g>
	<path fill="#FFFFFF" stroke="#E6E7E8" stroke-width="0.75" stroke-miterlimit="10" d="M507.775,495.262v16.02
		c0,4.421-3.593,8.007-8.014,8.007H76.308c-4.428,0-8.014-3.585-8.014-8.007v-16.02c0-4.42,3.586-8.013,8.014-8.013h423.454
		C504.183,487.249,507.775,490.842,507.775,495.262z"/>
	<g>
		<text transform="matrix(1 0 0 1 77.7041 506.9175)" fill="#A6B0C3" font-family="'Montserrat-Medium'" font-size="10.08">https://app.handcash.io/#/authorizeApp?appId=5fff949f4033300c3d87aed1</text>
	</g>
	<path fill="#5A728A" d="M490.949,511.14h-5.871c-1.356,0-2.459-1.103-2.459-2.458v-8.329c0-1.357,1.103-2.459,2.459-2.459h5.871
		c1.355,0,2.458,1.102,2.458,2.459v8.329C493.407,510.038,492.305,511.14,490.949,511.14z M485.078,499.123
		c-0.678,0-1.23,0.552-1.23,1.23v8.329c0,0.677,0.553,1.229,1.23,1.229h5.871c0.678,0,1.229-0.552,1.229-1.229v-8.329
		c0-0.678-0.552-1.23-1.229-1.23H485.078z M495.866,507.144v-9.282c0-1.355-1.104-2.458-2.459-2.458h-6.823
		c-0.34,0-0.614,0.275-0.614,0.614c0,0.34,0.274,0.615,0.614,0.615h6.823c0.678,0,1.229,0.551,1.229,1.229v9.282
		c0,0.341,0.276,0.615,0.615,0.615S495.866,507.485,495.866,507.144z"/>
</g>
<g>
	<path fill="#21CA8A" d="M334.867,325.133c-1.152,4.298,0.748,9.857-1.426,13.623c-2.21,3.809-7.998,4.932-11.088,8.028
		c-3.104,3.096-4.22,8.885-8.035,11.095c-3.766,2.175-9.324,0.273-13.622,1.426c-4.147,1.109-8.007,5.566-12.507,5.566
		s-8.359-4.457-12.507-5.566c-4.298-1.152-9.856,0.749-13.622-1.426c-3.815-2.21-4.932-7.999-8.036-11.095
		c-3.096-3.096-8.877-4.219-11.087-8.028c-2.174-3.766-0.273-9.324-1.426-13.623c-1.108-4.154-5.566-8.006-5.566-12.506
		s4.458-8.359,5.566-12.506c1.152-4.299-0.749-9.864,1.426-13.622c2.21-3.816,7.992-4.939,11.095-8.036
		c3.096-3.096,4.212-8.885,8.028-11.088c3.766-2.174,9.324-0.281,13.622-1.425c4.148-1.109,8.007-5.566,12.507-5.566
		s8.359,4.457,12.507,5.566c4.298,1.144,9.856-0.749,13.622,1.425c3.815,2.203,4.932,7.992,8.035,11.088
		c3.097,3.096,8.885,4.219,11.088,8.036c2.174,3.758,0.273,9.323,1.426,13.622c1.108,4.147,5.564,8.006,5.564,12.506
		S335.976,320.979,334.867,325.133z"/>
	<polygon fill="#FFFFFF" points="306.708,304.209 282.386,327.559 269.628,314.801 273.969,310.452 282.473,318.956 
		302.453,299.774 	"/>
</g>
<g>
	<path fill="#FFFFFF" d="M67.215,55.117v-0.002l-1.029-2.022v-0.001l-1.129-2.223h-0.002l-1.033-2.034l-1.916-3.767l-1.324-2.607
		l-0.188-0.375l-1.295-2.544V39.54h-0.001l-0.419-0.826l-0.499-0.981l0.002-0.001h-0.002l-1.006-1.976l-0.021-0.044l-3.492,2.633
		h-0.002l-0.557,0.419l-1.766,1.333h-0.002l-2.144,1.618h-0.002l-2.146-1.618l-1.766-1.333h-0.002l-0.555-0.419h-0.002l-3.492-2.635
		l-0.002-0.002l-0.002,0.002l0.002,0.001l-0.027,0.053l-1,1.968l-0.504,0.992l-0.415,0.818l-1.293,2.544h-0.002l-0.188,0.373v0.002
		l-1.325,2.605v0.001l-1.916,3.767l-1.032,2.034h-0.002l-1.129,2.223l-1.029,2.024l-0.013,0.026l0.068,0.015l5.722,4.314
		l10.109,7.62l1.94,1.462l1.933-1.456l2.084-1.572l8.036-6.055l5.722-4.314l0.065-0.015L67.215,55.117z M59.456,45.068v0.001
		l1.325,2.605v0.002l0.855,1.682l1.033,2.034l0.275,0.539l-3.129-2.356L57.9,48.132V48.13l-1.274-0.961l0.202-0.762l1.138-4.27
		L59.456,45.068z M54.406,40.728v-0.001l2.057-1.548l-0.779,2.924l-0.967,3.629l-3.473-2.62L54.406,40.728z M44.371,40.727
		l3.162,2.385l-3.48,2.625l-0.969-3.634l-0.775-2.914l0.006-0.011l2.055,1.549H44.371z M36.105,51.393l1.032-2.034l0.856-1.684
		l1.325-2.607l1.485-2.921l1.135,4.26l0.205,0.767l-1.27,0.956v0.002l-1.916,1.444l-3.129,2.356L36.105,51.393z M39.193,58.07
		h-0.002l-1.854-1.398l-2.041-1.537l4.688-3.537h0.002l1.916-1.444v-0.001l0.86-0.649l3.751,14.088L39.193,58.07z M49.383,65.753
		l-4.711-17.688l0.82-0.618l1.855-1.396l0.697-0.527l0.035-0.026l0.06-0.044l0.327-0.247l0.921-0.696h0.002l1.247,0.943l0.061,0.044
		l0.035,0.026l0.697,0.527l0.268,0.2l0.115,0.087l0.086,0.063l0.223,0.168l0.075,0.058l0.249,0.189l0.84,0.631l0.813,0.612
		l-4.713,17.696L49.383,65.753z M61.438,56.672l-1.855,1.398l-6.795,5.124l-0.537,0.404l3.755-14.1l0.867,0.654l1.918,1.445
		l4.688,3.535L61.438,56.672z"/>
	
		<text transform="matrix(1 0 0 1 78.4063 61.2998)" fill="#FFFFFF" font-family="'MontserratAlternates-Medium'" font-size="30.4521">mitto</text>
</g>
</svg>
