<?xml version="1.0" encoding="utf-8"?>
<!-- Generator: Adobe Illustrator 16.0.0, SVG Export Plug-In . SVG Version: 6.00 Build 0)  -->
<!DOCTYPE svg PUBLIC "-//W3C//DTD SVG 1.1//EN" "http://www.w3.org/Graphics/SVG/1.1/DTD/svg11.dtd">
<svg version="1.1" id="Layer_1" xmlns="http://www.w3.org/2000/svg" xmlns:xlink="http://www.w3.org/1999/xlink" x="0px" y="0px"
	 width="576px" height="768px" viewBox="0 0 576 768" enable-background="new 0 0 576 768" xml:space="preserve">
<g>
	<defs>
		<rect id="SVGID_10_" width="576" height="768"/>
	</defs>
	<clipPath id="SVGID_2_">
		<use xlink:href="#SVGID_10_"  overflow="visible"/>
	</clipPath>
	<rect y="-0.999" clip-path="url(#SVGID_2_)" fill="#21CA8A" width="576" height="768.999"/>
	<g clip-path="url(#SVGID_2_)">
		<g>
			<path fill="#21A875" d="M-584.096,280.693c40.058,22.872,90.153,21.207,134.371,8.073c44.218-13.133,84.498-36.624,126.17-56.4
				c41.674-19.776,86.656-36.223,132.711-33.652c36.282,2.023,70.779,15.705,106.324,23.256
				c35.55,7.547,75.574,8.039,104.925-13.389c31.794-23.218,45.729-68.294,82.225-83.062c39.671-16.052,87.19,11.905,126.712-4.515
				c33.684-13.993,47.771-58.15,35.797-92.604c-11.97-34.457-44.113-58.826-78.626-70.632
				C151.995-54.032,114.878-55.14,78.413-56.134C-52.443-59.696-183.3-63.26-314.156-66.823
				c-79.155-2.156-162.238-3.461-232.538,32.98c-53.593,27.783-99.045,86.798-98.313,149.184
				C-644.353,171.04-638.218,249.788-584.096,280.693z"/>
		</g>
		<path opacity="0.5" fill="#F1F1F2" d="M93.987,89.484c0,0,3.158-1.365,3.954-2.162c0.797-0.797,2.163-3.953,2.163-3.953
			s1.366,3.156,2.163,3.953s3.954,2.162,3.954,2.162s-3.157,1.367-3.954,2.164s-2.163,3.955-2.163,3.955s-1.366-3.158-2.163-3.955
			C97.146,90.852,93.987,89.484,93.987,89.484z"/>
		<circle opacity="0.5" fill="#F1F1F2" cx="34.208" cy="103.236" r="2.146"/>
		<circle opacity="0.5" fill="#F1F1F2" cx="190.192" cy="85.779" r="2.146"/>
		<g opacity="0.2">
			<path fill="#FFFFFF" d="M-2.922,170.307c4.862,0,8.805,3.941,8.805,8.805c0,4.861-3.942,8.804-8.805,8.804
				s-8.805-3.942-8.805-8.804C-11.727,174.248-7.784,170.307-2.922,170.307 M-2.922,166.307c-7.061,0-12.805,5.744-12.805,12.805
				s5.744,12.804,12.805,12.804s12.805-5.743,12.805-12.804S4.139,166.307-2.922,166.307L-2.922,166.307z"/>
		</g>
	</g>
	<g clip-path="url(#SVGID_2_)">
		<path fill="#21A875" d="M77.476,811.605c42.758-0.729,84.203,13.793,126.639,19.104c42.432,5.312,90.855-1.16,117.924-34.267
			c25.375-31.029,25.832-78.062,54.277-106.303c30.055-29.837,80.4-28.021,113.824-54.04c39.36-30.636,42.541-87.447,57.408-135.061
			c21.394-68.496,71.254-123.779,119.722-176.699c11.475-12.527,26.815-26.262,43.147-21.572
			c17.902,5.137,22.539,27.916,23.951,46.486c11.246,148.094,22.494,296.184,33.741,444.273
			c5.062,66.641,8.14,140.251-33.135,192.814c-48.116,61.271-136.229,69.435-214.07,72.607
			c-101.476,4.137-202.952,8.271-304.423,12.408c-55.893,2.277-112.51,4.498-167.174-7.383
			c-60.135-13.07-162.121-55.663-137.34-130.29C-65.401,865.527,5.899,812.826,77.476,811.605z"/>
		<g opacity="0.2">
			<circle fill="#231F20" cx="477.71" cy="756.004" r="41.25"/>
			<g>
				<path fill="#231F20" d="M477.71,710.629c25.06,0,45.375,20.315,45.375,45.375s-20.315,45.375-45.375,45.375
					c-25.061,0-45.375-20.315-45.375-45.375S452.649,710.629,477.71,710.629 M477.71,704.629c-28.328,0-51.375,23.047-51.375,51.375
					s23.047,51.375,51.375,51.375s51.375-23.047,51.375-51.375S506.038,704.629,477.71,704.629L477.71,704.629z"/>
			</g>
		</g>
		<path fill="#FFFFFF" d="M546.017,615.229c0,0,1.365,3.158,2.162,3.954c0.797,0.797,3.954,2.163,3.954,2.163
			s-3.157,1.366-3.954,2.163s-2.162,3.954-2.162,3.954s-1.367-3.157-2.164-3.954c-0.796-0.797-3.954-2.163-3.954-2.163
			s3.158-1.366,3.954-2.163C544.649,618.388,546.017,615.229,546.017,615.229z"/>
		<path fill="#FFFFFF" d="M576.003,693.157c0,0,1.917,4.432,3.034,5.549c1.118,1.119,5.549,3.035,5.549,3.035
			s-4.431,1.916-5.549,3.035c-1.117,1.117-3.034,5.548-3.034,5.548s-1.917-4.431-3.034-5.548c-1.119-1.119-5.549-3.035-5.549-3.035
			s4.43-1.916,5.549-3.035C574.086,697.589,576.003,693.157,576.003,693.157z"/>
	</g>
</g>
<g>
	<text transform="matrix(1 0 0 1 61.0913 420.9883)" fill="#FFFFFF" font-family="'Montserrat-Bold'" font-size="25.92">You’ve received $10 from $Krupp!</text>
</g>
<g>
	<text transform="matrix(1 0 0 1 157.8628 457.9746)" fill="#FFFFFF" font-family="'Montserrat-Medium'" font-size="18.72">Hi Brandon. Get the tickets!</text>
</g>
<g>
	<path fill="#FFFFFF" d="M335.024,332.035c-1.152,4.297,0.749,9.856-1.426,13.622c-2.21,3.809-8,4.932-11.088,8.027
		c-3.104,3.097-4.22,8.885-8.035,11.095c-3.766,2.176-9.324,0.274-13.623,1.426c-4.146,1.109-8.006,5.566-12.506,5.566
		s-8.359-4.457-12.507-5.566c-4.298-1.151-9.857,0.75-13.622-1.426c-3.816-2.21-4.932-7.998-8.035-11.095
		c-3.097-3.096-8.878-4.219-11.088-8.027c-2.174-3.766-0.273-9.325-1.426-13.622c-1.109-4.155-5.565-8.008-5.565-12.508
		s4.456-8.358,5.565-12.506c1.152-4.299-0.749-9.865,1.426-13.622c2.21-3.816,7.992-4.939,11.095-8.035
		c3.096-3.097,4.212-8.885,8.028-11.088c3.765-2.175,9.324-0.281,13.622-1.427c4.148-1.107,8.007-5.565,12.507-5.565
		s8.359,4.458,12.506,5.565c4.299,1.146,9.857-0.748,13.623,1.427c3.815,2.203,4.932,7.991,8.035,11.088
		c3.096,3.096,8.885,4.219,11.088,8.035c2.175,3.757,0.273,9.323,1.426,13.622c1.108,4.147,5.565,8.006,5.565,12.506
		S336.133,327.88,335.024,332.035z"/>
	<polygon fill="#21CA8A" points="306.864,311.111 282.543,334.461 269.785,321.703 274.127,317.354 282.629,325.857 302.61,306.676 
			"/>
</g>
<path fill="#21CA8A" d="M410.581,536.278c0,14.025-11.376,25.401-25.402,25.401H192.011c-14.025,0-25.402-11.376-25.402-25.401
	c0-7.021,2.844-13.37,7.437-17.964c4.601-4.602,10.952-7.445,17.965-7.445h193.168C399.205,510.869,410.581,522.245,410.581,536.278
	z"/>
<g>
	<path fill="#21CA8A" stroke="#FFFFFF" stroke-width="3" stroke-miterlimit="10" d="M410.581,536.278
		c0,14.025-11.376,25.401-25.402,25.401H192.011c-14.025,0-25.402-11.376-25.402-25.401c0-7.021,2.844-13.37,7.437-17.964
		c4.601-4.602,10.952-7.445,17.965-7.445h193.168C399.205,510.869,410.581,522.245,410.581,536.278z"/>
	<g>
		<text transform="matrix(1 0 0 1 217.5933 541.8711)" fill="#FFFFFF" font-family="'Montserrat-Bold'" font-size="17.28">Connect HandCash</text>
	</g>
	<path fill="#FFFFFF" d="M192.73,523.045l1.057,3.949c3.335,0.066,6.417,1.94,7.997,4.905l-4.737,1.27
		c-0.53-0.588-1.204-1.031-1.949-1.286c-0.842-0.287-1.775-0.338-2.7-0.09c-1.077,0.289-1.962,0.934-2.566,1.774
		c-0.781,1.091-1.088,2.511-0.713,3.908c0.375,1.397,1.349,2.475,2.573,3.028c0.942,0.426,2.032,0.54,3.109,0.252
		c0.923-0.248,1.708-0.757,2.292-1.427c0.445-0.509,0.775-1.111,0.963-1.763l4.826-1.292c0.001,3.242-1.709,6.27-4.479,7.942
		l1.058,3.95c5.565-2.737,8.61-9.105,6.943-15.323S198.917,522.631,192.73,523.045z M184.637,538.677
		c-1.06-3.958,0.605-8.005,3.844-10.146l-1.067-3.983c-5.359,2.819-8.252,9.062-6.619,15.159c1.634,6.096,7.262,10.056,13.313,9.817
		l-1.069-3.983C189.162,545.307,185.697,542.635,184.637,538.677z"/>
</g>
<g>
	<path fill="#FFFFFF" d="M67.215,55.117v-0.002l-1.029-2.022v-0.001l-1.129-2.223h-0.002l-1.033-2.034l-1.916-3.767l-1.324-2.607
		l-0.188-0.375l-1.295-2.544v-0.001h-0.001l-0.419-0.826l-0.499-0.981l0.002-0.001h-0.002l-1.006-1.977l-0.021-0.045l-3.492,2.634
		h-0.002l-0.557,0.419l-1.766,1.332h-0.002l-2.144,1.618h-0.002l-2.146-1.618l-1.766-1.332h-0.002l-0.555-0.419h-0.002l-3.492-2.635
		l-0.002-0.002l-0.002,0.002l0.002,0.001l-0.027,0.053l-1,1.969l-0.504,0.992l-0.415,0.817l-1.293,2.544h-0.002l-0.188,0.373v0.002
		l-1.325,2.605v0.002l-1.916,3.767l-1.032,2.034h-0.002l-1.129,2.223l-1.029,2.023l-0.013,0.026l0.068,0.015l5.722,4.314
		l10.109,7.619l1.94,1.463l1.933-1.455l2.084-1.572l8.036-6.055l5.722-4.314l0.065-0.015L67.215,55.117z M59.456,45.068v0.002
		l1.325,2.605v0.002l0.855,1.682l1.033,2.033l0.275,0.539l-3.129-2.355L57.9,48.133v-0.002l-1.274-0.961l0.202-0.763l1.138-4.27
		L59.456,45.068z M54.406,40.729v-0.002l2.057-1.547l-0.779,2.924l-0.967,3.629l-3.473-2.621L54.406,40.729z M44.371,40.727
		l3.162,2.385l-3.48,2.625l-0.969-3.633l-0.775-2.914l0.006-0.012l2.055,1.549H44.371z M36.105,51.393l1.032-2.033l0.856-1.684
		l1.325-2.607l1.485-2.921l1.135,4.26l0.205,0.767l-1.27,0.957v0.002l-1.916,1.443l-3.129,2.355L36.105,51.393z M39.193,58.07
		h-0.002l-1.854-1.398l-2.041-1.537l4.688-3.537h0.002l1.916-1.443v-0.002l0.86-0.648l3.751,14.088L39.193,58.07z M49.383,65.754
		l-4.711-17.689l0.82-0.617l1.855-1.396l0.697-0.527l0.035-0.026l0.06-0.044l0.327-0.247l0.921-0.696h0.002l1.247,0.943l0.061,0.044
		l0.035,0.026l0.697,0.527l0.268,0.2l0.115,0.087l0.086,0.064l0.223,0.168l0.075,0.057l0.249,0.189l0.84,0.631l0.813,0.612
		l-4.713,17.696L49.383,65.754z M61.438,56.672l-1.855,1.398l-6.795,5.124l-0.537,0.403l3.755-14.1l0.867,0.654l1.918,1.445
		l4.688,3.535L61.438,56.672z"/>
	
		<text transform="matrix(1 0 0 1 78.4063 61.3008)" fill="#FFFFFF" font-family="'MontserratAlternates-Medium'" font-size="30.4521">mitto</text>
</g>
<g>
	<defs>
		<rect id="SVGID_12_" y="775.2" width="576" height="768"/>
	</defs>
	<clipPath id="SVGID_4_">
		<use xlink:href="#SVGID_12_"  overflow="visible"/>
	</clipPath>
	<g clip-path="url(#SVGID_4_)">
		<g>
			<path fill="#1345CE" d="M-584.096,1055.894c40.058,22.872,90.153,21.207,134.371,8.073c44.218-13.133,84.498-36.624,126.17-56.4
				c41.674-19.776,86.656-36.223,132.711-33.652c36.282,2.023,70.779,15.705,106.324,23.256
				c35.55,7.547,75.574,8.039,104.925-13.389c31.794-23.218,45.729-68.294,82.225-83.062c39.671-16.052,87.19,11.905,126.712-4.515
				c33.684-13.993,47.771-58.15,35.797-92.604c-11.97-34.457-44.113-58.826-78.626-70.632
				c-34.517-11.802-71.634-12.909-108.099-13.903c-130.856-3.563-261.713-7.126-392.569-10.689
				c-79.155-2.156-162.238-3.461-232.538,32.98c-53.593,27.783-99.045,86.798-98.313,149.184
				C-644.353,946.24-638.218,1024.988-584.096,1055.894z"/>
		</g>
	</g>
</g>
</svg>
