<?xml version="1.0" encoding="utf-8"?>
<!-- Generator: Adobe Illustrator 16.0.0, SVG Export Plug-In . SVG Version: 6.00 Build 0)  -->
<!DOCTYPE svg PUBLIC "-//W3C//DTD SVG 1.1//EN" "http://www.w3.org/Graphics/SVG/1.1/DTD/svg11.dtd">
<svg version="1.1" id="Layer_1" xmlns="http://www.w3.org/2000/svg" xmlns:xlink="http://www.w3.org/1999/xlink" x="0px" y="0px"
	 width="576px" height="768px" viewBox="0 0 576 768" enable-background="new 0 0 576 768" xml:space="preserve">
<g>
	<defs>
		<rect id="SVGID_7_" y="-775.2" width="576" height="768"/>
	</defs>
	<clipPath id="SVGID_2_">
		<use xlink:href="#SVGID_7_"  overflow="visible"/>
	</clipPath>
	<g clip-path="url(#SVGID_2_)">
		<path fill="#1345CE" d="M77.476,36.405c42.758-0.73,84.203,13.793,126.639,19.104c42.432,5.311,90.855-1.16,117.924-34.268
			C347.413-9.788,347.87-56.82,376.315-85.061c30.055-29.837,80.4-28.021,113.824-54.04c39.36-30.636,42.541-87.447,57.408-135.06
			c21.394-68.497,71.254-123.78,119.722-176.7c11.475-12.527,26.815-26.262,43.147-21.572c17.902,5.137,22.539,27.916,23.951,46.486
			c11.246,148.094,22.494,296.184,33.741,444.274c5.062,66.641,8.14,140.25-33.135,192.814
			c-48.116,61.271-136.229,69.434-214.07,72.607c-101.476,4.137-202.952,8.271-304.423,12.408
			c-55.893,2.277-112.51,4.498-167.174-7.383c-60.135-13.07-162.121-55.664-137.34-130.291
			C-65.401,90.327,5.899,37.626,77.476,36.405z"/>
		<g opacity="0.2">
			<circle fill="#231F20" cx="477.71" cy="-19.197" r="41.25"/>
			<g>
				<path fill="#231F20" d="M477.71-64.572c25.06,0,45.375,20.315,45.375,45.375c0,25.059-20.315,45.375-45.375,45.375
					c-25.061,0-45.375-20.316-45.375-45.375C432.335-44.256,452.649-64.572,477.71-64.572 M477.71-70.572
					c-28.328,0-51.375,23.047-51.375,51.375c0,28.329,23.047,51.375,51.375,51.375s51.375-23.047,51.375-51.375
					C529.085-47.525,506.038-70.572,477.71-70.572L477.71-70.572z"/>
			</g>
		</g>
	</g>
</g>
<g>
	<text transform="matrix(1 0 0 1 62.9897 411.1748)" font-family="'Montserrat-Bold'" font-size="25.92">Sorry, this content isn’t available.</text>
</g>
<g>
	<text transform="matrix(1 0 0 1 41.6279 464.7354)" fill="#5A728A" font-family="'Montserrat-Medium'" font-size="18.72">The link you followed may be broken or has expired.</text>
</g>
<g>
	<path fill="#3861FB" d="M335.746,493.464v17.738c0,4.9-3.97,8.869-8.879,8.869h-77.744c-4.9,0-8.869-3.969-8.869-8.869v-17.738
		c0-4.901,3.968-8.879,8.869-8.879h77.744C331.776,484.585,335.746,488.563,335.746,493.464z"/>
	<g>
		<text transform="matrix(1 0 0 1 264.563 506.3721)" fill="#FFFFFF" font-family="'Montserrat-SemiBold'" font-size="11.383">Go Back</text>
	</g>
</g>
<g>
	<g>
		
			<linearGradient id="SVGID_4_" gradientUnits="userSpaceOnUse" x1="1.2495" y1="-289.0532" x2="1.2495" y2="-175.1001" gradientTransform="matrix(1 0 0 -1 287 72.7988)">
			<stop  offset="0" style="stop-color:#FD3A84"/>
			<stop  offset="1" style="stop-color:#FFA68D"/>
		</linearGradient>
		<path fill="url(#SVGID_4_)" d="M310.468,361.853h-44.436c-0.885,0-1.734-0.353-2.36-0.979l-31.421-31.42
			c-0.627-0.627-0.979-1.477-0.979-2.361v-44.436c0-0.885,0.352-1.734,0.979-2.36l31.421-31.421c0.626-0.625,1.476-0.977,2.36-0.977
			h44.436c0.885,0,1.733,0.352,2.36,0.977l31.42,31.421c0.626,0.626,0.979,1.476,0.979,2.36v44.436c0,0.885-0.352,1.734-0.979,2.361
			l-31.419,31.42C312.201,361.5,311.353,361.853,310.468,361.853L310.468,361.853z"/>
	</g>
	<g>
		<path fill="#FFFFFF" d="M289.131,321.771c3.051,0,5.492-2.441,5.492-5.595v-41.104c0-3.052-2.441-5.596-5.492-5.596
			c-3.054,0-5.597,2.544-5.597,5.596v41.104C283.534,319.329,286.077,321.771,289.131,321.771z"/>
		<circle fill="#FFFFFF" cx="289.078" cy="335.308" r="5.545"/>
	</g>
</g>
<g>
	<defs>
		<rect id="SVGID_10_" y="775.2" width="576" height="768"/>
	</defs>
	<clipPath id="SVGID_6_">
		<use xlink:href="#SVGID_10_"  overflow="visible"/>
	</clipPath>
	<g clip-path="url(#SVGID_6_)">
		<g>
			<path fill="#21A875" d="M-584.096,1055.894c40.058,22.872,90.153,21.207,134.371,8.073c44.218-13.133,84.498-36.624,126.17-56.4
				c41.674-19.776,86.656-36.223,132.711-33.652c36.282,2.023,70.779,15.705,106.324,23.256
				c35.55,7.547,75.574,8.039,104.925-13.389c31.794-23.218,45.729-68.294,82.225-83.062c39.671-16.052,87.19,11.905,126.712-4.515
				c33.684-13.993,47.771-58.15,35.797-92.604c-11.97-34.457-44.113-58.826-78.626-70.632
				c-34.517-11.802-71.634-12.909-108.099-13.903c-130.856-3.563-261.713-7.126-392.569-10.689
				c-79.155-2.156-162.238-3.461-232.538,32.98c-53.593,27.783-99.045,86.798-98.313,149.184
				C-644.353,946.24-638.218,1024.988-584.096,1055.894z"/>
		</g>
	</g>
</g>
</svg>
