<?xml version="1.0" encoding="utf-8"?>
<!-- Generator: Adobe Illustrator 16.0.0, SVG Export Plug-In . SVG Version: 6.00 Build 0)  -->
<!DOCTYPE svg PUBLIC "-//W3C//DTD SVG 1.1//EN" "http://www.w3.org/Graphics/SVG/1.1/DTD/svg11.dtd">
<svg version="1.1" id="Layer_1" xmlns="http://www.w3.org/2000/svg" xmlns:xlink="http://www.w3.org/1999/xlink" x="0px" y="0px"
	 width="576px" height="768px" viewBox="0 0 576 768" enable-background="new 0 0 576 768" xml:space="preserve">
<g>
	<defs>
		<rect id="SVGID_10_" y="-775.2" width="576" height="768"/>
	</defs>
	<clipPath id="SVGID_2_">
		<use xlink:href="#SVGID_10_"  overflow="visible"/>
	</clipPath>
	<g clip-path="url(#SVGID_2_)">
		<path fill="#21A875" d="M77.476,36.405c42.758-0.729,84.203,13.793,126.639,19.104c42.432,5.312,90.855-1.16,117.924-34.267
			c25.375-31.029,25.832-78.062,54.277-106.303c30.055-29.837,80.4-28.021,113.824-54.04c39.36-30.636,42.541-87.447,57.408-135.061
			c21.394-68.496,71.254-123.779,119.722-176.699c11.475-12.527,26.815-26.262,43.147-21.572
			c17.902,5.137,22.539,27.916,23.951,46.486c11.246,148.094,22.494,296.184,33.741,444.273
			c5.062,66.641,8.14,140.251-33.135,192.814c-48.116,61.271-136.229,69.435-214.07,72.607
			c-101.476,4.137-202.952,8.271-304.423,12.408c-55.893,2.277-112.51,4.498-167.174-7.383
			c-60.135-13.07-162.121-55.663-137.34-130.29C-65.401,90.327,5.899,37.626,77.476,36.405z"/>
		<g opacity="0.2">
			<circle fill="#231F20" cx="477.71" cy="-19.196" r="41.25"/>
			<g>
				<path fill="#231F20" d="M477.71-64.571c25.06,0,45.375,20.315,45.375,45.375S502.77,26.179,477.71,26.179
					c-25.061,0-45.375-20.315-45.375-45.375S452.649-64.571,477.71-64.571 M477.71-70.571c-28.328,0-51.375,23.047-51.375,51.375
					s23.047,51.375,51.375,51.375s51.375-23.047,51.375-51.375S506.038-70.571,477.71-70.571L477.71-70.571z"/>
			</g>
		</g>
	</g>
</g>
<g>
	<defs>
		<rect id="SVGID_12_" width="576" height="768"/>
	</defs>
	<clipPath id="SVGID_4_">
		<use xlink:href="#SVGID_12_"  overflow="visible"/>
	</clipPath>
	<g clip-path="url(#SVGID_4_)">
		<g>
			<path fill="#1345CE" d="M-584.096,280.693c40.058,22.872,90.153,21.207,134.371,8.073c44.218-13.133,84.498-36.624,126.17-56.4
				c41.674-19.776,86.656-36.223,132.711-33.652c36.282,2.023,70.779,15.705,106.324,23.256
				c35.55,7.547,75.574,8.039,104.925-13.389c31.794-23.218,45.729-68.294,82.225-83.062c39.671-16.052,87.19,11.905,126.712-4.515
				c33.684-13.993,47.771-58.15,35.797-92.604c-11.97-34.457-44.113-58.826-78.626-70.632
				C151.995-54.032,114.878-55.14,78.413-56.134C-52.443-59.696-183.3-63.26-314.156-66.823
				c-79.155-2.156-162.238-3.461-232.538,32.98c-53.593,27.783-99.045,86.798-98.313,149.184
				C-644.353,171.04-638.218,249.788-584.096,280.693z"/>
		</g>
		<path opacity="0.5" fill="#F1F1F2" d="M93.987,89.484c0,0,3.158-1.365,3.954-2.162c0.797-0.797,2.163-3.953,2.163-3.953
			s1.366,3.156,2.163,3.953s3.954,2.162,3.954,2.162s-3.157,1.367-3.954,2.164s-2.163,3.955-2.163,3.955s-1.366-3.158-2.163-3.955
			C97.146,90.852,93.987,89.484,93.987,89.484z"/>
		<circle opacity="0.5" fill="#F1F1F2" cx="34.208" cy="103.236" r="2.146"/>
		<circle opacity="0.5" fill="#F1F1F2" cx="190.192" cy="85.779" r="2.146"/>
		<g opacity="0.2">
			<path fill="#FFFFFF" d="M-2.922,170.307c4.862,0,8.805,3.941,8.805,8.805c0,4.861-3.942,8.804-8.805,8.804
				s-8.805-3.942-8.805-8.804C-11.727,174.248-7.784,170.307-2.922,170.307 M-2.922,166.307c-7.061,0-12.805,5.744-12.805,12.805
				s5.744,12.804,12.805,12.804s12.805-5.743,12.805-12.804S4.139,166.307-2.922,166.307L-2.922,166.307z"/>
		</g>
	</g>
	<g clip-path="url(#SVGID_4_)">
		<path fill="#1345CE" d="M77.476,811.605c42.758-0.729,84.203,13.793,126.639,19.104c42.432,5.312,90.855-1.16,117.924-34.267
			c25.375-31.029,25.832-78.062,54.277-106.303c30.055-29.837,80.4-28.021,113.824-54.04c39.36-30.636,42.541-87.447,57.408-135.061
			c21.394-68.496,71.254-123.779,119.722-176.699c11.475-12.527,26.815-26.262,43.147-21.572
			c17.902,5.137,22.539,27.916,23.951,46.486c11.246,148.094,22.494,296.184,33.741,444.273
			c5.062,66.641,8.14,140.251-33.135,192.814c-48.116,61.271-136.229,69.435-214.07,72.607
			c-101.476,4.137-202.952,8.271-304.423,12.408c-55.893,2.277-112.51,4.498-167.174-7.383
			c-60.135-13.07-162.121-55.663-137.34-130.29C-65.401,865.527,5.899,812.826,77.476,811.605z"/>
		<g opacity="0.2">
			<circle fill="#231F20" cx="477.71" cy="756.004" r="41.25"/>
			<g>
				<path fill="#231F20" d="M477.71,710.629c25.06,0,45.375,20.315,45.375,45.375s-20.315,45.375-45.375,45.375
					c-25.061,0-45.375-20.315-45.375-45.375S452.649,710.629,477.71,710.629 M477.71,704.629c-28.328,0-51.375,23.047-51.375,51.375
					s23.047,51.375,51.375,51.375s51.375-23.047,51.375-51.375S506.038,704.629,477.71,704.629L477.71,704.629z"/>
			</g>
		</g>
		<path fill="#FFFFFF" d="M546.017,615.229c0,0,1.365,3.158,2.162,3.954c0.797,0.797,3.954,2.163,3.954,2.163
			s-3.157,1.366-3.954,2.163s-2.162,3.954-2.162,3.954s-1.367-3.157-2.164-3.954c-0.796-0.797-3.954-2.163-3.954-2.163
			s3.158-1.366,3.954-2.163C544.649,618.388,546.017,615.229,546.017,615.229z"/>
		<path fill="#FFFFFF" d="M576.003,693.157c0,0,1.917,4.432,3.034,5.549c1.118,1.119,5.549,3.035,5.549,3.035
			s-4.431,1.916-5.549,3.035c-1.117,1.117-3.034,5.548-3.034,5.548s-1.917-4.431-3.034-5.548c-1.119-1.119-5.549-3.035-5.549-3.035
			s4.43-1.916,5.549-3.035C574.086,697.589,576.003,693.157,576.003,693.157z"/>
	</g>
</g>
<g>
	<path fill="#FFFFFF" d="M67.215,55.117v-0.002l-1.029-2.022v-0.001l-1.129-2.223h-0.002l-1.033-2.034l-1.916-3.767l-1.324-2.607
		l-0.188-0.375l-1.295-2.544v-0.001h-0.001l-0.419-0.826l-0.499-0.981l0.002-0.001h-0.002l-1.006-1.977l-0.021-0.045l-3.492,2.634
		h-0.002l-0.557,0.419l-1.766,1.332h-0.002l-2.144,1.618h-0.002l-2.146-1.618l-1.766-1.332h-0.002l-0.555-0.419h-0.002l-3.492-2.635
		l-0.002-0.002l-0.002,0.002l0.002,0.001l-0.027,0.053l-1,1.969l-0.504,0.992l-0.415,0.817l-1.293,2.544h-0.002l-0.188,0.373v0.002
		l-1.325,2.605v0.002l-1.916,3.767l-1.032,2.034h-0.002l-1.129,2.223l-1.029,2.023l-0.013,0.026l0.068,0.015l5.722,4.314
		l10.109,7.619l1.94,1.463l1.933-1.455l2.084-1.572l8.036-6.055l5.722-4.314l0.065-0.015L67.215,55.117z M59.456,45.068v0.002
		l1.325,2.605v0.002l0.855,1.682l1.033,2.033l0.275,0.539l-3.129-2.355L57.9,48.133v-0.002l-1.274-0.961l0.202-0.763l1.138-4.27
		L59.456,45.068z M54.406,40.729v-0.002l2.057-1.547l-0.779,2.924l-0.967,3.629l-3.473-2.621L54.406,40.729z M44.371,40.727
		l3.162,2.385l-3.48,2.625l-0.969-3.633l-0.775-2.914l0.006-0.012l2.055,1.549H44.371z M36.105,51.393l1.032-2.033l0.856-1.684
		l1.325-2.607l1.485-2.921l1.135,4.26l0.205,0.767l-1.27,0.957v0.002l-1.916,1.443l-3.129,2.355L36.105,51.393z M39.193,58.07
		h-0.002l-1.854-1.398l-2.041-1.537l4.688-3.537h0.002l1.916-1.443v-0.002l0.86-0.648l3.751,14.088L39.193,58.07z M49.383,65.754
		l-4.711-17.689l0.82-0.617l1.855-1.396l0.697-0.527l0.035-0.026l0.06-0.044l0.327-0.247l0.921-0.696h0.002l1.247,0.943l0.061,0.044
		l0.035,0.026l0.697,0.527l0.268,0.2l0.115,0.087l0.086,0.064l0.223,0.168l0.075,0.057l0.249,0.189l0.84,0.631l0.813,0.612
		l-4.713,17.696L49.383,65.754z M61.438,56.672l-1.855,1.398l-6.795,5.124l-0.537,0.403l3.755-14.1l0.867,0.654l1.918,1.445
		l4.688,3.535L61.438,56.672z"/>
	
		<text transform="matrix(1 0 0 1 78.4063 61.2998)" fill="#FFFFFF" font-family="'MontserratAlternates-Medium'" font-size="30.4521">mitto</text>
</g>
<g>
	<path fill="#FFFFFF" stroke="#E6E7E8" stroke-width="0.75" stroke-miterlimit="10" d="M460.367,416.439
		c0,5.529-4.483,10.013-10.013,10.013H170.004c-5.529,0-10.013-4.483-10.013-10.013v-20.024c0-5.529,4.483-10.013,10.013-10.013
		h280.351c5.529,0,10.013,4.483,10.013,10.013V416.439z"/>
	<path fill="#FFFFFF" stroke="#E6E7E8" stroke-width="0.75" stroke-miterlimit="10" d="M460.367,467.79
		c0,5.529-4.483,10.013-10.013,10.013H170.004c-5.529,0-10.013-4.483-10.013-10.013v-20.025c0-5.529,4.483-10.013,10.013-10.013
		h280.351c5.529,0,10.013,4.483,10.013,10.013V467.79z"/>
	<g>
		<text transform="matrix(1 0 0 1 172.5757 410.9355)" fill="#A6B0C3" font-family="'Montserrat-Medium'" font-size="12.6">Enter recepient’s email address</text>
	</g>
	<g>
		<text transform="matrix(1 0 0 1 173.626 462.2764)" fill="#A6B0C3" font-family="'Montserrat-Medium'" font-size="12.6">Enter amount</text>
	</g>
	<path fill="#FFFFFF" stroke="#E6E7E8" stroke-width="0.75" stroke-miterlimit="10" d="M460.367,519.14
		c0,5.529-4.483,10.013-10.013,10.013H170.004c-5.529,0-10.013-4.483-10.013-10.013v-20.024c0-5.529,4.483-10.013,10.013-10.013
		h280.351c5.529,0,10.013,4.483,10.013,10.013V519.14z"/>
	<g>
		<text transform="matrix(1 0 0 1 175.0098 513.6172)" fill="#A6B0C3" font-family="'Montserrat-Medium'" font-size="12.6">Add a description</text>
	</g>
	<path fill="#5A728A" d="M136.014,399.052h-18.837c-1.584,0-2.871,1.296-2.871,2.871v12.096c0,1.585,1.287,2.871,2.871,2.871h18.837
		c1.584,0,2.872-1.286,2.872-2.871v-12.096C138.885,400.348,137.598,399.052,136.014,399.052z M136.437,400.483l-9.845,7.604
		l-9.847-7.604H136.437z M137.454,414.019c0,0.802-0.648,1.449-1.44,1.449h-18.837c-0.801,0-1.448-0.647-1.448-1.449V401.49
		l10.431,8.056c0.243,0.197,0.621,0.197,0.874,0l10.421-8.056V414.019z"/>
	<path fill="#5A728A" d="M137.978,500.206c-1.03-1.525-3.103-1.927-4.629-0.896l-15.493,10.464
		c-0.106,0.071-0.192,0.169-0.249,0.283l-2.9,5.831c-0.12,0.239-0.101,0.524,0.049,0.744c0.149,0.222,0.405,0.346,0.672,0.325
		l6.491-0.515c0.128-0.009,0.25-0.052,0.357-0.124l15.493-10.463c1.524-1.033,1.926-3.104,0.896-4.629L137.978,500.206z
		 M119.35,510.554l12.679-8.564l2.762,4.089l-12.68,8.563L119.35,510.554z M118.4,511.792l2.206,3.269l-3.99,0.315L118.4,511.792z
		 M136.94,504.627l-0.92,0.622l-2.762-4.09l0.92-0.621c0.848-0.572,1.999-0.35,2.571,0.497l0.689,1.021
		C138.01,502.904,137.788,504.055,136.94,504.627z"/>
	<g>
		<path fill="#5A728A" d="M137.984,452.397c-0.057-1.351-0.989-2.479-2.242-2.831l-0.001-0.005
			c-0.264-0.077-0.543-0.117-0.831-0.117h-0.636c0,0,0.001,0.006,0.002,0.007H118.28c-0.601,0-1.164,0.175-1.638,0.475v-0.007
			c-0.864,0.545-1.438,1.509-1.438,2.602v11.521c0,1.096,0.574,2.057,1.438,2.604c0.475,0.3,1.037,0.474,1.638,0.474h16.63
			c0.288,0,0.566-0.039,0.831-0.114c1.256-0.353,2.189-1.484,2.243-2.839c0.002-0.041,0.002-0.08,0.002-0.124v-11.521
			C137.987,452.48,137.986,452.438,137.984,452.397z M134.911,465.682h-16.63c-0.891,0-1.621-0.718-1.638-1.605
			c0-0.014,0-0.027,0-0.042v-11.514c0-0.011,0-0.022,0-0.034c0.022-0.885,0.749-1.597,1.638-1.597h16.63
			c0.89,0,1.616,0.712,1.639,1.597c0,0.012,0,0.023,0,0.034v2.516h-4.583c-1.8,0-3.267,1.452-3.293,3.245c0,0.016,0,0.033,0,0.049
			c0,1.816,1.477,3.293,3.293,3.293h4.583v2.411c0,0.015,0,0.028,0,0.042C136.532,464.964,135.803,465.682,134.911,465.682z
			 M130.112,458.283v-0.002c0.026-1.002,0.849-1.808,1.855-1.808h4.583v3.713h-4.583c-1.024,0-1.855-0.833-1.855-1.856
			C130.112,458.314,130.112,458.299,130.112,458.283z"/>
		<circle fill="#5A728A" cx="132.234" cy="458.384" r="0.749"/>
	</g>
</g>
<g>
	<path fill="#21CA8A" d="M337.209,590.313c0,10.872-8.82,19.692-19.692,19.692H257.83c-10.881,0-19.702-8.82-19.702-19.692
		c0-5.444,2.205-10.368,5.769-13.932c3.564-3.564,8.487-5.77,13.933-5.77h59.687C328.389,570.612,337.209,579.433,337.209,590.313z"
		/>
	<g>
		<text transform="matrix(1 0 0 1 280.8813 594.4863)" fill="#FFFFFF" font-family="'Montserrat-SemiBold'" font-size="12.6478">Send</text>
	</g>
	<path fill="#FFFFFF" d="M273.663,583.483l-1.874,12.607c-0.024,0.149-0.111,0.283-0.241,0.362
		c-0.081,0.049-0.172,0.074-0.267,0.074c-0.055,0-0.11-0.01-0.166-0.027l-4.373-1.495l-1.846,2.515
		c-0.098,0.134-0.251,0.208-0.413,0.208c-0.053,0-0.105-0.008-0.158-0.025c-0.211-0.069-0.352-0.265-0.352-0.485v-3.159h-0.002
		l0.002-0.002l7.025-8.463l-9.081,7.764l-4.264-1.458c-0.191-0.063-0.327-0.239-0.343-0.443c-0.016-0.205,0.091-0.398,0.272-0.493
		l15.335-8.009c0.171-0.09,0.377-0.073,0.532,0.037C273.61,583.102,273.69,583.292,273.663,583.483z"/>
</g>
<g>
	<path fill="#21CA8A" d="M544.634,52.555c0,9.664-7.84,17.504-17.504,17.504h-53.056c-9.672,0-17.512-7.84-17.512-17.504
		c0-4.84,1.959-9.216,5.127-12.384s7.545-5.128,12.385-5.128h53.056C536.794,35.043,544.634,42.883,544.634,52.555z"/>
	<g>
		<text transform="matrix(1 0 0 1 490.3271 56.2646)" fill="#FFFFFF" font-family="'Montserrat-SemiBold'" font-size="11.2425">$ 10</text>
	</g>
</g>
<g>
	<path fill="#FFFFFF" stroke="#E6E7E8" stroke-width="0.75" stroke-miterlimit="10" d="M446.138,52.555
		c0,9.664-7.84,17.504-17.504,17.504h-53.056c-9.672,0-17.512-7.84-17.512-17.504c0-4.84,1.959-9.216,5.127-12.384
		s7.545-5.128,12.385-5.128h53.056C438.298,35.043,446.138,42.883,446.138,52.555z"/>
	<text transform="matrix(1 0 0 1 407.8604 56.2646)" fill="#5A728A" font-family="'Montserrat-SemiBold'" font-size="11.2425">USD</text>
	<g id="USA_2_">
		<g>
			<g>
				<defs>
					<rect id="SVGID_14_" x="374.02" y="45.035" width="26.402" height="15.399"/>
				</defs>
				<clipPath id="SVGID_6_">
					<use xlink:href="#SVGID_14_"  overflow="visible"/>
				</clipPath>
				<rect x="374.02" y="59.25" clip-path="url(#SVGID_6_)" fill="#CB001C" width="26.402" height="1.185"/>
				<rect x="374.02" y="58.065" clip-path="url(#SVGID_6_)" fill="#FFFFFF" width="26.402" height="1.185"/>
				<rect x="374.02" y="56.883" clip-path="url(#SVGID_6_)" fill="#CB001C" width="26.402" height="1.183"/>
				<rect x="374.02" y="55.697" clip-path="url(#SVGID_6_)" fill="#FFFFFF" width="26.402" height="1.186"/>
				<rect x="374.02" y="54.512" clip-path="url(#SVGID_6_)" fill="#CB001C" width="26.402" height="1.186"/>
				<rect x="374.02" y="53.328" clip-path="url(#SVGID_6_)" fill="#FFFFFF" width="26.402" height="1.184"/>
				<rect x="374.02" y="52.142" clip-path="url(#SVGID_6_)" fill="#CB001C" width="26.402" height="1.187"/>
				<rect x="374.02" y="50.958" clip-path="url(#SVGID_6_)" fill="#FFFFFF" width="26.402" height="1.184"/>
				<rect x="374.02" y="49.774" clip-path="url(#SVGID_6_)" fill="#CB001C" width="26.402" height="1.184"/>
				<rect x="374.02" y="48.59" clip-path="url(#SVGID_6_)" fill="#FFFFFF" width="26.402" height="1.185"/>
				<rect x="374.02" y="47.403" clip-path="url(#SVGID_6_)" fill="#CB001C" width="26.402" height="1.187"/>
				<rect x="374.02" y="46.221" clip-path="url(#SVGID_6_)" fill="#FFFFFF" width="26.402" height="1.183"/>
				<rect x="374.02" y="45.035" clip-path="url(#SVGID_6_)" fill="#CB001C" width="26.402" height="1.186"/>
				<rect x="374.02" y="45.035" clip-path="url(#SVGID_6_)" fill="#2A3560" width="12.057" height="8.293"/>
				<polygon clip-path="url(#SVGID_6_)" fill="#FFFFFF" points="375.109,45.948 375.213,46.264 375.543,46.264 375.275,46.457 
					375.375,46.771 375.109,46.577 374.842,46.771 374.946,46.457 374.68,46.264 375.006,46.264 				"/>
				<polygon clip-path="url(#SVGID_6_)" fill="#FFFFFF" points="375.109,47.333 375.213,47.646 375.543,47.646 375.275,47.84 
					375.375,48.152 375.109,47.96 374.842,48.152 374.946,47.84 374.68,47.646 375.006,47.646 				"/>
				<polygon clip-path="url(#SVGID_6_)" fill="#FFFFFF" points="375.109,48.719 375.213,49.031 375.543,49.031 375.275,49.224 
					375.375,49.539 375.109,49.344 374.842,49.539 374.946,49.224 374.68,49.031 375.006,49.031 				"/>
				<polygon clip-path="url(#SVGID_6_)" fill="#FFFFFF" points="375.109,50.102 375.213,50.415 375.543,50.415 375.275,50.608 
					375.375,50.922 375.109,50.729 374.842,50.922 374.946,50.608 374.68,50.415 375.006,50.415 				"/>
				<polygon clip-path="url(#SVGID_6_)" fill="#FFFFFF" points="375.109,51.485 375.213,51.801 375.543,51.801 375.275,51.992 
					375.375,52.306 375.109,52.112 374.842,52.306 374.946,51.992 374.68,51.801 375.006,51.801 				"/>
				<polygon clip-path="url(#SVGID_6_)" fill="#FFFFFF" points="376.074,46.679 376.172,46.992 376.504,46.992 376.238,47.186 
					376.338,47.499 376.074,47.305 375.809,47.499 375.908,47.186 375.642,46.992 375.973,46.992 				"/>
				<polygon clip-path="url(#SVGID_6_)" fill="#FFFFFF" points="376.074,48.063 376.172,48.375 376.504,48.375 376.238,48.569 
					376.338,48.882 376.074,48.691 375.809,48.882 375.908,48.569 375.642,48.375 375.973,48.375 				"/>
				<polygon clip-path="url(#SVGID_6_)" fill="#FFFFFF" points="376.074,49.447 376.172,49.761 376.504,49.761 376.238,49.953 
					376.338,50.267 376.074,50.074 375.809,50.267 375.908,49.953 375.642,49.761 375.973,49.761 				"/>
				<polygon clip-path="url(#SVGID_6_)" fill="#FFFFFF" points="376.074,50.833 376.172,51.145 376.504,51.145 376.238,51.338 
					376.338,51.649 376.074,51.457 375.809,51.649 375.908,51.338 375.642,51.145 375.973,51.145 				"/>
				<polygon clip-path="url(#SVGID_6_)" fill="#FFFFFF" points="377.047,45.948 377.15,46.264 377.48,46.264 377.213,46.457 
					377.316,46.771 377.047,46.577 376.783,46.771 376.885,46.457 376.617,46.264 376.946,46.264 				"/>
				<polygon clip-path="url(#SVGID_6_)" fill="#FFFFFF" points="377.047,47.333 377.15,47.646 377.48,47.646 377.213,47.84 
					377.316,48.152 377.047,47.96 376.783,48.152 376.885,47.84 376.617,47.646 376.946,47.646 				"/>
				<polygon clip-path="url(#SVGID_6_)" fill="#FFFFFF" points="377.047,48.719 377.15,49.031 377.48,49.031 377.213,49.224 
					377.316,49.539 377.047,49.344 376.783,49.539 376.885,49.224 376.617,49.031 376.946,49.031 				"/>
				<polygon clip-path="url(#SVGID_6_)" fill="#FFFFFF" points="377.047,50.102 377.15,50.415 377.48,50.415 377.213,50.608 
					377.316,50.922 377.047,50.729 376.783,50.922 376.885,50.608 376.617,50.415 376.946,50.415 				"/>
				<polygon clip-path="url(#SVGID_6_)" fill="#FFFFFF" points="377.047,51.485 377.15,51.801 377.48,51.801 377.213,51.992 
					377.316,52.306 377.047,52.112 376.783,52.306 376.885,51.992 376.617,51.801 376.946,51.801 				"/>
				<polygon clip-path="url(#SVGID_6_)" fill="#FFFFFF" points="378.013,46.679 378.113,46.992 378.445,46.992 378.177,47.186 
					378.279,47.499 378.013,47.305 377.747,47.499 377.85,47.186 377.58,46.992 377.911,46.992 				"/>
				<polygon clip-path="url(#SVGID_6_)" fill="#FFFFFF" points="378.013,48.063 378.113,48.375 378.445,48.375 378.177,48.569 
					378.279,48.882 378.013,48.691 377.747,48.882 377.85,48.569 377.58,48.375 377.911,48.375 				"/>
				<polygon clip-path="url(#SVGID_6_)" fill="#FFFFFF" points="378.013,49.447 378.113,49.761 378.445,49.761 378.177,49.953 
					378.279,50.267 378.013,50.074 377.747,50.267 377.85,49.953 377.58,49.761 377.911,49.761 				"/>
				<polygon clip-path="url(#SVGID_6_)" fill="#FFFFFF" points="378.013,50.833 378.113,51.145 378.445,51.145 378.177,51.338 
					378.279,51.649 378.013,51.457 377.747,51.649 377.85,51.338 377.58,51.145 377.911,51.145 				"/>
				<polygon clip-path="url(#SVGID_6_)" fill="#FFFFFF" points="378.989,45.948 379.092,46.264 379.42,46.264 379.152,46.457 
					379.259,46.771 378.989,46.577 378.723,46.771 378.824,46.457 378.56,46.264 378.889,46.264 				"/>
				<polygon clip-path="url(#SVGID_6_)" fill="#FFFFFF" points="378.989,47.333 379.092,47.646 379.42,47.646 379.152,47.84 
					379.259,48.152 378.989,47.96 378.723,48.152 378.824,47.84 378.56,47.646 378.889,47.646 				"/>
				<polygon clip-path="url(#SVGID_6_)" fill="#FFFFFF" points="378.989,48.719 379.092,49.031 379.42,49.031 379.152,49.224 
					379.259,49.539 378.989,49.344 378.723,49.539 378.824,49.224 378.56,49.031 378.889,49.031 				"/>
				<polygon clip-path="url(#SVGID_6_)" fill="#FFFFFF" points="378.989,50.102 379.092,50.415 379.42,50.415 379.152,50.608 
					379.259,50.922 378.989,50.729 378.723,50.922 378.824,50.608 378.56,50.415 378.889,50.415 				"/>
				<polygon clip-path="url(#SVGID_6_)" fill="#FFFFFF" points="378.989,51.485 379.092,51.801 379.42,51.801 379.152,51.992 
					379.259,52.306 378.989,52.112 378.723,52.306 378.824,51.992 378.56,51.801 378.889,51.801 				"/>
				<polygon clip-path="url(#SVGID_6_)" fill="#FFFFFF" points="379.954,46.679 380.056,46.992 380.385,46.992 380.119,47.186 
					380.219,47.499 379.954,47.305 379.688,47.499 379.787,47.186 379.521,46.992 379.852,46.992 				"/>
				<polygon clip-path="url(#SVGID_6_)" fill="#FFFFFF" points="379.954,48.063 380.056,48.375 380.385,48.375 380.119,48.569 
					380.219,48.882 379.954,48.691 379.688,48.882 379.787,48.569 379.521,48.375 379.852,48.375 				"/>
				<polygon clip-path="url(#SVGID_6_)" fill="#FFFFFF" points="379.954,49.447 380.056,49.761 380.385,49.761 380.119,49.953 
					380.219,50.267 379.954,50.074 379.688,50.267 379.787,49.953 379.521,49.761 379.852,49.761 				"/>
				<polygon clip-path="url(#SVGID_6_)" fill="#FFFFFF" points="379.954,50.833 380.056,51.145 380.385,51.145 380.119,51.338 
					380.219,51.649 379.954,51.457 379.688,51.649 379.787,51.338 379.521,51.145 379.852,51.145 				"/>
				<polygon clip-path="url(#SVGID_6_)" fill="#FFFFFF" points="380.928,45.948 381.031,46.264 381.36,46.264 381.094,46.457 
					381.197,46.771 380.928,46.577 380.664,46.771 380.764,46.457 380.498,46.264 380.828,46.264 				"/>
				<polygon clip-path="url(#SVGID_6_)" fill="#FFFFFF" points="380.928,47.333 381.031,47.646 381.36,47.646 381.094,47.84 
					381.197,48.152 380.928,47.96 380.664,48.152 380.764,47.84 380.498,47.646 380.828,47.646 				"/>
				<polygon clip-path="url(#SVGID_6_)" fill="#FFFFFF" points="380.928,48.719 381.031,49.031 381.36,49.031 381.094,49.224 
					381.197,49.539 380.928,49.344 380.664,49.539 380.764,49.224 380.498,49.031 380.828,49.031 				"/>
				<polygon clip-path="url(#SVGID_6_)" fill="#FFFFFF" points="380.928,50.102 381.031,50.415 381.36,50.415 381.094,50.608 
					381.197,50.922 380.928,50.729 380.664,50.922 380.764,50.608 380.498,50.415 380.828,50.415 				"/>
				<polygon clip-path="url(#SVGID_6_)" fill="#FFFFFF" points="380.928,51.485 381.031,51.801 381.36,51.801 381.094,51.992 
					381.197,52.306 380.928,52.112 380.664,52.306 380.764,51.992 380.498,51.801 380.828,51.801 				"/>
				<polygon clip-path="url(#SVGID_6_)" fill="#FFFFFF" points="381.893,46.679 381.994,46.992 382.326,46.992 382.059,47.186 
					382.16,47.499 381.893,47.305 381.627,47.499 381.73,47.186 381.463,46.992 381.793,46.992 				"/>
				<polygon clip-path="url(#SVGID_6_)" fill="#FFFFFF" points="381.893,48.063 381.994,48.375 382.326,48.375 382.059,48.569 
					382.16,48.882 381.893,48.691 381.627,48.882 381.73,48.569 381.463,48.375 381.793,48.375 				"/>
				<polygon clip-path="url(#SVGID_6_)" fill="#FFFFFF" points="381.893,49.447 381.994,49.761 382.326,49.761 382.059,49.953 
					382.16,50.267 381.893,50.074 381.627,50.267 381.73,49.953 381.463,49.761 381.793,49.761 				"/>
				<polygon clip-path="url(#SVGID_6_)" fill="#FFFFFF" points="381.893,50.833 381.994,51.145 382.326,51.145 382.059,51.338 
					382.16,51.649 381.893,51.457 381.627,51.649 381.73,51.338 381.463,51.145 381.793,51.145 				"/>
				<polygon clip-path="url(#SVGID_6_)" fill="#FFFFFF" points="382.869,45.948 382.973,46.264 383.303,46.264 383.036,46.457 
					383.137,46.771 382.869,46.577 382.606,46.771 382.707,46.457 382.439,46.264 382.77,46.264 				"/>
				<polygon clip-path="url(#SVGID_6_)" fill="#FFFFFF" points="382.869,47.333 382.973,47.646 383.303,47.646 383.036,47.84 
					383.137,48.152 382.869,47.96 382.606,48.152 382.707,47.84 382.439,47.646 382.77,47.646 				"/>
				<polygon clip-path="url(#SVGID_6_)" fill="#FFFFFF" points="382.869,48.719 382.973,49.031 383.303,49.031 383.036,49.224 
					383.137,49.539 382.869,49.344 382.606,49.539 382.707,49.224 382.439,49.031 382.77,49.031 				"/>
				<polygon clip-path="url(#SVGID_6_)" fill="#FFFFFF" points="382.869,50.102 382.973,50.415 383.303,50.415 383.036,50.608 
					383.137,50.922 382.869,50.729 382.606,50.922 382.707,50.608 382.439,50.415 382.77,50.415 				"/>
				<polygon clip-path="url(#SVGID_6_)" fill="#FFFFFF" points="382.869,51.485 382.973,51.801 383.303,51.801 383.036,51.992 
					383.137,52.306 382.869,52.112 382.606,52.306 382.707,51.992 382.439,51.801 382.77,51.801 				"/>
				<polygon clip-path="url(#SVGID_6_)" fill="#FFFFFF" points="383.836,46.679 383.935,46.992 384.266,46.992 384.001,47.186 
					384.1,47.499 383.836,47.305 383.566,47.499 383.669,47.186 383.404,46.992 383.732,46.992 				"/>
				<polygon clip-path="url(#SVGID_6_)" fill="#FFFFFF" points="383.836,48.063 383.935,48.375 384.266,48.375 384.001,48.569 
					384.1,48.882 383.836,48.691 383.566,48.882 383.669,48.569 383.404,48.375 383.732,48.375 				"/>
				<polygon clip-path="url(#SVGID_6_)" fill="#FFFFFF" points="383.836,49.447 383.935,49.761 384.266,49.761 384.001,49.953 
					384.1,50.267 383.836,50.074 383.566,50.267 383.669,49.953 383.404,49.761 383.732,49.761 				"/>
				<polygon clip-path="url(#SVGID_6_)" fill="#FFFFFF" points="383.836,50.833 383.935,51.145 384.266,51.145 384.001,51.338 
					384.1,51.649 383.836,51.457 383.566,51.649 383.669,51.338 383.404,51.145 383.732,51.145 				"/>
				<polygon clip-path="url(#SVGID_6_)" fill="#FFFFFF" points="384.809,45.948 384.914,46.264 385.24,46.264 384.975,46.457 
					385.078,46.771 384.809,46.577 384.545,46.771 384.645,46.457 384.379,46.264 384.708,46.264 				"/>
				<polygon clip-path="url(#SVGID_6_)" fill="#FFFFFF" points="384.809,47.333 384.914,47.646 385.24,47.646 384.975,47.84 
					385.078,48.152 384.809,47.96 384.545,48.152 384.645,47.84 384.379,47.646 384.708,47.646 				"/>
				<polygon clip-path="url(#SVGID_6_)" fill="#FFFFFF" points="384.809,48.719 384.914,49.031 385.24,49.031 384.975,49.224 
					385.078,49.539 384.809,49.344 384.545,49.539 384.645,49.224 384.379,49.031 384.708,49.031 				"/>
				<polygon clip-path="url(#SVGID_6_)" fill="#FFFFFF" points="384.809,50.102 384.914,50.415 385.24,50.415 384.975,50.608 
					385.078,50.922 384.809,50.729 384.545,50.922 384.645,50.608 384.379,50.415 384.708,50.415 				"/>
				<polygon clip-path="url(#SVGID_6_)" fill="#FFFFFF" points="384.809,51.485 384.914,51.801 385.24,51.801 384.975,51.992 
					385.078,52.306 384.809,52.112 384.545,52.306 384.645,51.992 384.379,51.801 384.708,51.801 				"/>
			</g>
		</g>
	</g>
</g>
<g>
	<circle fill="#A6B0C3" cx="339.975" cy="52.734" r="7.834"/>
	<g>
		<path fill="#FFFFFF" d="M339.931,56.231c-0.075,0.283-0.112,0.471-0.112,0.563c0,0.046,0.02,0.092,0.061,0.139
			c0.041,0.046,0.084,0.068,0.13,0.068c0.081,0,0.159-0.034,0.233-0.104c0.2-0.162,0.434-0.445,0.699-0.85
			c0.018-0.028,0.078-0.084,0.113-0.052l0.142,0.08c0.035,0.03,0.013,0.074-0.001,0.099c-0.691,1.175-1.425,1.762-2.199,1.762
			c-0.301,0-0.541-0.085-0.719-0.256c-0.18-0.17-0.269-0.385-0.269-0.645c0-0.173,0.04-0.393,0.121-0.658l0.97-3.334
			c0.093-0.317,0.139-0.557,0.139-0.719c0-0.104-0.045-0.196-0.135-0.277c-0.09-0.08-0.209-0.121-0.359-0.121
			c-0.029,0-0.063,0.001-0.096,0.002c-0.049,0.001-0.14-0.037-0.124-0.087c0.013-0.041,0.026-0.085,0.032-0.108
			c0.027-0.109,0.275-0.115,0.275-0.115l1.93-0.312c0,0,0.153-0.029,0.263-0.029c0.085,0,0.164,0.001,0.218,0
			c0.148-0.002,0.068,0.17,0.068,0.17L339.931,56.231z"/>
		<path fill="#FFFFFF" d="M341.957,49.096c0,0.283-0.101,0.524-0.303,0.724c-0.201,0.199-0.445,0.299-0.728,0.299
			c-0.277,0-0.515-0.1-0.714-0.299s-0.299-0.44-0.299-0.724c0-0.282,0.098-0.524,0.294-0.727s0.437-0.304,0.719-0.304
			c0.289,0,0.532,0.102,0.731,0.304S341.957,48.813,341.957,49.096z"/>
	</g>
</g>
<circle fill="#F487CD" cx="288.158" cy="259.997" r="41.625"/>
<text transform="matrix(1 0 0 1 205.4614 343.3184)" font-family="'Montserrat-Bold'" font-size="32.4">$Brandon</text>
</svg>
