<?xml version="1.0" encoding="utf-8"?>
<!-- Generator: Adobe Illustrator 16.0.0, SVG Export Plug-In . SVG Version: 6.00 Build 0)  -->
<!DOCTYPE svg PUBLIC "-//W3C//DTD SVG 1.1//EN" "http://www.w3.org/Graphics/SVG/1.1/DTD/svg11.dtd">
<svg version="1.1" id="Layer_1" xmlns="http://www.w3.org/2000/svg" xmlns:xlink="http://www.w3.org/1999/xlink" x="0px" y="0px"
	 width="1366px" height="768px" viewBox="0 0 1366 768" enable-background="new 0 0 1366 768" xml:space="preserve">
<g>
	<defs>
		<rect id="SVGID_7_" y="-775.2" width="1366" height="768"/>
	</defs>
	<clipPath id="SVGID_2_">
		<use xlink:href="#SVGID_7_"  overflow="visible"/>
	</clipPath>
	<g clip-path="url(#SVGID_2_)">
		<path fill="#1345CE" d="M769.516,37.404c42.758-0.729,84.203,13.793,126.639,19.104c42.432,5.312,90.855-1.16,117.924-34.267
			c25.375-31.029,25.832-78.062,54.277-106.303c30.055-29.837,80.4-28.021,113.824-54.04c39.36-30.636,42.541-87.447,57.408-135.061
			c21.394-68.496,71.254-123.779,119.722-176.699c11.475-12.527,26.815-26.262,43.147-21.572
			c17.902,5.137,22.539,27.916,23.951,46.486c11.246,148.094,22.494,296.184,33.741,444.273
			c5.062,66.641,8.14,140.251-33.135,192.814c-48.116,61.271-136.229,69.435-214.07,72.607
			c-101.476,4.137-202.952,8.271-304.423,12.408c-55.893,2.277-112.51,4.498-167.174-7.383
			c-60.135-13.07-162.121-55.663-137.34-130.29C626.639,91.326,697.939,38.625,769.516,37.404z"/>
		<g opacity="0.2">
			<circle fill="#231F20" cx="1169.75" cy="-18.197" r="41.25"/>
			<g>
				<path fill="#231F20" d="M1169.75-63.572c25.06,0,45.375,20.315,45.375,45.375s-20.315,45.375-45.375,45.375
					c-25.061,0-45.375-20.315-45.375-45.375S1144.689-63.572,1169.75-63.572 M1169.75-69.572c-28.328,0-51.375,23.047-51.375,51.375
					s23.047,51.375,51.375,51.375s51.375-23.047,51.375-51.375S1198.078-69.572,1169.75-69.572L1169.75-69.572z"/>
			</g>
		</g>
	</g>
</g>
<g>
	<text transform="matrix(1 0 0 1 370.1396 424.5166)" font-family="'Montserrat-Bold'" font-size="36">Sorry, this content isn’t available.</text>
</g>
<g>
	<text transform="matrix(1 0 0 1 340.4697 498.9043)" fill="#5A728A" font-family="'Montserrat-Medium'" font-size="26">The link you followed may be broken or has expired.</text>
</g>
<g>
	<path fill="#3861FB" d="M742.082,537.436v21.899c0,6.05-4.899,10.95-10.96,10.95h-95.979c-6.051,0-10.95-4.9-10.95-10.95v-21.899
		c0-6.051,4.899-10.96,10.95-10.96h95.979C737.183,526.476,742.082,531.385,742.082,537.436z"/>
	<g>
		<text transform="matrix(1 0 0 1 654.123 553.3701)" fill="#FFFFFF" font-family="'Montserrat-SemiBold'" font-size="14.0531">Go Back</text>
	</g>
</g>
<g>
	<g>
		
			<linearGradient id="SVGID_4_" gradientUnits="userSpaceOnUse" x1="396" y1="-283.2144" x2="396" y2="-124.9448" gradientTransform="matrix(1 0 0 -1 287 72.7988)">
			<stop  offset="0" style="stop-color:#FD3A84"/>
			<stop  offset="1" style="stop-color:#FFA68D"/>
		</linearGradient>
		<path fill="url(#SVGID_4_)" d="M713.858,356.014h-61.716c-1.23,0-2.409-0.489-3.279-1.358l-43.64-43.64
			c-0.87-0.87-1.358-2.05-1.358-3.278v-61.717c0-1.229,0.488-2.409,1.358-3.278l43.64-43.64c0.87-0.87,2.049-1.358,3.279-1.358
			h61.716c1.229,0,2.409,0.488,3.278,1.358l43.639,43.64c0.87,0.869,1.359,2.049,1.359,3.278v61.716
			c0,1.229-0.488,2.409-1.359,3.279l-43.638,43.64C716.268,355.524,715.088,356.014,713.858,356.014L713.858,356.014z"/>
	</g>
	<g>
		<path fill="#FFFFFF" d="M684.223,300.345c4.238,0,7.631-3.392,7.631-7.771v-57.088c0-4.24-3.393-7.772-7.631-7.772
			c-4.239,0-7.772,3.532-7.772,7.772v57.088C676.451,296.953,679.983,300.345,684.223,300.345z"/>
		<circle fill="#FFFFFF" cx="684.152" cy="319.146" r="7.701"/>
	</g>
</g>
<g>
	<g>
		<defs>
			<rect id="SVGID_10_" y="775.2" width="1366" height="768"/>
		</defs>
		<clipPath id="SVGID_6_">
			<use xlink:href="#SVGID_10_"  overflow="visible"/>
		</clipPath>
		<g clip-path="url(#SVGID_6_)">
			<g>
				<path fill="#21A875" d="M-40.201,999.837c40.058,22.872,90.153,21.207,134.371,8.073c44.218-13.133,84.498-36.624,126.17-56.4
					c41.674-19.776,86.656-36.223,132.711-33.652c36.282,2.023,70.779,15.705,106.324,23.256
					c35.55,7.547,75.574,8.039,104.925-13.389c31.794-23.218,45.729-68.294,82.225-83.062c39.671-16.052,87.19,11.905,126.712-4.515
					c33.684-13.993,47.771-58.15,35.797-92.604c-11.97-34.457-44.113-58.826-78.626-70.632
					c-34.517-11.802-71.634-12.909-108.099-13.903c-130.856-3.563-261.713-7.126-392.569-10.689
					c-79.155-2.156-162.238-3.461-232.538,32.98c-53.593,27.783-99.045,86.798-98.313,149.184
					C-100.457,890.184-94.322,968.932-40.201,999.837z"/>
			</g>
			<g opacity="0.2">
				<circle fill="#231F20" cx="448.128" cy="775.2" r="29.465"/>
				<g>
					<path fill="#231F20" d="M448.128,742.789c17.9,0,32.411,14.511,32.411,32.411s-14.511,32.411-32.411,32.411
						c-17.9,0-32.411-14.511-32.411-32.411S430.228,742.789,448.128,742.789 M448.128,736.789c-21.18,0-38.411,17.231-38.411,38.411
						s17.231,38.411,38.411,38.411s38.411-17.231,38.411-38.411S469.308,736.789,448.128,736.789L448.128,736.789z"/>
				</g>
			</g>
			<circle opacity="0.2" fill="#231F20" cx="48.454" cy="775.976" r="20.531"/>
		</g>
	</g>
</g>
</svg>
