<?xml version="1.0" encoding="utf-8"?>
<!-- Generator: Adobe Illustrator 16.0.0, SVG Export Plug-In . SVG Version: 6.00 Build 0)  -->
<!DOCTYPE svg PUBLIC "-//W3C//DTD SVG 1.1//EN" "http://www.w3.org/Graphics/SVG/1.1/DTD/svg11.dtd">
<svg version="1.1" id="Layer_1" xmlns="http://www.w3.org/2000/svg" xmlns:xlink="http://www.w3.org/1999/xlink" x="0px" y="0px"
	 width="1366px" height="768px" viewBox="0 0 1366 768" enable-background="new 0 0 1366 768" xml:space="preserve">
<g>
	<defs>
		<rect id="SVGID_1_" y="-775.2" width="1366" height="768"/>
	</defs>
	<clipPath id="SVGID_2_">
		<use xlink:href="#SVGID_1_"  overflow="visible"/>
	</clipPath>
	<g clip-path="url(#SVGID_2_)">
		<path fill="#1345CE" d="M769.516,37.404c42.758-0.729,84.203,13.793,126.639,19.104c42.432,5.312,90.855-1.16,117.924-34.267
			c25.375-31.029,25.832-78.062,54.277-106.303c30.055-29.837,80.4-28.021,113.824-54.04c39.36-30.636,42.541-87.447,57.408-135.061
			c21.394-68.496,71.254-123.779,119.722-176.699c11.475-12.527,26.815-26.262,43.147-21.572
			c17.902,5.137,22.539,27.916,23.951,46.486c11.246,148.094,22.494,296.184,33.741,444.273
			c5.062,66.641,8.14,140.251-33.135,192.814c-48.116,61.271-136.229,69.435-214.07,72.607
			c-101.476,4.137-202.952,8.271-304.423,12.408c-55.893,2.277-112.51,4.498-167.174-7.383
			c-60.135-13.07-162.121-55.663-137.34-130.29C626.639,91.326,697.939,38.625,769.516,37.404z"/>
		<g opacity="0.2">
			<circle fill="#231F20" cx="1169.75" cy="-18.197" r="41.25"/>
			<g>
				<path fill="#231F20" d="M1169.75-63.572c25.06,0,45.375,20.315,45.375,45.375s-20.315,45.375-45.375,45.375
					c-25.061,0-45.375-20.315-45.375-45.375S1144.689-63.572,1169.75-63.572 M1169.75-69.572c-28.328,0-51.375,23.047-51.375,51.375
					s23.047,51.375,51.375,51.375s51.375-23.047,51.375-51.375S1198.078-69.572,1169.75-69.572L1169.75-69.572z"/>
			</g>
		</g>
	</g>
</g>
<g>
	<defs>
		<rect id="SVGID_3_" width="1366" height="768"/>
	</defs>
	<clipPath id="SVGID_4_">
		<use xlink:href="#SVGID_3_"  overflow="visible"/>
	</clipPath>
	<g clip-path="url(#SVGID_4_)">
		<g>
			<path fill="#1345CE" d="M-40.201,224.637c40.058,22.872,90.153,21.207,134.371,8.073c44.218-13.133,84.498-36.624,126.17-56.4
				c41.674-19.776,86.656-36.223,132.711-33.652c36.282,2.023,70.779,15.705,106.324,23.256
				c35.55,7.547,75.574,8.039,104.925-13.389c31.794-23.218,45.729-68.294,82.225-83.062c39.671-16.052,87.19,11.905,126.712-4.515
				c33.684-13.993,47.771-58.15,35.797-92.604c-11.97-34.457-44.113-58.826-78.626-70.632
				c-34.517-11.802-71.634-12.909-108.099-13.903c-130.856-3.563-261.713-7.126-392.569-10.689
				c-79.155-2.156-162.238-3.461-232.538,32.98c-53.593,27.783-99.045,86.798-98.313,149.184
				C-100.457,114.983-94.322,193.731-40.201,224.637z"/>
		</g>
		<g opacity="0.2">
			<circle fill="#231F20" cx="448.128" cy="0" r="29.465"/>
			<g>
				<path fill="#231F20" d="M448.128-32.411c17.9,0,32.411,14.511,32.411,32.411s-14.511,32.411-32.411,32.411
					c-17.9,0-32.411-14.511-32.411-32.411S430.228-32.411,448.128-32.411 M448.128-38.411c-21.18,0-38.411,17.231-38.411,38.411
					s17.231,38.411,38.411,38.411S486.539,21.18,486.539,0S469.308-38.411,448.128-38.411L448.128-38.411z"/>
			</g>
		</g>
		<path fill="#FFFFFF" d="M457.588,95.898c0,0,1.365,3.158,2.162,3.954c0.797,0.797,3.954,2.163,3.954,2.163
			s-3.157,1.366-3.954,2.163s-2.162,3.954-2.162,3.954s-1.367-3.157-2.164-3.954c-0.796-0.797-3.954-2.163-3.954-2.163
			s3.158-1.366,3.954-2.163C456.221,99.057,457.588,95.898,457.588,95.898z"/>
		<path opacity="0.5" fill="#F1F1F2" d="M637.883,33.428c0,0,3.158-1.365,3.954-2.162c0.797-0.797,2.163-3.954,2.163-3.954
			s1.366,3.157,2.163,3.954s3.954,2.162,3.954,2.162s-3.157,1.367-3.954,2.164c-0.797,0.796-2.163,3.954-2.163,3.954
			s-1.366-3.158-2.163-3.954C641.041,34.795,637.883,33.428,637.883,33.428z"/>
		<path opacity="0.5" fill="#FFFFFF" d="M79.034,152.916c0,0,1.917,4.432,3.034,5.549c1.118,1.119,5.549,3.035,5.549,3.035
			s-4.431,1.916-5.549,3.035c-1.117,1.117-3.034,5.548-3.034,5.548s-1.917-4.431-3.034-5.548c-1.119-1.119-5.549-3.035-5.549-3.035
			s4.43-1.916,5.549-3.035C77.117,157.348,79.034,152.916,79.034,152.916z"/>
		<circle opacity="0.2" fill="#231F20" cx="48.454" cy="0.775" r="20.531"/>
		<circle opacity="0.2" fill="#231F20" cx="384.086" cy="38.545" r="8.469"/>
		<circle fill="#F1F1F2" cx="121.153" cy="155.054" r="2.146"/>
		<circle opacity="0.5" fill="#F1F1F2" cx="578.104" cy="47.18" r="2.146"/>
		<circle opacity="0.5" fill="#F1F1F2" cx="734.087" cy="29.723" r="2.146"/>
		<circle fill="#F1F1F2" cx="300.609" cy="114.25" r="2.361"/>
		<circle fill="#F1F1F2" cx="39.623" cy="84.744" r="3.305"/>
		<circle opacity="0.5" fill="#F1F1F2" cx="64.564" cy="190.446" r="2.36"/>
		<g opacity="0.2">
			<path fill="#231F20" d="M0,172.862c10.641,0,19.267,8.626,19.267,19.268c0,10.641-8.626,19.267-19.267,19.267
				s-19.267-8.626-19.267-19.267C-19.267,181.488-10.641,172.862,0,172.862 M0,166.862c-13.932,0-25.267,11.335-25.267,25.268
				c0,13.932,11.335,25.267,25.267,25.267s25.267-11.334,25.267-25.267C25.267,178.197,13.932,166.862,0,166.862L0,166.862z"/>
		</g>
		<g opacity="0.2">
			<path fill="#FFFFFF" d="M540.974,114.25c4.862,0,8.804,3.942,8.804,8.805c0,4.862-3.942,8.804-8.804,8.804
				s-8.804-3.942-8.804-8.804C532.169,118.192,536.111,114.25,540.974,114.25 M540.974,110.25c-7.06,0-12.804,5.744-12.804,12.805
				c0,7.06,5.744,12.804,12.804,12.804s12.804-5.744,12.804-12.804C553.778,115.994,548.034,110.25,540.974,110.25L540.974,110.25z"
				/>
		</g>
	</g>
	<g clip-path="url(#SVGID_4_)">
		<path fill="#1345CE" d="M769.516,812.604c42.758-0.729,84.203,13.793,126.639,19.104c42.432,5.312,90.855-1.16,117.924-34.267
			c25.375-31.029,25.832-78.062,54.277-106.303c30.055-29.837,80.4-28.021,113.824-54.04c39.36-30.636,42.541-87.447,57.408-135.061
			c21.394-68.496,71.254-123.779,119.722-176.699c11.475-12.527,26.815-26.262,43.147-21.572
			c17.902,5.137,22.539,27.916,23.951,46.486c11.246,148.094,22.494,296.184,33.741,444.273
			c5.062,66.641,8.14,140.251-33.135,192.814c-48.116,61.271-136.229,69.435-214.07,72.607
			c-101.476,4.137-202.952,8.271-304.423,12.408c-55.893,2.277-112.51,4.498-167.174-7.383
			c-60.135-13.07-162.121-55.663-137.34-130.29C626.639,866.526,697.939,813.825,769.516,812.604z"/>
		<g opacity="0.2">
			<circle fill="#231F20" cx="1169.75" cy="757.003" r="41.25"/>
			<g>
				<path fill="#231F20" d="M1169.75,711.628c25.06,0,45.375,20.315,45.375,45.375s-20.315,45.375-45.375,45.375
					c-25.061,0-45.375-20.315-45.375-45.375S1144.689,711.628,1169.75,711.628 M1169.75,705.628
					c-28.328,0-51.375,23.047-51.375,51.375s23.047,51.375,51.375,51.375s51.375-23.047,51.375-51.375
					S1198.078,705.628,1169.75,705.628L1169.75,705.628z"/>
			</g>
		</g>
		<path fill="#FFFFFF" d="M1238.057,616.229c0,0,1.365,3.158,2.162,3.954c0.797,0.797,3.954,2.163,3.954,2.163
			s-3.157,1.366-3.954,2.163s-2.162,3.954-2.162,3.954s-1.367-3.157-2.164-3.954c-0.796-0.797-3.954-2.163-3.954-2.163
			s3.158-1.366,3.954-2.163C1236.689,619.387,1238.057,616.229,1238.057,616.229z"/>
		<path opacity="0.5" fill="#F1F1F2" d="M1331.628,469.383c0,0,1.365,3.158,2.162,3.954c0.797,0.797,3.954,2.163,3.954,2.163
			s-3.157,1.366-3.954,2.163s-2.162,3.954-2.162,3.954s-1.367-3.157-2.164-3.954c-0.796-0.797-3.954-2.163-3.954-2.163
			s3.158-1.366,3.954-2.163C1330.261,472.541,1331.628,469.383,1331.628,469.383z"/>
		<path fill="#FFFFFF" d="M1268.043,694.156c0,0,1.917,4.432,3.034,5.549c1.118,1.119,5.549,3.035,5.549,3.035
			s-4.431,1.916-5.549,3.035c-1.117,1.117-3.034,5.548-3.034,5.548s-1.917-4.431-3.034-5.548c-1.119-1.119-5.549-3.035-5.549-3.035
			s4.43-1.916,5.549-3.035C1266.126,698.588,1268.043,694.156,1268.043,694.156z"/>
		<circle opacity="0.2" fill="#231F20" cx="1317.877" cy="591.75" r="13.75"/>
		<circle fill="#F1F1F2" cx="1272.335" cy="519.791" r="2.146"/>
		<circle opacity="0.5" fill="#F1F1F2" cx="1317.876" cy="409.604" r="2.146"/>
		<circle opacity="0.5" fill="#F1F1F2" cx="1340.991" cy="628.461" r="2.146"/>
		<circle fill="#F1F1F2" cx="1346.896" cy="397.86" r="2.146"/>
		<circle fill="#F1F1F2" cx="1295.699" cy="719.162" r="2.36"/>
		<g opacity="0.2">
			<path fill="#231F20" d="M1366,691.168c13.812,0,25.008,11.197,25.008,25.009s-11.196,25.008-25.008,25.008
				c-13.813,0-25.009-11.196-25.009-25.008S1352.188,691.168,1366,691.168 M1366,685.168c-17.099,0-31.009,13.911-31.009,31.009
				c0,17.098,13.91,31.008,31.009,31.008c17.098,0,31.008-13.91,31.008-31.008C1397.008,699.079,1383.098,685.168,1366,685.168
				L1366,685.168z"/>
		</g>
	</g>
</g>
<g>
	<path fill="#FFFFFF" d="M165.732,59.866v-0.002l-1.286-2.528v-0.002l-1.411-2.778h-0.003l-1.291-2.542l-2.395-4.708l-1.656-3.258
		l-0.235-0.469l-1.619-3.181v-0.002h-0.002l-0.523-1.033l-0.624-1.226l0.002-0.002h-0.002l-1.257-2.47l-0.027-0.055l-4.365,3.292
		h-0.003l-0.696,0.523l-2.206,1.666h-0.002l-2.68,2.022h-0.002l-2.682-2.022l-2.207-1.666h-0.002l-0.693-0.523h-0.002l-4.366-3.293
		l-0.002-0.002l-0.002,0.002l0.002,0.002l-0.034,0.065l-1.25,2.46l-0.63,1.24l-0.519,1.022l-1.616,3.181h-0.002l-0.235,0.466v0.002
		l-1.657,3.256v0.002l-2.395,4.708l-1.291,2.542h-0.002l-1.412,2.778l-1.286,2.53l-0.016,0.033l0.085,0.018l7.153,5.393
		l12.635,9.525l2.426,1.828l2.416-1.819l2.606-1.965l10.044-7.569l7.153-5.393l0.081-0.018L165.732,59.866z M156.034,47.305v0.002
		l1.656,3.257v0.002l1.07,2.103l1.291,2.542l0.343,0.674l-3.91-2.945l-2.396-1.805v-0.002l-1.593-1.201l0.253-0.953l1.421-5.337
		L156.034,47.305z M149.722,41.88v-0.002l2.569-1.935l-0.974,3.655l-1.208,4.536l-4.341-3.275L149.722,41.88z M137.177,41.878
		l3.953,2.981l-4.35,3.281l-1.21-4.542l-0.969-3.643l0.007-0.014l2.568,1.937H137.177z M126.845,55.21l1.291-2.542l1.071-2.105
		l1.656-3.259l1.856-3.651l1.418,5.325l0.256,0.958l-1.587,1.195v0.002l-2.395,1.805l-3.91,2.945L126.845,55.21z M130.706,63.558
		h-0.002l-2.316-1.748l-2.552-1.922l5.86-4.421h0.002l2.395-1.805V53.66l1.075-0.811l4.689,17.61L130.706,63.558z M143.441,73.161
		l-5.887-22.111l1.025-0.772l2.319-1.746l0.871-0.659l0.044-0.033l0.074-0.056l0.408-0.308l1.152-0.871h0.002l1.56,1.179
		l0.074,0.056l0.044,0.033L146,48.533l0.335,0.25l0.144,0.109l0.107,0.08l0.279,0.21l0.094,0.072l0.312,0.236l1.049,0.789
		l1.016,0.766l-5.892,22.12L143.441,73.161z M158.51,61.81l-2.319,1.748l-8.494,6.405l-0.671,0.505l4.693-17.625l1.084,0.817
		l2.397,1.807l5.86,4.419L158.51,61.81z"/>
	
		<text transform="matrix(1 0 0 1 179.7749 67.5942)" fill="#FFFFFF" font-family="'MontserratAlternates-Medium'" font-size="38.0651">mitto</text>
</g>
<circle fill="#FAAF40" cx="683" cy="243.863" r="46.25"/>
<text transform="matrix(1 0 0 1 613.1318 336.4429)" font-family="'Montserrat-Bold'" font-size="36">$krupp</text>
<g>
	<path fill="#FFFFFF" stroke="#E6E7E8" stroke-width="0.75" stroke-miterlimit="10" d="M874.343,417.688
		c0,6.144-4.981,11.125-11.125,11.125h-311.5c-6.144,0-11.125-4.981-11.125-11.125v-22.25c0-6.144,4.981-11.125,11.125-11.125h311.5
		c6.144,0,11.125,4.981,11.125,11.125V417.688z"/>
	<path fill="#FFFFFF" stroke="#E6E7E8" stroke-width="0.75" stroke-miterlimit="10" d="M874.343,474.744
		c0,6.144-4.981,11.125-11.125,11.125h-311.5c-6.144,0-11.125-4.981-11.125-11.125v-22.25c0-6.144,4.981-11.125,11.125-11.125h311.5
		c6.144,0,11.125,4.981,11.125,11.125V474.744z"/>
	<g>
		<text transform="matrix(1 0 0 1 554.5742 411.5732)" fill="#A6B0C3" font-family="'Montserrat-Medium'" font-size="14">Enter recepient’s email address</text>
	</g>
	<g>
		<text transform="matrix(1 0 0 1 555.7412 468.6182)" fill="#A6B0C3" font-family="'Montserrat-Medium'" font-size="14">Enter amount</text>
	</g>
	<path fill="#FFFFFF" stroke="#E6E7E8" stroke-width="0.75" stroke-miterlimit="10" d="M874.343,531.8
		c0,6.144-4.981,11.125-11.125,11.125h-311.5c-6.144,0-11.125-4.981-11.125-11.125v-22.25c0-6.144,4.981-11.125,11.125-11.125h311.5
		c6.144,0,11.125,4.981,11.125,11.125V531.8z"/>
	<g>
		<text transform="matrix(1 0 0 1 557.2788 525.6641)" fill="#A6B0C3" font-family="'Montserrat-Medium'" font-size="14">Add a description</text>
	</g>
	<path fill="#5A728A" d="M513.95,398.368h-20.93c-1.76,0-3.19,1.44-3.19,3.19v13.439c0,1.761,1.43,3.19,3.19,3.19h20.93
		c1.76,0,3.19-1.43,3.19-3.19v-13.439C517.14,399.809,515.71,398.368,513.95,398.368z M514.42,399.959l-10.94,8.449l-10.94-8.449
		H514.42z M515.55,414.998c0,0.891-0.72,1.61-1.6,1.61h-20.93c-0.89,0-1.61-0.72-1.61-1.61v-13.92l11.59,8.95
		c0.27,0.22,0.69,0.22,0.97,0l11.58-8.95V414.998z"/>
	<path fill="#5A728A" d="M516.133,510.762c-1.146-1.694-3.449-2.141-5.144-0.996l-17.214,11.627
		c-0.118,0.079-0.213,0.188-0.276,0.314l-3.223,6.479c-0.133,0.266-0.112,0.582,0.055,0.826c0.166,0.247,0.451,0.385,0.747,0.361
		l7.214-0.571c0.142-0.01,0.278-0.058,0.396-0.138l17.214-11.626c1.693-1.147,2.139-3.448,0.996-5.144L516.133,510.762z
		 M495.435,522.26l14.088-9.517l3.068,4.544l-14.088,9.515L495.435,522.26z M494.379,523.636l2.452,3.631l-4.433,0.351
		L494.379,523.636z M514.979,515.674l-1.023,0.691l-3.068-4.544l1.023-0.69c0.942-0.636,2.221-0.389,2.857,0.553l0.766,1.134
		C516.168,513.76,515.921,515.038,514.979,515.674z"/>
	<g>
		<path fill="#5A728A" d="M516.14,457.642c-0.063-1.501-1.099-2.754-2.491-3.146c0-0.003-0.001-0.006-0.001-0.009
			c-0.294-0.083-0.604-0.127-0.923-0.127h-0.707c0,0.003,0.001,0.006,0.002,0.008h-17.772c-0.669,0-1.293,0.194-1.821,0.527v-0.008
			c-0.959,0.605-1.597,1.676-1.597,2.891v12.801c0,1.217,0.638,2.285,1.597,2.893c0.527,0.333,1.152,0.526,1.821,0.526h18.478
			c0.32,0,0.629-0.044,0.923-0.127c1.396-0.392,2.433-1.649,2.492-3.154c0.002-0.046,0.003-0.091,0.003-0.138v-12.801
			C516.143,457.733,516.142,457.687,516.14,457.642z M512.724,472.401h-18.478c-0.991,0-1.801-0.797-1.821-1.783
			c0-0.016,0-0.031,0-0.047v-12.793c0-0.012,0-0.025,0-0.038c0.025-0.983,0.833-1.774,1.821-1.774h18.478
			c0.989,0,1.796,0.791,1.821,1.774c0.001,0.013,0.001,0.026,0.001,0.038v2.795h-5.092c-2,0-3.63,1.613-3.659,3.605
			c0,0.018,0,0.037,0,0.055c0,2.018,1.642,3.659,3.659,3.659h5.092v2.679c0,0.016,0,0.031-0.001,0.047
			C514.525,471.604,513.716,472.401,512.724,472.401z M507.392,464.181v-0.002c0.03-1.113,0.943-2.008,2.062-2.008h5.092v4.125
			h-5.092c-1.137,0-2.062-0.926-2.062-2.063C507.392,464.216,507.392,464.198,507.392,464.181z"/>
		<circle fill="#5A728A" cx="509.75" cy="464.293" r="0.832"/>
	</g>
</g>
<g>
	<path fill="#21CA8A" d="M737.5,610.882c0,12.08-9.8,21.88-21.88,21.88H649.3c-12.09,0-21.89-9.8-21.89-21.88
		c0-6.05,2.45-11.521,6.41-15.48s9.43-6.41,15.48-6.41h66.32C727.7,588.991,737.5,598.792,737.5,610.882z"/>
	<g>
		<text transform="matrix(1 0 0 1 674.9136 615.5176)" fill="#FFFFFF" font-family="'Montserrat-SemiBold'" font-size="14.0531">Send</text>
	</g>
	<path fill="#FFFFFF" d="M666.894,603.292l-2.082,14.009c-0.027,0.166-0.123,0.314-0.268,0.402c-0.09,0.055-0.191,0.083-0.296,0.083
		c-0.062,0-0.122-0.012-0.185-0.031l-4.858-1.661l-2.051,2.795c-0.109,0.148-0.279,0.23-0.458,0.23c-0.06,0-0.118-0.009-0.177-0.028
		c-0.234-0.077-0.391-0.294-0.391-0.539v-3.51h-0.002l0.002-0.003l7.806-9.403l-10.09,8.627l-4.737-1.62
		c-0.214-0.071-0.364-0.266-0.381-0.493c-0.018-0.228,0.102-0.442,0.303-0.548l17.039-8.898c0.19-0.1,0.419-0.081,0.592,0.041
		C666.835,602.868,666.924,603.08,666.894,603.292z"/>
</g>
<g>
	<path fill="#21CA8A" d="M1244.843,57.783c0,12.08-9.8,21.88-21.88,21.88h-66.319c-12.09,0-21.891-9.8-21.891-21.88
		c0-6.05,2.45-11.521,6.41-15.48s9.43-6.41,15.48-6.41h66.319C1235.043,35.893,1244.843,45.693,1244.843,57.783z"/>
	<g>
		<text transform="matrix(1 0 0 1 1160.0586 62.418)" fill="#FFFFFF" font-family="'Montserrat-SemiBold'" font-size="14.0531">$ 200.07</text>
	</g>
</g>
<g>
	<path fill="#FFFFFF" stroke="#E6E7E8" stroke-width="0.75" stroke-miterlimit="10" d="M1121.723,57.783
		c0,12.08-9.8,21.88-21.88,21.88h-66.319c-12.09,0-21.891-9.8-21.891-21.88c0-6.05,2.45-11.521,6.41-15.48s9.43-6.41,15.48-6.41
		h66.319C1111.923,35.893,1121.723,45.693,1121.723,57.783z"/>
	<text transform="matrix(1 0 0 1 1073.832 62.418)" fill="#5A728A" font-family="'Montserrat-SemiBold'" font-size="14.0531">USD</text>
	<g id="USA_1_">
		<g>
			<g>
				<defs>
					<rect id="SVGID_5_" x="1031.575" y="48.383" width="33.002" height="19.25"/>
				</defs>
				<clipPath id="SVGID_6_">
					<use xlink:href="#SVGID_5_"  overflow="visible"/>
				</clipPath>
				<rect x="1031.575" y="66.152" clip-path="url(#SVGID_6_)" fill="#CB001C" width="33.002" height="1.48"/>
				<rect x="1031.575" y="64.671" clip-path="url(#SVGID_6_)" fill="#FFFFFF" width="33.002" height="1.481"/>
				<rect x="1031.575" y="63.193" clip-path="url(#SVGID_6_)" fill="#CB001C" width="33.002" height="1.478"/>
				<rect x="1031.575" y="61.711" clip-path="url(#SVGID_6_)" fill="#FFFFFF" width="33.002" height="1.482"/>
				<rect x="1031.575" y="60.229" clip-path="url(#SVGID_6_)" fill="#CB001C" width="33.002" height="1.482"/>
				<rect x="1031.575" y="58.749" clip-path="url(#SVGID_6_)" fill="#FFFFFF" width="33.002" height="1.479"/>
				<rect x="1031.575" y="57.267" clip-path="url(#SVGID_6_)" fill="#CB001C" width="33.002" height="1.482"/>
				<rect x="1031.575" y="55.787" clip-path="url(#SVGID_6_)" fill="#FFFFFF" width="33.002" height="1.479"/>
				<rect x="1031.575" y="54.308" clip-path="url(#SVGID_6_)" fill="#CB001C" width="33.002" height="1.479"/>
				<rect x="1031.575" y="52.826" clip-path="url(#SVGID_6_)" fill="#FFFFFF" width="33.002" height="1.481"/>
				<rect x="1031.575" y="51.344" clip-path="url(#SVGID_6_)" fill="#CB001C" width="33.002" height="1.482"/>
				<rect x="1031.575" y="49.865" clip-path="url(#SVGID_6_)" fill="#FFFFFF" width="33.002" height="1.479"/>
				<rect x="1031.575" y="48.383" clip-path="url(#SVGID_6_)" fill="#CB001C" width="33.002" height="1.482"/>
				<rect x="1031.575" y="48.383" clip-path="url(#SVGID_6_)" fill="#2A3560" width="15.071" height="10.366"/>
				<polygon clip-path="url(#SVGID_6_)" fill="#FFFFFF" points="1032.938,49.524 1033.066,49.919 1033.479,49.919 1033.145,50.161 
					1033.27,50.553 1032.938,50.311 1032.604,50.553 1032.733,50.161 1032.399,49.919 1032.809,49.919 				"/>
				<polygon clip-path="url(#SVGID_6_)" fill="#FFFFFF" points="1032.938,51.256 1033.066,51.647 1033.479,51.647 1033.145,51.889 
					1033.27,52.28 1032.938,52.039 1032.604,52.28 1032.733,51.889 1032.399,51.647 1032.809,51.647 				"/>
				<polygon clip-path="url(#SVGID_6_)" fill="#FFFFFF" points="1032.938,52.988 1033.066,53.378 1033.479,53.378 1033.145,53.619 
					1033.27,54.014 1032.938,53.77 1032.604,54.014 1032.733,53.619 1032.399,53.378 1032.809,53.378 				"/>
				<polygon clip-path="url(#SVGID_6_)" fill="#FFFFFF" points="1032.938,54.717 1033.066,55.108 1033.479,55.108 1033.145,55.35 
					1033.27,55.741 1032.938,55.5 1032.604,55.741 1032.733,55.35 1032.399,55.108 1032.809,55.108 				"/>
				<polygon clip-path="url(#SVGID_6_)" fill="#FFFFFF" points="1032.938,56.446 1033.066,56.84 1033.479,56.84 1033.145,57.08 
					1033.27,57.472 1032.938,57.229 1032.604,57.472 1032.733,57.08 1032.399,56.84 1032.809,56.84 				"/>
				<polygon clip-path="url(#SVGID_6_)" fill="#FFFFFF" points="1034.143,50.438 1034.266,50.829 1034.681,50.829 1034.349,51.071 
					1034.473,51.463 1034.143,51.221 1033.811,51.463 1033.936,51.071 1033.603,50.829 1034.016,50.829 				"/>
				<polygon clip-path="url(#SVGID_6_)" fill="#FFFFFF" points="1034.143,52.167 1034.266,52.558 1034.681,52.558 1034.349,52.801 
					1034.473,53.191 1034.143,52.953 1033.811,53.191 1033.936,52.801 1033.603,52.558 1034.016,52.558 				"/>
				<polygon clip-path="url(#SVGID_6_)" fill="#FFFFFF" points="1034.143,53.898 1034.266,54.29 1034.681,54.29 1034.349,54.531 
					1034.473,54.923 1034.143,54.682 1033.811,54.923 1033.936,54.531 1033.603,54.29 1034.016,54.29 				"/>
				<polygon clip-path="url(#SVGID_6_)" fill="#FFFFFF" points="1034.143,55.631 1034.266,56.021 1034.681,56.021 1034.349,56.262 
					1034.473,56.651 1034.143,56.41 1033.811,56.651 1033.936,56.262 1033.603,56.021 1034.016,56.021 				"/>
				<polygon clip-path="url(#SVGID_6_)" fill="#FFFFFF" points="1035.359,49.524 1035.488,49.919 1035.901,49.919 1035.567,50.161 
					1035.696,50.553 1035.359,50.311 1035.03,50.553 1035.156,50.161 1034.822,49.919 1035.233,49.919 				"/>
				<polygon clip-path="url(#SVGID_6_)" fill="#FFFFFF" points="1035.359,51.256 1035.488,51.647 1035.901,51.647 1035.567,51.889 
					1035.696,52.28 1035.359,52.039 1035.03,52.28 1035.156,51.889 1034.822,51.647 1035.233,51.647 				"/>
				<polygon clip-path="url(#SVGID_6_)" fill="#FFFFFF" points="1035.359,52.988 1035.488,53.378 1035.901,53.378 1035.567,53.619 
					1035.696,54.014 1035.359,53.77 1035.03,54.014 1035.156,53.619 1034.822,53.378 1035.233,53.378 				"/>
				<polygon clip-path="url(#SVGID_6_)" fill="#FFFFFF" points="1035.359,54.717 1035.488,55.108 1035.901,55.108 1035.567,55.35 
					1035.696,55.741 1035.359,55.5 1035.03,55.741 1035.156,55.35 1034.822,55.108 1035.233,55.108 				"/>
				<polygon clip-path="url(#SVGID_6_)" fill="#FFFFFF" points="1035.359,56.446 1035.488,56.84 1035.901,56.84 1035.567,57.08 
					1035.696,57.472 1035.359,57.229 1035.03,57.472 1035.156,57.08 1034.822,56.84 1035.233,56.84 				"/>
				<polygon clip-path="url(#SVGID_6_)" fill="#FFFFFF" points="1036.566,50.438 1036.692,50.829 1037.107,50.829 1036.771,51.071 
					1036.9,51.463 1036.566,51.221 1036.234,51.463 1036.363,51.071 1036.026,50.829 1036.439,50.829 				"/>
				<polygon clip-path="url(#SVGID_6_)" fill="#FFFFFF" points="1036.566,52.167 1036.692,52.558 1037.107,52.558 1036.771,52.801 
					1036.9,53.191 1036.566,52.953 1036.234,53.191 1036.363,52.801 1036.026,52.558 1036.439,52.558 				"/>
				<polygon clip-path="url(#SVGID_6_)" fill="#FFFFFF" points="1036.566,53.898 1036.692,54.29 1037.107,54.29 1036.771,54.531 
					1036.9,54.923 1036.566,54.682 1036.234,54.923 1036.363,54.531 1036.026,54.29 1036.439,54.29 				"/>
				<polygon clip-path="url(#SVGID_6_)" fill="#FFFFFF" points="1036.566,55.631 1036.692,56.021 1037.107,56.021 1036.771,56.262 
					1036.9,56.651 1036.566,56.41 1036.234,56.651 1036.363,56.262 1036.026,56.021 1036.439,56.021 				"/>
				<polygon clip-path="url(#SVGID_6_)" fill="#FFFFFF" points="1037.787,49.524 1037.916,49.919 1038.325,49.919 1037.99,50.161 
					1038.124,50.553 1037.787,50.311 1037.453,50.553 1037.58,50.161 1037.25,49.919 1037.661,49.919 				"/>
				<polygon clip-path="url(#SVGID_6_)" fill="#FFFFFF" points="1037.787,51.256 1037.916,51.647 1038.325,51.647 1037.99,51.889 
					1038.124,52.28 1037.787,52.039 1037.453,52.28 1037.58,51.889 1037.25,51.647 1037.661,51.647 				"/>
				<polygon clip-path="url(#SVGID_6_)" fill="#FFFFFF" points="1037.787,52.988 1037.916,53.378 1038.325,53.378 1037.99,53.619 
					1038.124,54.014 1037.787,53.77 1037.453,54.014 1037.58,53.619 1037.25,53.378 1037.661,53.378 				"/>
				<polygon clip-path="url(#SVGID_6_)" fill="#FFFFFF" points="1037.787,54.717 1037.916,55.108 1038.325,55.108 1037.99,55.35 
					1038.124,55.741 1037.787,55.5 1037.453,55.741 1037.58,55.35 1037.25,55.108 1037.661,55.108 				"/>
				<polygon clip-path="url(#SVGID_6_)" fill="#FFFFFF" points="1037.787,56.446 1037.916,56.84 1038.325,56.84 1037.99,57.08 
					1038.124,57.472 1037.787,57.229 1037.453,57.472 1037.58,57.08 1037.25,56.84 1037.661,56.84 				"/>
				<polygon clip-path="url(#SVGID_6_)" fill="#FFFFFF" points="1038.993,50.438 1039.12,50.829 1039.532,50.829 1039.199,51.071 
					1039.323,51.463 1038.993,51.221 1038.661,51.463 1038.785,51.071 1038.453,50.829 1038.864,50.829 				"/>
				<polygon clip-path="url(#SVGID_6_)" fill="#FFFFFF" points="1038.993,52.167 1039.12,52.558 1039.532,52.558 1039.199,52.801 
					1039.323,53.191 1038.993,52.953 1038.661,53.191 1038.785,52.801 1038.453,52.558 1038.864,52.558 				"/>
				<polygon clip-path="url(#SVGID_6_)" fill="#FFFFFF" points="1038.993,53.898 1039.12,54.29 1039.532,54.29 1039.199,54.531 
					1039.323,54.923 1038.993,54.682 1038.661,54.923 1038.785,54.531 1038.453,54.29 1038.864,54.29 				"/>
				<polygon clip-path="url(#SVGID_6_)" fill="#FFFFFF" points="1038.993,55.631 1039.12,56.021 1039.532,56.021 1039.199,56.262 
					1039.323,56.651 1038.993,56.41 1038.661,56.651 1038.785,56.262 1038.453,56.021 1038.864,56.021 				"/>
				<polygon clip-path="url(#SVGID_6_)" fill="#FFFFFF" points="1040.211,49.524 1040.34,49.919 1040.751,49.919 1040.418,50.161 
					1040.547,50.553 1040.211,50.311 1039.881,50.553 1040.006,50.161 1039.673,49.919 1040.085,49.919 				"/>
				<polygon clip-path="url(#SVGID_6_)" fill="#FFFFFF" points="1040.211,51.256 1040.34,51.647 1040.751,51.647 1040.418,51.889 
					1040.547,52.28 1040.211,52.039 1039.881,52.28 1040.006,51.889 1039.673,51.647 1040.085,51.647 				"/>
				<polygon clip-path="url(#SVGID_6_)" fill="#FFFFFF" points="1040.211,52.988 1040.34,53.378 1040.751,53.378 1040.418,53.619 
					1040.547,54.014 1040.211,53.77 1039.881,54.014 1040.006,53.619 1039.673,53.378 1040.085,53.378 				"/>
				<polygon clip-path="url(#SVGID_6_)" fill="#FFFFFF" points="1040.211,54.717 1040.34,55.108 1040.751,55.108 1040.418,55.35 
					1040.547,55.741 1040.211,55.5 1039.881,55.741 1040.006,55.35 1039.673,55.108 1040.085,55.108 				"/>
				<polygon clip-path="url(#SVGID_6_)" fill="#FFFFFF" points="1040.211,56.446 1040.34,56.84 1040.751,56.84 1040.418,57.08 
					1040.547,57.472 1040.211,57.229 1039.881,57.472 1040.006,57.08 1039.673,56.84 1040.085,56.84 				"/>
				<polygon clip-path="url(#SVGID_6_)" fill="#FFFFFF" points="1041.417,50.438 1041.544,50.829 1041.959,50.829 1041.624,51.071 
					1041.751,51.463 1041.417,51.221 1041.084,51.463 1041.213,51.071 1040.88,50.829 1041.292,50.829 				"/>
				<polygon clip-path="url(#SVGID_6_)" fill="#FFFFFF" points="1041.417,52.167 1041.544,52.558 1041.959,52.558 1041.624,52.801 
					1041.751,53.191 1041.417,52.953 1041.084,53.191 1041.213,52.801 1040.88,52.558 1041.292,52.558 				"/>
				<polygon clip-path="url(#SVGID_6_)" fill="#FFFFFF" points="1041.417,53.898 1041.544,54.29 1041.959,54.29 1041.624,54.531 
					1041.751,54.923 1041.417,54.682 1041.084,54.923 1041.213,54.531 1040.88,54.29 1041.292,54.29 				"/>
				<polygon clip-path="url(#SVGID_6_)" fill="#FFFFFF" points="1041.417,55.631 1041.544,56.021 1041.959,56.021 1041.624,56.262 
					1041.751,56.651 1041.417,56.41 1041.084,56.651 1041.213,56.262 1040.88,56.021 1041.292,56.021 				"/>
				<polygon clip-path="url(#SVGID_6_)" fill="#FFFFFF" points="1042.638,49.524 1042.767,49.919 1043.179,49.919 1042.846,50.161 
					1042.971,50.553 1042.638,50.311 1042.309,50.553 1042.434,50.161 1042.1,49.919 1042.512,49.919 				"/>
				<polygon clip-path="url(#SVGID_6_)" fill="#FFFFFF" points="1042.638,51.256 1042.767,51.647 1043.179,51.647 1042.846,51.889 
					1042.971,52.28 1042.638,52.039 1042.309,52.28 1042.434,51.889 1042.1,51.647 1042.512,51.647 				"/>
				<polygon clip-path="url(#SVGID_6_)" fill="#FFFFFF" points="1042.638,52.988 1042.767,53.378 1043.179,53.378 1042.846,53.619 
					1042.971,54.014 1042.638,53.77 1042.309,54.014 1042.434,53.619 1042.1,53.378 1042.512,53.378 				"/>
				<polygon clip-path="url(#SVGID_6_)" fill="#FFFFFF" points="1042.638,54.717 1042.767,55.108 1043.179,55.108 1042.846,55.35 
					1042.971,55.741 1042.638,55.5 1042.309,55.741 1042.434,55.35 1042.1,55.108 1042.512,55.108 				"/>
				<polygon clip-path="url(#SVGID_6_)" fill="#FFFFFF" points="1042.638,56.446 1042.767,56.84 1043.179,56.84 1042.846,57.08 
					1042.971,57.472 1042.638,57.229 1042.309,57.472 1042.434,57.08 1042.1,56.84 1042.512,56.84 				"/>
				<polygon clip-path="url(#SVGID_6_)" fill="#FFFFFF" points="1043.845,50.438 1043.969,50.829 1044.383,50.829 1044.052,51.071 
					1044.175,51.463 1043.845,51.221 1043.508,51.463 1043.637,51.071 1043.307,50.829 1043.716,50.829 				"/>
				<polygon clip-path="url(#SVGID_6_)" fill="#FFFFFF" points="1043.845,52.167 1043.969,52.558 1044.383,52.558 1044.052,52.801 
					1044.175,53.191 1043.845,52.953 1043.508,53.191 1043.637,52.801 1043.307,52.558 1043.716,52.558 				"/>
				<polygon clip-path="url(#SVGID_6_)" fill="#FFFFFF" points="1043.845,53.898 1043.969,54.29 1044.383,54.29 1044.052,54.531 
					1044.175,54.923 1043.845,54.682 1043.508,54.923 1043.637,54.531 1043.307,54.29 1043.716,54.29 				"/>
				<polygon clip-path="url(#SVGID_6_)" fill="#FFFFFF" points="1043.845,55.631 1043.969,56.021 1044.383,56.021 1044.052,56.262 
					1044.175,56.651 1043.845,56.41 1043.508,56.651 1043.637,56.262 1043.307,56.021 1043.716,56.021 				"/>
				<polygon clip-path="url(#SVGID_6_)" fill="#FFFFFF" points="1045.062,49.524 1045.192,49.919 1045.602,49.919 1045.27,50.161 
					1045.398,50.553 1045.062,50.311 1044.731,50.553 1044.856,50.161 1044.524,49.919 1044.936,49.919 				"/>
				<polygon clip-path="url(#SVGID_6_)" fill="#FFFFFF" points="1045.062,51.256 1045.192,51.647 1045.602,51.647 1045.27,51.889 
					1045.398,52.28 1045.062,52.039 1044.731,52.28 1044.856,51.889 1044.524,51.647 1044.936,51.647 				"/>
				<polygon clip-path="url(#SVGID_6_)" fill="#FFFFFF" points="1045.062,52.988 1045.192,53.378 1045.602,53.378 1045.27,53.619 
					1045.398,54.014 1045.062,53.77 1044.731,54.014 1044.856,53.619 1044.524,53.378 1044.936,53.378 				"/>
				<polygon clip-path="url(#SVGID_6_)" fill="#FFFFFF" points="1045.062,54.717 1045.192,55.108 1045.602,55.108 1045.27,55.35 
					1045.398,55.741 1045.062,55.5 1044.731,55.741 1044.856,55.35 1044.524,55.108 1044.936,55.108 				"/>
				<polygon clip-path="url(#SVGID_6_)" fill="#FFFFFF" points="1045.062,56.446 1045.192,56.84 1045.602,56.84 1045.27,57.08 
					1045.398,57.472 1045.062,57.229 1044.731,57.472 1044.856,57.08 1044.524,56.84 1044.936,56.84 				"/>
			</g>
		</g>
	</g>
</g>
<g>
	<path fill="#A6B0C3" d="M1205.27,100.24v32.83c0,7.96-6.46,14.42-14.42,14.42H787.19c-7.971,0-14.421-6.46-14.421-14.42v-32.83
		c0-7.97,6.45-14.42,14.421-14.42H965.38c13.021,0,23.58-5.28,23.58-11.78c0,6.5,10.54,11.78,23.55,11.78h178.34
		C1198.81,85.82,1205.27,92.27,1205.27,100.24z"/>
	<g>
		<text transform="matrix(1 0 0 1 788.1768 113.3848)"><tspan x="0" y="0" fill="#FFFFFF" font-family="'Montserrat-Medium'" font-size="14">This is your local currency. You can update your currency</tspan><tspan x="0" y="16.8" fill="#FFFFFF" font-family="'Montserrat-Medium'" font-size="14">by changing the wallet settings in your HandCash app.</tspan></text>
	</g>
</g>
<g>
	<circle fill="#A6B0C3" cx="989.019" cy="58.008" r="9.793"/>
	<g>
		<path fill="#FFFFFF" d="M988.964,62.379c-0.094,0.354-0.14,0.588-0.14,0.704c0,0.058,0.024,0.115,0.075,0.173
			c0.051,0.058,0.104,0.086,0.162,0.086c0.102,0,0.198-0.043,0.292-0.13c0.25-0.203,0.541-0.557,0.873-1.062
			c0.022-0.035,0.099-0.104,0.143-0.065l0.177,0.101c0.044,0.038,0.017,0.093-0.001,0.124c-0.865,1.468-1.781,2.202-2.75,2.202
			c-0.375,0-0.675-0.106-0.898-0.319s-0.335-0.482-0.335-0.806c0-0.216,0.05-0.491,0.151-0.823l1.213-4.167
			c0.115-0.396,0.173-0.696,0.173-0.898c0-0.13-0.057-0.245-0.168-0.346c-0.112-0.101-0.262-0.152-0.449-0.152
			c-0.038,0-0.078,0.001-0.12,0.002c-0.061,0.002-0.175-0.046-0.155-0.108c0.017-0.051,0.033-0.106,0.04-0.136
			c0.034-0.137,0.345-0.145,0.345-0.145l2.411-0.389c0,0,0.192-0.037,0.329-0.037c0.105,0,0.205,0.001,0.272,0
			c0.185-0.003,0.086,0.212,0.086,0.212L988.964,62.379z"/>
		<path fill="#FFFFFF" d="M991.497,53.459c0,0.354-0.126,0.655-0.379,0.904c-0.252,0.249-0.556,0.374-0.909,0.374
			c-0.347,0-0.644-0.125-0.893-0.374c-0.249-0.249-0.373-0.55-0.373-0.904s0.122-0.656,0.367-0.909
			c0.245-0.252,0.545-0.379,0.898-0.379c0.361,0,0.666,0.126,0.915,0.379C991.373,52.803,991.497,53.106,991.497,53.459z"/>
	</g>
</g>
<g>
	<defs>
		<rect id="SVGID_7_" y="775.2" width="1366" height="768"/>
	</defs>
	<clipPath id="SVGID_8_">
		<use xlink:href="#SVGID_7_"  overflow="visible"/>
	</clipPath>
	<g clip-path="url(#SVGID_8_)">
		<g>
			<path fill="#1345CE" d="M-40.201,999.837c40.058,22.872,90.153,21.207,134.371,8.073c44.218-13.133,84.498-36.624,126.17-56.4
				c41.674-19.776,86.656-36.223,132.711-33.652c36.282,2.023,70.779,15.705,106.324,23.256
				c35.55,7.547,75.574,8.039,104.925-13.389c31.794-23.218,45.729-68.294,82.225-83.062c39.671-16.052,87.19,11.905,126.712-4.515
				c33.684-13.993,47.771-58.15,35.797-92.604c-11.97-34.457-44.113-58.826-78.626-70.632
				c-34.517-11.802-71.634-12.909-108.099-13.903c-130.856-3.563-261.713-7.126-392.569-10.689
				c-79.155-2.156-162.238-3.461-232.538,32.98c-53.593,27.783-99.045,86.798-98.313,149.184
				C-100.457,890.184-94.322,968.932-40.201,999.837z"/>
		</g>
		<g opacity="0.2">
			<circle fill="#231F20" cx="448.128" cy="775.2" r="29.465"/>
			<g>
				<path fill="#231F20" d="M448.128,742.789c17.9,0,32.411,14.511,32.411,32.411s-14.511,32.411-32.411,32.411
					c-17.9,0-32.411-14.511-32.411-32.411S430.228,742.789,448.128,742.789 M448.128,736.789c-21.18,0-38.411,17.231-38.411,38.411
					s17.231,38.411,38.411,38.411s38.411-17.231,38.411-38.411S469.308,736.789,448.128,736.789L448.128,736.789z"/>
			</g>
		</g>
		<circle opacity="0.2" fill="#231F20" cx="48.454" cy="775.976" r="20.531"/>
	</g>
</g>
</svg>
