<?xml version="1.0" encoding="utf-8"?>
<!-- Generator: Adobe Illustrator 16.0.0, SVG Export Plug-In . SVG Version: 6.00 Build 0)  -->
<!DOCTYPE svg PUBLIC "-//W3C//DTD SVG 1.1//EN" "http://www.w3.org/Graphics/SVG/1.1/DTD/svg11.dtd">
<svg version="1.1" id="Layer_1" xmlns="http://www.w3.org/2000/svg" xmlns:xlink="http://www.w3.org/1999/xlink" x="0px" y="0px"
	 width="1366px" height="768px" viewBox="0 0 1366 768" enable-background="new 0 0 1366 768" xml:space="preserve">
<g>
	<defs>
		<rect id="SVGID_3_" y="-775.2" width="1366" height="768"/>
	</defs>
	<clipPath id="SVGID_2_">
		<use xlink:href="#SVGID_3_"  overflow="visible"/>
	</clipPath>
	<g clip-path="url(#SVGID_2_)">
		<path fill="#1345CE" d="M769.516,37.404c42.758-0.729,84.203,13.793,126.639,19.104c42.432,5.312,90.855-1.16,117.924-34.267
			c25.375-31.029,25.832-78.062,54.277-106.303c30.055-29.837,80.4-28.021,113.824-54.04c39.36-30.636,42.541-87.447,57.408-135.061
			c21.394-68.496,71.254-123.779,119.722-176.699c11.475-12.527,26.815-26.262,43.147-21.572
			c17.902,5.137,22.539,27.916,23.951,46.486c11.246,148.094,22.494,296.184,33.741,444.273
			c5.062,66.641,8.14,140.251-33.135,192.814c-48.116,61.271-136.229,69.435-214.07,72.607
			c-101.476,4.137-202.952,8.271-304.423,12.408c-55.893,2.277-112.51,4.498-167.174-7.383
			c-60.135-13.07-162.121-55.663-137.34-130.29C626.639,91.326,697.939,38.625,769.516,37.404z"/>
		<g opacity="0.2">
			<circle fill="#231F20" cx="1169.75" cy="-18.197" r="41.25"/>
			<g>
				<path fill="#231F20" d="M1169.75-63.572c25.06,0,45.375,20.315,45.375,45.375s-20.315,45.375-45.375,45.375
					c-25.061,0-45.375-20.315-45.375-45.375S1144.689-63.572,1169.75-63.572 M1169.75-69.572c-28.328,0-51.375,23.047-51.375,51.375
					s23.047,51.375,51.375,51.375s51.375-23.047,51.375-51.375S1198.078-69.572,1169.75-69.572L1169.75-69.572z"/>
			</g>
		</g>
	</g>
</g>
<g>
	<defs>
		<rect id="SVGID_7_" width="1366" height="768"/>
	</defs>
	<clipPath id="SVGID_4_">
		<use xlink:href="#SVGID_7_"  overflow="visible"/>
	</clipPath>
	<g clip-path="url(#SVGID_4_)">
		<g>
			<path fill="#1345CE" d="M-40.201,224.637c40.058,22.872,90.153,21.207,134.371,8.073c44.218-13.133,84.498-36.624,126.17-56.4
				c41.674-19.776,86.656-36.223,132.711-33.652c36.282,2.023,70.779,15.705,106.324,23.256
				c35.55,7.547,75.574,8.039,104.925-13.389c31.794-23.218,45.729-68.294,82.225-83.062c39.671-16.052,87.19,11.905,126.712-4.515
				c33.684-13.993,47.771-58.15,35.797-92.604c-11.97-34.457-44.113-58.826-78.626-70.632
				c-34.517-11.802-71.634-12.909-108.099-13.903c-130.856-3.563-261.713-7.126-392.569-10.689
				c-79.155-2.156-162.238-3.461-232.538,32.98c-53.593,27.783-99.045,86.798-98.313,149.184
				C-100.457,114.983-94.322,193.731-40.201,224.637z"/>
		</g>
		<g opacity="0.2">
			<circle fill="#231F20" cx="448.128" cy="0" r="29.465"/>
			<g>
				<path fill="#231F20" d="M448.128-32.411c17.9,0,32.411,14.511,32.411,32.411s-14.511,32.411-32.411,32.411
					c-17.9,0-32.411-14.511-32.411-32.411S430.228-32.411,448.128-32.411 M448.128-38.411c-21.18,0-38.411,17.231-38.411,38.411
					s17.231,38.411,38.411,38.411S486.539,21.18,486.539,0S469.308-38.411,448.128-38.411L448.128-38.411z"/>
			</g>
		</g>
		<path fill="#FFFFFF" d="M457.588,95.898c0,0,1.365,3.158,2.162,3.954c0.797,0.797,3.954,2.163,3.954,2.163
			s-3.157,1.366-3.954,2.163s-2.162,3.954-2.162,3.954s-1.367-3.157-2.164-3.954c-0.796-0.797-3.954-2.163-3.954-2.163
			s3.158-1.366,3.954-2.163C456.221,99.057,457.588,95.898,457.588,95.898z"/>
		<path opacity="0.5" fill="#F1F1F2" d="M637.883,33.428c0,0,3.158-1.365,3.954-2.162c0.797-0.797,2.163-3.954,2.163-3.954
			s1.366,3.157,2.163,3.954s3.954,2.162,3.954,2.162s-3.157,1.367-3.954,2.164c-0.797,0.796-2.163,3.954-2.163,3.954
			s-1.366-3.158-2.163-3.954C641.041,34.795,637.883,33.428,637.883,33.428z"/>
		<path opacity="0.5" fill="#FFFFFF" d="M79.034,152.916c0,0,1.917,4.432,3.034,5.549c1.118,1.119,5.549,3.035,5.549,3.035
			s-4.431,1.916-5.549,3.035c-1.117,1.117-3.034,5.548-3.034,5.548s-1.917-4.431-3.034-5.548c-1.119-1.119-5.549-3.035-5.549-3.035
			s4.43-1.916,5.549-3.035C77.117,157.348,79.034,152.916,79.034,152.916z"/>
		<circle opacity="0.2" fill="#231F20" cx="48.454" cy="0.775" r="20.531"/>
		<circle opacity="0.2" fill="#231F20" cx="384.086" cy="38.545" r="8.469"/>
		<circle fill="#F1F1F2" cx="121.153" cy="155.054" r="2.146"/>
		<circle opacity="0.5" fill="#F1F1F2" cx="578.104" cy="47.18" r="2.146"/>
		<circle opacity="0.5" fill="#F1F1F2" cx="734.087" cy="29.723" r="2.146"/>
		<circle fill="#F1F1F2" cx="300.609" cy="114.25" r="2.361"/>
		<circle fill="#F1F1F2" cx="39.623" cy="84.744" r="3.305"/>
		<circle opacity="0.5" fill="#F1F1F2" cx="64.564" cy="190.446" r="2.36"/>
		<g opacity="0.2">
			<path fill="#231F20" d="M0,172.862c10.641,0,19.267,8.626,19.267,19.268c0,10.641-8.626,19.267-19.267,19.267
				s-19.267-8.626-19.267-19.267C-19.267,181.488-10.641,172.862,0,172.862 M0,166.862c-13.932,0-25.267,11.335-25.267,25.268
				c0,13.932,11.335,25.267,25.267,25.267s25.267-11.334,25.267-25.267C25.267,178.197,13.932,166.862,0,166.862L0,166.862z"/>
		</g>
		<g opacity="0.2">
			<path fill="#FFFFFF" d="M540.974,114.25c4.862,0,8.804,3.942,8.804,8.805c0,4.862-3.942,8.804-8.804,8.804
				s-8.804-3.942-8.804-8.804C532.169,118.192,536.111,114.25,540.974,114.25 M540.974,110.25c-7.06,0-12.804,5.744-12.804,12.805
				c0,7.06,5.744,12.804,12.804,12.804s12.804-5.744,12.804-12.804C553.778,115.994,548.034,110.25,540.974,110.25L540.974,110.25z"
				/>
		</g>
	</g>
	<g clip-path="url(#SVGID_4_)">
		<path fill="#1345CE" d="M769.516,812.604c42.758-0.729,84.203,13.793,126.639,19.104c42.432,5.312,90.855-1.16,117.924-34.267
			c25.375-31.029,25.832-78.062,54.277-106.303c30.055-29.837,80.4-28.021,113.824-54.04c39.36-30.636,42.541-87.447,57.408-135.061
			c21.394-68.496,71.254-123.779,119.722-176.699c11.475-12.527,26.815-26.262,43.147-21.572
			c17.902,5.137,22.539,27.916,23.951,46.486c11.246,148.094,22.494,296.184,33.741,444.273
			c5.062,66.641,8.14,140.251-33.135,192.814c-48.116,61.271-136.229,69.435-214.07,72.607
			c-101.476,4.137-202.952,8.271-304.423,12.408c-55.893,2.277-112.51,4.498-167.174-7.383
			c-60.135-13.07-162.121-55.663-137.34-130.29C626.639,866.526,697.939,813.825,769.516,812.604z"/>
		<g opacity="0.2">
			<circle fill="#231F20" cx="1169.75" cy="757.003" r="41.25"/>
			<g>
				<path fill="#231F20" d="M1169.75,711.628c25.06,0,45.375,20.315,45.375,45.375s-20.315,45.375-45.375,45.375
					c-25.061,0-45.375-20.315-45.375-45.375S1144.689,711.628,1169.75,711.628 M1169.75,705.628
					c-28.328,0-51.375,23.047-51.375,51.375s23.047,51.375,51.375,51.375s51.375-23.047,51.375-51.375
					S1198.078,705.628,1169.75,705.628L1169.75,705.628z"/>
			</g>
		</g>
		<path fill="#FFFFFF" d="M1238.057,616.229c0,0,1.365,3.158,2.162,3.954c0.797,0.797,3.954,2.163,3.954,2.163
			s-3.157,1.366-3.954,2.163s-2.162,3.954-2.162,3.954s-1.367-3.157-2.164-3.954c-0.796-0.797-3.954-2.163-3.954-2.163
			s3.158-1.366,3.954-2.163C1236.689,619.387,1238.057,616.229,1238.057,616.229z"/>
		<path opacity="0.5" fill="#F1F1F2" d="M1331.628,469.383c0,0,1.365,3.158,2.162,3.954c0.797,0.797,3.954,2.163,3.954,2.163
			s-3.157,1.366-3.954,2.163s-2.162,3.954-2.162,3.954s-1.367-3.157-2.164-3.954c-0.796-0.797-3.954-2.163-3.954-2.163
			s3.158-1.366,3.954-2.163C1330.261,472.541,1331.628,469.383,1331.628,469.383z"/>
		<path fill="#FFFFFF" d="M1268.043,694.156c0,0,1.917,4.432,3.034,5.549c1.118,1.119,5.549,3.035,5.549,3.035
			s-4.431,1.916-5.549,3.035c-1.117,1.117-3.034,5.548-3.034,5.548s-1.917-4.431-3.034-5.548c-1.119-1.119-5.549-3.035-5.549-3.035
			s4.43-1.916,5.549-3.035C1266.126,698.588,1268.043,694.156,1268.043,694.156z"/>
		<circle opacity="0.2" fill="#231F20" cx="1317.877" cy="591.75" r="13.75"/>
		<circle fill="#F1F1F2" cx="1272.335" cy="519.791" r="2.146"/>
		<circle opacity="0.5" fill="#F1F1F2" cx="1317.876" cy="409.604" r="2.146"/>
		<circle opacity="0.5" fill="#F1F1F2" cx="1340.991" cy="628.461" r="2.146"/>
		<circle fill="#F1F1F2" cx="1346.896" cy="397.86" r="2.146"/>
		<circle fill="#F1F1F2" cx="1295.699" cy="719.162" r="2.36"/>
		<g opacity="0.2">
			<path fill="#231F20" d="M1366,691.168c13.812,0,25.008,11.197,25.008,25.009s-11.196,25.008-25.008,25.008
				c-13.813,0-25.009-11.196-25.009-25.008S1352.188,691.168,1366,691.168 M1366,685.168c-17.099,0-31.009,13.91-31.009,31.009
				c0,17.098,13.91,31.008,31.009,31.008c17.098,0,31.008-13.91,31.008-31.008C1397.008,699.078,1383.098,685.168,1366,685.168
				L1366,685.168z"/>
		</g>
	</g>
</g>
<g>
	<path fill="#FFFFFF" d="M165.732,59.866v-0.002l-1.286-2.528v-0.002l-1.411-2.778h-0.003l-1.291-2.542l-2.395-4.708l-1.656-3.258
		l-0.235-0.469l-1.619-3.181v-0.002h-0.002l-0.523-1.033l-0.624-1.226l0.002-0.002h-0.002l-1.257-2.47l-0.027-0.055l-4.365,3.292
		h-0.003l-0.696,0.523l-2.206,1.666h-0.002l-2.68,2.022h-0.002l-2.682-2.022l-2.207-1.666h-0.002l-0.693-0.523h-0.002l-4.366-3.293
		l-0.002-0.002l-0.002,0.002l0.002,0.002l-0.034,0.065l-1.25,2.46l-0.63,1.24l-0.519,1.022l-1.616,3.181h-0.002l-0.235,0.466v0.002
		l-1.657,3.256v0.002l-2.395,4.708l-1.291,2.542h-0.002l-1.412,2.778l-1.286,2.53l-0.016,0.033l0.085,0.018l7.153,5.393
		l12.635,9.525l2.426,1.828l2.416-1.819l2.606-1.965l10.044-7.569l7.153-5.393l0.081-0.018L165.732,59.866z M156.034,47.305v0.002
		l1.656,3.257v0.002l1.07,2.103l1.291,2.542l0.343,0.674l-3.91-2.945l-2.396-1.805v-0.002l-1.593-1.201l0.253-0.953l1.421-5.337
		L156.034,47.305z M149.722,41.88v-0.002l2.569-1.935l-0.974,3.655l-1.208,4.536l-4.341-3.275L149.722,41.88z M137.177,41.878
		l3.953,2.981l-4.35,3.281l-1.21-4.542l-0.969-3.643l0.007-0.014l2.568,1.937H137.177z M126.845,55.21l1.291-2.542l1.071-2.105
		l1.656-3.259l1.856-3.651l1.418,5.325l0.256,0.958l-1.587,1.195v0.002l-2.395,1.805l-3.91,2.945L126.845,55.21z M130.706,63.558
		h-0.002l-2.316-1.748l-2.552-1.922l5.86-4.421h0.002l2.395-1.805V53.66l1.075-0.811l4.689,17.61L130.706,63.558z M143.441,73.161
		l-5.887-22.111l1.025-0.772l2.319-1.746l0.871-0.659l0.044-0.033l0.074-0.056l0.408-0.308l1.152-0.871h0.002l1.56,1.179
		l0.074,0.056l0.044,0.033L146,48.533l0.335,0.25l0.144,0.109l0.107,0.08l0.279,0.21l0.094,0.072l0.312,0.236l1.049,0.789
		l1.016,0.766l-5.892,22.12L143.441,73.161z M158.51,61.81l-2.319,1.748l-8.494,6.405l-0.671,0.505l4.693-17.625l1.084,0.817
		l2.397,1.807l5.86,4.419L158.51,61.81z"/>
	
		<text transform="matrix(1 0 0 1 179.7749 67.5942)" fill="#FFFFFF" font-family="'MontserratAlternates-Medium'" font-size="38.0651">mitto</text>
</g>
<g>
	<text transform="matrix(1 0 0 1 358.9614 424.5171)" fill="#21CA8A" font-family="'Montserrat-Bold'" font-size="36">Success! Payment URL Generated.</text>
</g>
<g>
	<text transform="matrix(1 0 0 1 529.5801 498.9043)" fill="#5A728A" font-family="'Montserrat-Medium'" font-size="26">Here’s your secret URL</text>
</g>
<g>
	<path fill="#FFFFFF" stroke="#E6E7E8" stroke-width="0.75" stroke-miterlimit="10" d="M987.98,537.261v22.25
		c0,6.141-4.99,11.12-11.131,11.12H388.72c-6.15,0-11.13-4.979-11.13-11.12v-22.25c0-6.14,4.98-11.13,11.13-11.13H976.85
		C982.99,526.131,987.98,531.121,987.98,537.261z"/>
	<g>
		<text transform="matrix(1 0 0 1 390.6587 553.4492)" fill="#A6B0C3" font-family="'Montserrat-Medium'" font-size="14">https://app.handcash.io/#/authorizeApp?appId=5fff949f4033300c3d87aed1</text>
	</g>
	<path fill="#5A728A" d="M964.61,559.313h-8.154c-1.883,0-3.414-1.531-3.414-3.414v-11.568c0-1.884,1.531-3.415,3.414-3.415h8.154
		c1.883,0,3.414,1.531,3.414,3.415v11.568C968.024,557.782,966.493,559.313,964.61,559.313z M956.456,542.623
		c-0.94,0-1.707,0.767-1.707,1.708v11.568c0,0.94,0.767,1.707,1.707,1.707h8.154c0.941,0,1.707-0.767,1.707-1.707v-11.568
		c0-0.941-0.766-1.708-1.707-1.708H956.456z M971.439,553.764v-12.892c0-1.883-1.532-3.414-3.415-3.414h-9.477
		c-0.472,0-0.854,0.382-0.854,0.854c0,0.473,0.382,0.854,0.854,0.854h9.477c0.941,0,1.707,0.766,1.707,1.706v12.892
		c0,0.473,0.383,0.854,0.854,0.854C971.058,554.617,971.439,554.236,971.439,553.764z"/>
</g>
<g>
	<path fill="#21CA8A" d="M747.83,300.97c-1.6,5.97,1.04,13.69-1.98,18.92c-3.069,5.29-11.109,6.85-15.399,11.15
		c-4.311,4.3-5.86,12.34-11.16,15.41c-5.23,3.02-12.95,0.38-18.92,1.98c-5.76,1.54-11.12,7.73-17.37,7.73s-11.61-6.19-17.37-7.73
		c-5.97-1.6-13.69,1.04-18.92-1.98c-5.3-3.07-6.85-11.11-11.16-15.41c-4.3-4.3-12.33-5.86-15.4-11.15
		c-3.02-5.23-0.38-12.95-1.98-18.92c-1.54-5.77-7.73-11.12-7.73-17.37s6.19-11.61,7.73-17.37c1.6-5.97-1.04-13.7,1.98-18.92
		c3.07-5.3,11.1-6.86,15.41-11.16c4.3-4.3,5.85-12.34,11.15-15.4c5.23-3.02,12.95-0.39,18.92-1.98c5.76-1.54,11.12-7.73,17.37-7.73
		s11.61,6.19,17.37,7.73c5.97,1.59,13.689-1.04,18.92,1.98c5.3,3.06,6.85,11.1,11.16,15.4c4.3,4.3,12.34,5.86,15.399,11.16
		c3.021,5.22,0.381,12.95,1.98,18.92c1.54,5.76,7.729,11.12,7.729,17.37S749.37,295.2,747.83,300.97z"/>
	<polygon fill="#FFFFFF" points="708.72,271.91 674.94,304.34 657.22,286.62 663.25,280.58 675.06,292.39 702.81,265.75 	"/>
</g>
</svg>
