<?xml version="1.0" encoding="utf-8"?>
<!-- Generator: Adobe Illustrator 16.0.0, SVG Export Plug-In . SVG Version: 6.00 Build 0)  -->
<!DOCTYPE svg PUBLIC "-//W3C//DTD SVG 1.1//EN" "http://www.w3.org/Graphics/SVG/1.1/DTD/svg11.dtd">
<svg version="1.1" id="Layer_1" xmlns="http://www.w3.org/2000/svg" xmlns:xlink="http://www.w3.org/1999/xlink" x="0px" y="0px"
	 width="1366px" height="768px" viewBox="0 0 1366 768" enable-background="new 0 0 1366 768" xml:space="preserve">
<g>
	<rect fill="#21CA8A" width="1366" height="768"/>
	<g>
		<defs>
			<rect id="SVGID_10_" width="1366" height="768"/>
		</defs>
		<clipPath id="SVGID_2_">
			<use xlink:href="#SVGID_10_"  overflow="visible"/>
		</clipPath>
		<g clip-path="url(#SVGID_2_)">
			<g>
				<path fill="#21A875" d="M-40.201,224.637c40.058,22.872,90.153,21.207,134.371,8.073c44.218-13.133,84.498-36.624,126.17-56.4
					c41.674-19.776,86.656-36.223,132.711-33.652c36.282,2.023,70.779,15.705,106.324,23.256
					c35.55,7.547,75.574,8.039,104.925-13.389c31.794-23.218,45.729-68.294,82.225-83.062c39.671-16.052,87.19,11.905,126.712-4.515
					c33.684-13.993,47.771-58.15,35.797-92.604c-11.97-34.457-44.113-58.826-78.626-70.632
					c-34.517-11.802-71.634-12.909-108.099-13.903c-130.856-3.563-261.713-7.126-392.569-10.689
					c-79.155-2.156-162.238-3.461-232.538,32.98c-53.593,27.783-99.045,86.798-98.313,149.184
					C-100.457,114.983-94.322,193.731-40.201,224.637z"/>
			</g>
			<path fill="#FFFFFF" d="M457.588,95.898c0,0,1.365,3.158,2.162,3.954c0.797,0.797,3.954,2.163,3.954,2.163
				s-3.157,1.366-3.954,2.163s-2.162,3.954-2.162,3.954s-1.367-3.157-2.164-3.954c-0.796-0.797-3.954-2.163-3.954-2.163
				s3.158-1.366,3.954-2.163C456.221,99.057,457.588,95.898,457.588,95.898z"/>
			<path opacity="0.5" fill="#F1F1F2" d="M637.883,33.428c0,0,3.158-1.365,3.954-2.162c0.797-0.797,2.163-3.953,2.163-3.953
				s1.366,3.156,2.163,3.953s3.954,2.162,3.954,2.162s-3.157,1.367-3.954,2.164S644,39.547,644,39.547s-1.366-3.158-2.163-3.955
				C641.041,34.795,637.883,33.428,637.883,33.428z"/>
			<path opacity="0.5" fill="#FFFFFF" d="M79.034,152.916c0,0,1.917,4.432,3.034,5.549c1.118,1.119,5.549,3.035,5.549,3.035
				s-4.431,1.916-5.549,3.035c-1.117,1.117-3.034,5.548-3.034,5.548s-1.917-4.431-3.034-5.548c-1.119-1.119-5.549-3.035-5.549-3.035
				s4.43-1.916,5.549-3.035C77.117,157.348,79.034,152.916,79.034,152.916z"/>
			<circle fill="#F1F1F2" cx="121.153" cy="155.055" r="2.146"/>
			<circle opacity="0.5" fill="#F1F1F2" cx="578.104" cy="47.18" r="2.146"/>
			<circle opacity="0.5" fill="#F1F1F2" cx="734.087" cy="29.723" r="2.146"/>
			<circle fill="#F1F1F2" cx="300.609" cy="114.25" r="2.361"/>
			<circle fill="#F1F1F2" cx="39.623" cy="84.744" r="3.305"/>
			<circle opacity="0.5" fill="#F1F1F2" cx="64.564" cy="190.445" r="2.36"/>
			<g opacity="0.2">
				<path fill="#FFFFFF" d="M540.974,114.25c4.862,0,8.804,3.941,8.804,8.805c0,4.861-3.942,8.804-8.804,8.804
					s-8.804-3.942-8.804-8.804C532.169,118.191,536.111,114.25,540.974,114.25 M540.974,110.25c-7.06,0-12.804,5.744-12.804,12.805
					s5.744,12.804,12.804,12.804s12.804-5.743,12.804-12.804S548.034,110.25,540.974,110.25L540.974,110.25z"/>
			</g>
			<g opacity="0.2">
				<circle fill="#231F20" cx="448.128" cy="0" r="29.465"/>
				<g>
					<path fill="#231F20" d="M448.128-32.411c17.9,0,32.411,14.511,32.411,32.411s-14.511,32.411-32.411,32.411
						c-17.9,0-32.411-14.511-32.411-32.411S430.228-32.411,448.128-32.411 M448.128-38.411c-21.18,0-38.411,17.231-38.411,38.411
						s17.231,38.411,38.411,38.411S486.539,21.18,486.539,0S469.308-38.411,448.128-38.411L448.128-38.411z"/>
				</g>
			</g>
			<circle opacity="0.2" fill="#231F20" cx="48.454" cy="0.775" r="20.531"/>
			<circle opacity="0.2" fill="#231F20" cx="384.086" cy="38.545" r="8.469"/>
			<g opacity="0.2">
				<path fill="#231F20" d="M0,172.861c10.641,0,19.267,8.627,19.267,19.268S10.641,211.396,0,211.396s-19.267-8.627-19.267-19.268
					S-10.641,172.861,0,172.861 M0,166.861c-13.932,0-25.267,11.335-25.267,25.268S-13.932,217.396,0,217.396
					s25.267-11.335,25.267-25.268S13.932,166.861,0,166.861L0,166.861z"/>
			</g>
		</g>
		<g clip-path="url(#SVGID_2_)">
			<path fill="#21A875" d="M769.516,812.604c42.758-0.729,84.203,13.793,126.639,19.104c42.432,5.312,90.855-1.16,117.924-34.267
				c25.375-31.029,25.832-78.062,54.277-106.303c30.055-29.837,80.4-28.021,113.824-54.04
				c39.36-30.636,42.541-87.447,57.408-135.061c21.394-68.496,71.254-123.779,119.722-176.699
				c11.475-12.527,26.815-26.262,43.147-21.572c17.902,5.137,22.539,27.916,23.951,46.486
				c11.246,148.094,22.494,296.184,33.741,444.273c5.062,66.641,8.14,140.251-33.135,192.814
				c-48.116,61.271-136.229,69.435-214.07,72.607c-101.476,4.137-202.952,8.271-304.423,12.408
				c-55.893,2.277-112.51,4.498-167.174-7.383c-60.135-13.07-162.121-55.663-137.34-130.29
				C626.639,866.526,697.939,813.825,769.516,812.604z"/>
			<path fill="#FFFFFF" d="M1238.057,616.229c0,0,1.365,3.158,2.162,3.954c0.797,0.797,3.954,2.163,3.954,2.163
				s-3.157,1.366-3.954,2.163s-2.162,3.954-2.162,3.954s-1.367-3.157-2.164-3.954c-0.796-0.797-3.954-2.163-3.954-2.163
				s3.158-1.366,3.954-2.163C1236.689,619.387,1238.057,616.229,1238.057,616.229z"/>
			<path opacity="0.5" fill="#F1F1F2" d="M1331.628,469.383c0,0,1.365,3.158,2.162,3.954c0.797,0.797,3.954,2.163,3.954,2.163
				s-3.157,1.366-3.954,2.163s-2.162,3.954-2.162,3.954s-1.367-3.157-2.164-3.954c-0.796-0.797-3.954-2.163-3.954-2.163
				s3.158-1.366,3.954-2.163C1330.261,472.541,1331.628,469.383,1331.628,469.383z"/>
			<path fill="#FFFFFF" d="M1268.043,694.156c0,0,1.917,4.432,3.034,5.549c1.118,1.119,5.549,3.035,5.549,3.035
				s-4.431,1.916-5.549,3.035c-1.117,1.117-3.034,5.548-3.034,5.548s-1.917-4.431-3.034-5.548c-1.119-1.119-5.549-3.035-5.549-3.035
				s4.43-1.916,5.549-3.035C1266.126,698.588,1268.043,694.156,1268.043,694.156z"/>
			<circle fill="#F1F1F2" cx="1272.335" cy="519.791" r="2.146"/>
			<circle opacity="0.5" fill="#F1F1F2" cx="1317.876" cy="409.604" r="2.146"/>
			<circle opacity="0.5" fill="#F1F1F2" cx="1340.991" cy="628.461" r="2.146"/>
			<circle fill="#F1F1F2" cx="1346.896" cy="397.86" r="2.146"/>
			<circle fill="#F1F1F2" cx="1295.699" cy="719.162" r="2.36"/>
			<g opacity="0.2">
				<circle fill="#231F20" cx="1169.75" cy="757.003" r="41.25"/>
				<g>
					<path fill="#231F20" d="M1169.75,711.628c25.06,0,45.375,20.315,45.375,45.375s-20.315,45.375-45.375,45.375
						c-25.061,0-45.375-20.315-45.375-45.375S1144.689,711.628,1169.75,711.628 M1169.75,705.628
						c-28.328,0-51.375,23.047-51.375,51.375s23.047,51.375,51.375,51.375s51.375-23.047,51.375-51.375
						S1198.078,705.628,1169.75,705.628L1169.75,705.628z"/>
				</g>
			</g>
			<circle opacity="0.2" fill="#231F20" cx="1317.877" cy="591.75" r="13.75"/>
			<g opacity="0.2">
				<path fill="#231F20" d="M1366,691.168c13.812,0,25.008,11.197,25.008,25.009s-11.196,25.008-25.008,25.008
					c-13.813,0-25.009-11.196-25.009-25.008S1352.188,691.168,1366,691.168 M1366,685.168c-17.099,0-31.009,13.91-31.009,31.009
					c0,17.098,13.91,31.008,31.009,31.008c17.098,0,31.008-13.91,31.008-31.008C1397.008,699.078,1383.098,685.168,1366,685.168
					L1366,685.168z"/>
			</g>
		</g>
	</g>
</g>
<g>
	<text transform="matrix(1 0 0 1 367.3672 424.5176)" fill="#FFFFFF" font-family="'Montserrat-Bold'" font-size="36">You’ve received $10 from $Krupp!</text>
</g>
<g>
	<text transform="matrix(1 0 0 1 501.7725 475.8857)" fill="#FFFFFF" font-family="'Montserrat-Medium'" font-size="26">Hi Brandon. Get the tickets!</text>
</g>
<g>
	<path fill="#FFFFFF" d="M165.732,59.865v-0.002l-1.286-2.527v-0.002l-1.411-2.779h-0.003l-1.291-2.541l-2.395-4.709l-1.656-3.258
		l-0.235-0.469l-1.619-3.182v-0.002h-0.002l-0.523-1.032l-0.624-1.226l0.002-0.002h-0.002l-1.257-2.471l-0.027-0.055l-4.365,3.291
		h-0.003l-0.696,0.523l-2.206,1.666h-0.002l-2.68,2.021h-0.002l-2.682-2.021l-2.207-1.666h-0.002l-0.693-0.523h-0.002l-4.366-3.293
		l-0.002-0.003l-0.002,0.003l0.002,0.002l-0.034,0.064l-1.25,2.461l-0.63,1.24l-0.519,1.021l-1.616,3.182h-0.002l-0.235,0.466v0.003
		l-1.657,3.256v0.002l-2.395,4.709l-1.291,2.541h-0.002l-1.412,2.779l-1.286,2.529l-0.016,0.033l0.085,0.018l7.153,5.393
		l12.635,9.525l2.426,1.828l2.416-1.819l2.606-1.965l10.044-7.569l7.153-5.393l0.081-0.018L165.732,59.865z M156.034,47.305v0.002
		l1.656,3.257v0.003l1.07,2.102l1.291,2.543l0.343,0.674l-3.91-2.945l-2.396-1.805v-0.002l-1.593-1.201l0.253-0.953l1.421-5.337
		L156.034,47.305z M149.722,41.88v-0.002l2.569-1.935l-0.974,3.654l-1.208,4.537l-4.341-3.275L149.722,41.88z M137.177,41.878
		l3.953,2.981l-4.35,3.281l-1.21-4.543l-0.969-3.643l0.007-0.014l2.568,1.937H137.177z M126.845,55.211l1.291-2.543l1.071-2.104
		l1.656-3.259l1.856-3.65l1.418,5.324l0.256,0.959l-1.587,1.195v0.002l-2.395,1.805l-3.91,2.945L126.845,55.211z M130.706,63.558
		h-0.002l-2.316-1.747l-2.552-1.922l5.86-4.422h0.002l2.395-1.805V53.66l1.075-0.811l4.689,17.609L130.706,63.558z M143.441,73.161
		l-5.887-22.11l1.025-0.772l2.319-1.745l0.871-0.66l0.044-0.032l0.074-0.056l0.408-0.309l1.152-0.87h0.002l1.56,1.179l0.074,0.056
		l0.044,0.032l0.871,0.66l0.335,0.25l0.144,0.109l0.107,0.079l0.279,0.21l0.094,0.072l0.312,0.236l1.049,0.788l1.016,0.766
		l-5.892,22.12L143.441,73.161z M158.51,61.811l-2.319,1.747l-8.494,6.405l-0.671,0.504l4.693-17.624l1.084,0.817l2.397,1.807
		l5.86,4.42L158.51,61.811z"/>
	
		<text transform="matrix(1 0 0 1 179.7749 67.5938)" fill="#FFFFFF" font-family="'MontserratAlternates-Medium'" font-size="38.0651">mitto</text>
</g>
<g>
	<path fill="#FFFFFF" d="M165.732,59.865v-0.002l-1.286-2.527v-0.002l-1.411-2.779h-0.003l-1.291-2.541l-2.395-4.709l-1.656-3.258
		l-0.235-0.469l-1.619-3.182v-0.002h-0.002l-0.523-1.032l-0.624-1.226l0.002-0.002h-0.002l-1.257-2.471l-0.027-0.055l-4.365,3.291
		h-0.003l-0.696,0.523l-2.206,1.666h-0.002l-2.68,2.021h-0.002l-2.682-2.021l-2.207-1.666h-0.002l-0.693-0.523h-0.002l-4.366-3.293
		l-0.002-0.003l-0.002,0.003l0.002,0.002l-0.034,0.064l-1.25,2.461l-0.63,1.24l-0.519,1.021l-1.616,3.182h-0.002l-0.235,0.466v0.003
		l-1.657,3.256v0.002l-2.395,4.709l-1.291,2.541h-0.002l-1.412,2.779l-1.286,2.529l-0.016,0.033l0.085,0.018l7.153,5.393
		l12.635,9.525l2.426,1.828l2.416-1.819l2.606-1.965l10.044-7.569l7.153-5.393l0.081-0.018L165.732,59.865z M156.034,47.305v0.002
		l1.656,3.257v0.003l1.07,2.102l1.291,2.543l0.343,0.674l-3.91-2.945l-2.396-1.805v-0.002l-1.593-1.201l0.253-0.953l1.421-5.337
		L156.034,47.305z M149.722,41.88v-0.002l2.569-1.935l-0.974,3.654l-1.208,4.537l-4.341-3.275L149.722,41.88z M137.177,41.878
		l3.953,2.981l-4.35,3.281l-1.21-4.543l-0.969-3.643l0.007-0.014l2.568,1.937H137.177z M126.845,55.211l1.291-2.543l1.071-2.104
		l1.656-3.259l1.856-3.65l1.418,5.324l0.256,0.959l-1.587,1.195v0.002l-2.395,1.805l-3.91,2.945L126.845,55.211z M130.706,63.558
		h-0.002l-2.316-1.747l-2.552-1.922l5.86-4.422h0.002l2.395-1.805V53.66l1.075-0.811l4.689,17.609L130.706,63.558z M143.441,73.161
		l-5.887-22.11l1.025-0.772l2.319-1.745l0.871-0.66l0.044-0.032l0.074-0.056l0.408-0.309l1.152-0.87h0.002l1.56,1.179l0.074,0.056
		l0.044,0.032l0.871,0.66l0.335,0.25l0.144,0.109l0.107,0.079l0.279,0.21l0.094,0.072l0.312,0.236l1.049,0.788l1.016,0.766
		l-5.892,22.12L143.441,73.161z M158.51,61.811l-2.319,1.747l-8.494,6.405l-0.671,0.504l4.693-17.624l1.084,0.817l2.397,1.807
		l5.86,4.42L158.51,61.811z"/>
	
		<text transform="matrix(1 0 0 1 179.7749 67.5938)" fill="#FFFFFF" font-family="'MontserratAlternates-Medium'" font-size="38.0651">mitto</text>
</g>
<g>
	<path fill="#FFFFFF" d="M747.83,300.971c-1.6,5.969,1.04,13.689-1.98,18.92c-3.069,5.289-11.109,6.85-15.399,11.149
		c-4.311,4.3-5.86,12.34-11.16,15.41c-5.23,3.021-12.95,0.38-18.92,1.979c-5.76,1.541-11.12,7.73-17.37,7.73
		s-11.61-6.189-17.37-7.73c-5.97-1.6-13.69,1.041-18.92-1.979c-5.3-3.07-6.85-11.11-11.16-15.41c-4.3-4.3-12.33-5.86-15.4-11.149
		c-3.02-5.23-0.38-12.951-1.98-18.92c-1.54-5.771-7.73-11.121-7.73-17.371s6.19-11.609,7.73-17.369
		c1.6-5.971-1.04-13.701,1.98-18.92c3.07-5.301,11.1-6.86,15.41-11.16c4.3-4.301,5.85-12.34,11.15-15.4
		c5.23-3.02,12.95-0.391,18.92-1.98c5.76-1.539,11.12-7.729,17.37-7.729s11.61,6.19,17.37,7.729c5.97,1.59,13.689-1.039,18.92,1.98
		c5.3,3.061,6.85,11.1,11.16,15.4c4.3,4.3,12.34,5.859,15.399,11.16c3.021,5.219,0.381,12.949,1.98,18.92
		c1.54,5.76,7.729,11.119,7.729,17.369S749.37,295.2,747.83,300.971z"/>
	<polygon fill="#21CA8A" points="708.72,271.91 674.94,304.34 657.22,286.62 663.25,280.58 675.06,292.391 702.81,265.75 	"/>
</g>
<g>
	<path fill="#21CA8A" d="M852.771,584.642c0,19.48-15.801,35.28-35.281,35.28H549.2c-19.48,0-35.28-15.8-35.28-35.28
		c0-9.75,3.95-18.569,10.33-24.95c6.39-6.39,15.21-10.34,24.95-10.34h268.29C836.97,549.352,852.771,565.152,852.771,584.642z"/>
	<path fill="#21CA8A" stroke="#FFFFFF" stroke-width="4" stroke-miterlimit="10" d="M852.771,584.642
		c0,19.48-15.801,35.28-35.281,35.28H549.2c-19.48,0-35.28-15.8-35.28-35.28c0-9.75,3.95-18.569,10.33-24.95
		c6.39-6.39,15.21-10.34,24.95-10.34h268.29C836.97,549.352,852.771,565.152,852.771,584.642z"/>
	<g>
		<text transform="matrix(1 0 0 1 584.731 592.4102)" fill="#FFFFFF" font-family="'Montserrat-Bold'" font-size="24">Connect HandCash</text>
	</g>
	<path fill="#FFFFFF" d="M550.199,566.263l1.469,5.485c4.633,0.092,8.912,2.695,11.107,6.813l-6.58,1.764
		c-0.736-0.816-1.672-1.433-2.707-1.787c-1.17-0.398-2.467-0.469-3.75-0.125c-1.496,0.402-2.727,1.297-3.564,2.465
		c-1.086,1.516-1.512,3.486-0.99,5.428c0.52,1.941,1.873,3.438,3.572,4.206c1.309,0.593,2.822,0.751,4.318,0.351
		c1.283-0.344,2.373-1.051,3.184-1.982c0.617-0.707,1.076-1.543,1.338-2.447l6.703-1.795c0.002,4.504-2.375,8.707-6.221,11.031
		l1.469,5.486c7.73-3.801,11.959-12.646,9.645-21.281C566.876,571.236,558.792,565.688,550.199,566.263z M538.958,587.973
		c-1.473-5.496,0.84-11.117,5.34-14.092l-1.482-5.533c-7.443,3.916-11.461,12.587-9.193,21.055
		c2.27,8.467,10.086,13.967,18.49,13.636l-1.484-5.532C545.244,597.181,540.431,593.471,538.958,587.973z"/>
</g>
<g>
	<defs>
		<rect id="SVGID_12_" y="775.2" width="1366" height="768"/>
	</defs>
	<clipPath id="SVGID_4_">
		<use xlink:href="#SVGID_12_"  overflow="visible"/>
	</clipPath>
	<g clip-path="url(#SVGID_4_)">
		<g>
			<path fill="#1345CE" d="M-40.201,999.837c40.058,22.872,90.153,21.207,134.371,8.073c44.218-13.133,84.498-36.624,126.17-56.4
				c41.674-19.776,86.656-36.223,132.711-33.652c36.282,2.023,70.779,15.705,106.324,23.256
				c35.55,7.547,75.574,8.039,104.925-13.389c31.794-23.218,45.729-68.294,82.225-83.062c39.671-16.052,87.19,11.905,126.712-4.515
				c33.684-13.993,47.771-58.15,35.797-92.604c-11.97-34.457-44.113-58.826-78.626-70.632
				c-34.517-11.802-71.634-12.909-108.099-13.903c-130.856-3.563-261.713-7.126-392.569-10.689
				c-79.155-2.156-162.238-3.461-232.538,32.98c-53.593,27.783-99.045,86.798-98.313,149.184
				C-100.457,890.184-94.322,968.932-40.201,999.837z"/>
		</g>
		<g opacity="0.2">
			<circle fill="#231F20" cx="448.128" cy="775.2" r="29.465"/>
			<g>
				<path fill="#231F20" d="M448.128,742.789c17.9,0,32.411,14.512,32.411,32.411s-14.511,32.411-32.411,32.411
					c-17.9,0-32.411-14.512-32.411-32.411S430.228,742.789,448.128,742.789 M448.128,736.789c-21.18,0-38.411,17.231-38.411,38.411
					s17.231,38.411,38.411,38.411s38.411-17.231,38.411-38.411S469.308,736.789,448.128,736.789L448.128,736.789z"/>
			</g>
		</g>
		<circle opacity="0.2" fill="#231F20" cx="48.454" cy="775.976" r="20.531"/>
	</g>
</g>
</svg>
